<?xml version="1.0" encoding="utf-8"?>
<!-- Generator: Adobe Illustrator 26.1.0, SVG Export Plug-In . SVG Version: 6.00 Build 0)  -->
<svg version="1.1" id="Layer_1" xmlns="http://www.w3.org/2000/svg" xmlns:xlink="http://www.w3.org/1999/xlink" x="0px" y="0px"
	 viewBox="0 0 300 300" style="enable-background:new 0 0 300 300;" xml:space="preserve">
<style type="text/css">
	.st0{fill:#0071BC;}
</style>
<path class="st0" d="M93.5,194.8c17.3-0.9,36.5-2.5,56.7-2.5c75.9,0,137.4,22.6,137.4-53.2S225.9,1.7,150,1.7
	C74.7,1.7,13.7,62.3,12.8,137.4l0,0c0,0.3,0,0.6,0,0.8c0,0.3,0,0.6,0,0.9c0,3.9,0.2,7.5,0.5,10.9c6.5,83.3,76.3,149.1,161.2,149.1
	h113v-52h-82.2C148.2,247.1,112.6,223.3,93.5,194.8z M150,55c46.4,0,84.1,37.6,84.1,84.1c0.1,46.5-37.6,0-84.1,0s-84.1,46.4-84.1,0
	S103.6,55,150,55z"/>
</svg>
