<svg width="100" height="26" viewBox="0 0 100 26" fill="none" xmlns="http://www.w3.org/2000/svg">
<path d="M32.6929 19.2928H27.9595L26.8228 22.6492H24.8179L29.3013 10.2312H31.3843L35.8677 22.6492H33.8286L32.6929 19.2928ZM28.4497 17.7439H32.2017L30.3521 12.2967H30.3003L28.4497 17.7439Z" fill="#1B1B1D"/>
<path d="M45.5503 18.1228C45.5503 20.9363 44.0445 22.7439 41.772 22.7439C41.1963 22.774 40.6238 22.6414 40.1201 22.3612C39.6163 22.0811 39.2015 21.6647 38.9234 21.1599H38.8804V25.6442H37.022V13.5954H38.8208V15.1013H38.855C39.1459 14.5988 39.5677 14.1846 40.0753 13.9028C40.5829 13.6209 41.1575 13.482 41.7378 13.5007C44.0357 13.5007 45.5503 15.3171 45.5503 18.1228ZM43.6402 18.1228C43.6402 16.2898 42.6929 15.0847 41.2476 15.0847C39.8277 15.0847 38.8726 16.3152 38.8726 18.1228C38.8726 19.947 39.8277 21.1687 41.2476 21.1687C42.6929 21.1687 43.6401 19.9724 43.6401 18.1228H43.6402Z" fill="#1B1B1D"/>
<path d="M55.5156 18.1228C55.5156 20.9363 54.0092 22.7439 51.7368 22.7439C51.1611 22.774 50.5886 22.6414 50.0848 22.3612C49.581 22.0811 49.1663 21.6647 48.8882 21.1599H48.8452V25.6442H46.9868V13.5954H48.7856V15.1013H48.8198C49.1107 14.5988 49.5324 14.1846 50.0401 13.9028C50.5477 13.6209 51.1222 13.482 51.7026 13.5007C54.0005 13.5007 55.5156 15.3171 55.5156 18.1228ZM53.605 18.1228C53.605 16.2898 52.6577 15.0847 51.2124 15.0847C49.7925 15.0847 48.8374 16.3152 48.8374 18.1228C48.8374 19.947 49.7925 21.1687 51.2124 21.1687C52.6577 21.1687 53.605 19.9724 53.605 18.1228Z" fill="#1B1B1D"/>
<path d="M62.1006 19.1893C62.2383 20.4207 63.4346 21.2293 65.0693 21.2293C66.6357 21.2293 67.7627 20.4207 67.7627 19.3103C67.7627 18.3464 67.083 17.7693 65.4736 17.3738L63.8643 16.9861C61.584 16.4353 60.5254 15.3689 60.5254 13.6384C60.5254 11.4958 62.3926 10.0242 65.043 10.0242C67.668 10.0242 69.4668 11.4958 69.5273 13.6384H67.6513C67.539 12.3992 66.5146 11.6511 65.0176 11.6511C63.5205 11.6511 62.4961 12.408 62.4961 13.5095C62.4961 14.3875 63.1504 14.9041 64.751 15.2995L66.1191 15.6355C68.667 16.238 69.7246 17.2615 69.7246 19.0779C69.7246 21.4011 67.875 22.8562 64.9316 22.8562C62.1777 22.8562 60.3183 21.4353 60.1982 19.1892L62.1006 19.1893Z" fill="#1B1B1D"/>
<path d="M73.7373 11.4529V13.5955H75.459V15.0671H73.7373V20.0583C73.7373 20.8337 74.082 21.1951 74.8389 21.1951C75.0433 21.1915 75.2473 21.1772 75.4502 21.1521V22.615C75.1099 22.6785 74.7641 22.7073 74.418 22.7009C72.585 22.7009 71.8701 22.0124 71.8701 20.2566V15.0671H70.5537V13.5955H71.8701V11.4529H73.7373Z" fill="#1B1B1D"/>
<path d="M76.4551 18.1228C76.4551 15.2742 78.1328 13.4841 80.749 13.4841C83.374 13.4841 85.0439 15.2741 85.0439 18.1228C85.0439 20.9793 83.3828 22.7615 80.749 22.7615C78.1162 22.7615 76.4551 20.9792 76.4551 18.1228ZM83.1504 18.1228C83.1504 16.1687 82.2549 15.0154 80.749 15.0154C79.2432 15.0154 78.3476 16.1775 78.3476 18.1228C78.3476 20.0847 79.2432 21.2292 80.749 21.2292C82.2549 21.2292 83.1504 20.0847 83.1504 18.1228H83.1504Z" fill="#1B1B1D"/>
<path d="M86.5762 13.5956H88.3486V15.1366H88.3916C88.5116 14.6553 88.7935 14.23 89.1901 13.9321C89.5867 13.6342 90.0737 13.4819 90.5694 13.5008C90.7835 13.5001 90.9971 13.5234 91.2061 13.5702V15.3085C90.9357 15.2258 90.6537 15.1879 90.3711 15.1962C90.1011 15.1852 89.832 15.2328 89.5821 15.3357C89.3323 15.4386 89.1077 15.5943 88.9237 15.7922C88.7397 15.9901 88.6007 16.2255 88.5163 16.4821C88.4319 16.7388 88.404 17.0107 88.4346 17.2792V22.6493H86.5762L86.5762 13.5956Z" fill="#1B1B1D"/>
<path d="M99.7744 19.99C99.5244 21.6335 97.9238 22.7615 95.876 22.7615C93.2422 22.7615 91.6074 20.9968 91.6074 18.1658C91.6074 15.3259 93.251 13.4841 95.7979 13.4841C98.3027 13.4841 99.8779 15.2048 99.8779 17.9499V18.5867H93.4834V18.699C93.4539 19.0322 93.4956 19.3678 93.6058 19.6837C93.716 19.9995 93.8921 20.2883 94.1224 20.5308C94.3528 20.7734 94.6321 20.9642 94.9419 21.0905C95.2516 21.2168 95.5847 21.2757 95.919 21.2634C96.3581 21.3046 96.7988 21.2029 97.1755 20.9734C97.5522 20.744 97.8448 20.3991 98.0098 19.99L99.7744 19.99ZM93.4922 17.2878H98.0185C98.0352 16.9882 97.9898 16.6884 97.8851 16.4072C97.7805 16.126 97.6188 15.8695 97.4103 15.6537C97.2017 15.4379 96.9509 15.2676 96.6734 15.1534C96.3959 15.0392 96.0978 14.9835 95.7979 14.99C95.4952 14.9882 95.1952 15.0463 94.9152 15.1611C94.6351 15.2758 94.3806 15.4449 94.1662 15.6585C93.9519 15.8721 93.782 16.1261 93.6663 16.4058C93.5506 16.6854 93.4914 16.9852 93.4922 17.2878V17.2878Z" fill="#1B1B1D"/>
<path d="M28.2173 0.883968C28.6069 0.856009 28.9979 0.914869 29.362 1.0563C29.7261 1.19773 30.0543 1.41822 30.3229 1.70184C30.5914 1.98547 30.7937 2.32516 30.9151 2.69643C31.0365 3.06771 31.074 3.46129 31.0249 3.84881C31.0249 5.75506 29.9946 6.85081 28.2173 6.85081H26.062V0.883968H28.2173ZM26.9888 6.00697H28.1138C28.3922 6.02361 28.6708 5.97796 28.9293 5.87335C29.1879 5.76873 29.4198 5.60778 29.6083 5.40222C29.7968 5.19665 29.9371 4.95165 30.0189 4.68503C30.1008 4.41841 30.1222 4.13689 30.0815 3.86097C30.1192 3.58613 30.0957 3.30636 30.0126 3.0417C29.9295 2.77704 29.7888 2.53403 29.6008 2.3301C29.4127 2.12617 29.1819 1.96636 28.9248 1.86213C28.6677 1.75789 28.3907 1.71181 28.1138 1.72718H26.9888V6.00697Z" fill="#1B1B1D"/>
<path d="M32.0718 4.59736C32.0435 4.30145 32.0773 4.00288 32.1712 3.72081C32.265 3.43874 32.4168 3.1794 32.6167 2.95942C32.8166 2.73943 33.0604 2.56367 33.3322 2.44339C33.6041 2.32312 33.898 2.26099 34.1953 2.26099C34.4926 2.26099 34.7866 2.32312 35.0584 2.44339C35.3303 2.56367 35.574 2.73943 35.7739 2.95942C35.9739 3.1794 36.1256 3.43874 36.2195 3.72081C36.3133 4.00288 36.3472 4.30145 36.3189 4.59736C36.3477 4.89359 36.3143 5.19257 36.2207 5.47509C36.1271 5.75762 35.9754 6.01744 35.7754 6.23785C35.5754 6.45826 35.3315 6.6344 35.0594 6.75493C34.7873 6.87547 34.4929 6.93774 34.1953 6.93774C33.8977 6.93774 33.6034 6.87547 33.3312 6.75493C33.0591 6.6344 32.8152 6.45826 32.6152 6.23785C32.4152 6.01744 32.2636 5.75762 32.17 5.47509C32.0764 5.19257 32.0429 4.89359 32.0718 4.59736ZM35.4048 4.59736C35.4048 3.62129 34.9663 3.0505 34.1968 3.0505C33.4243 3.0505 32.9898 3.62129 32.9898 4.59737C32.9898 5.58126 33.4244 6.14767 34.1968 6.14767C34.9663 6.14766 35.4048 5.57734 35.4048 4.59736H35.4048Z" fill="#1B1B1D"/>
<path d="M41.9644 6.85083H41.0425L40.1118 3.53442H40.0415L39.1147 6.85083H38.2017L36.9604 2.3479H37.8618L38.6685 5.7839H38.7349L39.6607 2.3479H40.5132L41.439 5.7839H41.5093L42.312 2.3479H43.2007L41.9644 6.85083Z" fill="#1B1B1D"/>
<path d="M44.2446 2.34795H45.1001V3.06327H45.1665C45.2792 2.80635 45.4692 2.59098 45.71 2.44718C45.9509 2.30337 46.2306 2.2383 46.5103 2.26102C46.7294 2.24455 46.9494 2.27759 47.154 2.35768C47.3586 2.43778 47.5425 2.56288 47.6922 2.72373C47.8419 2.88457 47.9534 3.07703 48.0187 3.28685C48.0839 3.49667 48.101 3.71847 48.0688 3.93582V6.85082H47.1802V4.15899C47.1802 3.43535 46.8657 3.07549 46.2085 3.07549C46.0597 3.06856 45.9112 3.09387 45.7732 3.1497C45.6351 3.20553 45.5108 3.29056 45.4087 3.39894C45.3065 3.50733 45.229 3.63651 45.1815 3.77764C45.134 3.91877 45.1175 4.06851 45.1333 4.21659V6.85087H44.2446L44.2446 2.34795Z" fill="#1B1B1D"/>
<path d="M49.4849 0.590088H50.3735V6.85083H49.4849V0.590088Z" fill="#1B1B1D"/>
<path d="M51.6089 4.59745C51.5806 4.30151 51.6145 4.00293 51.7083 3.72085C51.8022 3.43877 51.954 3.17942 52.154 2.95943C52.3539 2.73944 52.5976 2.56367 52.8695 2.44339C53.1414 2.32312 53.4354 2.26099 53.7327 2.26099C54.03 2.26099 54.324 2.32312 54.5958 2.44339C54.8677 2.56367 55.1114 2.73944 55.3114 2.95943C55.5114 3.17942 55.6631 3.43877 55.757 3.72085C55.8509 4.00293 55.8847 4.30151 55.8565 4.59745C55.8853 4.89368 55.8518 5.19267 55.7582 5.47519C55.6645 5.75771 55.5129 6.01753 55.3128 6.23794C55.1128 6.45834 54.8689 6.63447 54.5968 6.755C54.3246 6.87553 54.0303 6.93779 53.7327 6.93779C53.435 6.93779 53.1407 6.87553 52.8686 6.755C52.5964 6.63447 52.3525 6.45834 52.1525 6.23794C51.9525 6.01753 51.8008 5.75771 51.7072 5.47519C51.6136 5.19267 51.5801 4.89368 51.6089 4.59745ZM54.9419 4.59745C54.9419 3.62138 54.5034 3.05058 53.7339 3.05058C52.9614 3.05058 52.5269 3.62138 52.5269 4.59746C52.5269 5.58135 52.9615 6.14775 53.7339 6.14775C54.5034 6.14774 54.9419 5.57743 54.9419 4.59745H54.9419Z" fill="#1B1B1D"/>
<path d="M56.792 5.57739C56.792 4.76684 57.3955 4.29956 58.4668 4.23315L59.6865 4.16284V3.77417C59.6865 3.29858 59.3721 3.03003 58.7646 3.03003C58.2686 3.03003 57.9248 3.21216 57.8262 3.53052H56.9658C57.0566 2.75708 57.7842 2.26099 58.8057 2.26099C59.9346 2.26099 60.5713 2.82299 60.5713 3.77417V6.85083H59.7158V6.21802H59.6455C59.5028 6.44501 59.3024 6.63006 59.0648 6.75427C58.8271 6.87848 58.5608 6.9374 58.293 6.92502C58.1039 6.94468 57.9129 6.92451 57.7321 6.86581C57.5514 6.80712 57.3849 6.71119 57.2435 6.58422C57.1021 6.45725 56.9888 6.30206 56.9111 6.12864C56.8333 5.95522 56.7927 5.76744 56.792 5.57739ZM59.6865 5.19262V4.81616L58.5869 4.88647C57.9668 4.92797 57.6855 5.13891 57.6855 5.53588C57.6855 5.94115 58.0371 6.17699 58.5205 6.17699C58.6622 6.19132 58.8053 6.17702 58.9413 6.13493C59.0773 6.09284 59.2034 6.02382 59.3122 5.93198C59.421 5.84014 59.5102 5.72736 59.5745 5.60034C59.6388 5.47332 59.6769 5.33466 59.6865 5.19262Z" fill="#1B1B1D"/>
<path d="M61.7393 4.59743C61.7393 3.17458 62.4707 2.27321 63.6084 2.27321C63.8898 2.26024 64.1691 2.32764 64.4136 2.46754C64.6582 2.60743 64.8578 2.81404 64.9893 3.06321H65.0557V0.590088H65.9443V6.85083H65.0928V6.1394H65.0225C64.8809 6.38689 64.6742 6.59092 64.425 6.72941C64.1757 6.86789 63.8934 6.93554 63.6084 6.92504C62.4629 6.92509 61.7393 6.0237 61.7393 4.59743ZM62.6573 4.59743C62.6573 5.55251 63.1075 6.12722 63.8604 6.12722C64.6094 6.12722 65.0723 5.54422 65.0723 4.60134C65.0723 3.66286 64.6045 3.07155 63.8604 3.07155C63.1123 3.07155 62.6572 3.65016 62.6572 4.59743H62.6573Z" fill="#1B1B1D"/>
<path d="M69.6211 4.59736C69.5928 4.30145 69.6266 4.00288 69.7204 3.72081C69.8143 3.43874 69.966 3.1794 70.166 2.95942C70.3659 2.73943 70.6096 2.56367 70.8815 2.44339C71.1533 2.32312 71.4473 2.26099 71.7446 2.26099C72.0419 2.26099 72.3359 2.32312 72.6077 2.44339C72.8796 2.56367 73.1233 2.73943 73.3232 2.95942C73.5232 3.1794 73.6749 3.43874 73.7688 3.72081C73.8626 4.00288 73.8964 4.30145 73.8681 4.59736C73.897 4.89359 73.8635 5.19257 73.7699 5.47509C73.6763 5.75762 73.5247 6.01744 73.3247 6.23785C73.1247 6.45826 72.8808 6.6344 72.6087 6.75493C72.3366 6.87547 72.0422 6.93774 71.7446 6.93774C71.447 6.93774 71.1526 6.87547 70.8805 6.75493C70.6084 6.6344 70.3645 6.45826 70.1645 6.23785C69.9645 6.01744 69.8129 5.75762 69.7193 5.47509C69.6257 5.19257 69.5922 4.89359 69.6211 4.59736ZM72.9541 4.59736C72.9541 3.62129 72.5156 3.0505 71.7461 3.0505C70.9736 3.0505 70.5391 3.62129 70.5391 4.59737C70.5391 5.58126 70.9736 6.14767 71.7461 6.14767C72.5156 6.14766 72.9541 5.57734 72.9541 4.59736Z" fill="#1B1B1D"/>
<path d="M75.0605 2.34795H75.916V3.06327H75.9824C76.0951 2.80635 76.2851 2.59098 76.526 2.44718C76.7668 2.30337 77.0466 2.2383 77.3262 2.26102C77.5453 2.24455 77.7653 2.27759 77.9699 2.35768C78.1745 2.43778 78.3584 2.56288 78.5081 2.72373C78.6578 2.88457 78.7694 3.07703 78.8346 3.28685C78.8998 3.49667 78.9169 3.71847 78.8848 3.93582V6.85082H77.9961V4.15899C77.9961 3.43535 77.6817 3.07549 77.0244 3.07549C76.8757 3.06856 76.7272 3.09387 76.5891 3.1497C76.451 3.20553 76.3267 3.29056 76.2246 3.39894C76.1224 3.50733 76.045 3.63651 75.9974 3.77764C75.9499 3.91877 75.9335 4.06851 75.9492 4.21659V6.85087H75.0605V2.34795Z" fill="#1B1B1D"/>
<path d="M83.9062 1.22681V2.36841H84.8818V3.11695H83.9062V5.43238C83.9062 5.90406 84.1006 6.1106 84.543 6.1106C84.6562 6.11023 84.7694 6.10339 84.8818 6.09009V6.83032C84.7223 6.85887 84.5606 6.87406 84.3984 6.87573C83.4102 6.87573 83.0166 6.52807 83.0166 5.65991V3.11691H82.3018V2.36837H83.0166V1.22681H83.9062Z" fill="#1B1B1D"/>
<path d="M86.0957 0.590088H86.9766V3.07154H87.0469C87.165 2.81222 87.3602 2.59563 87.6059 2.45128C87.8516 2.30693 88.1358 2.24185 88.4199 2.2649C88.6378 2.25304 88.8557 2.28943 89.058 2.37147C89.2603 2.45351 89.442 2.57918 89.5901 2.73952C89.7382 2.89986 89.8491 3.09091 89.9149 3.29905C89.9807 3.50718 89.9997 3.72727 89.9706 3.94361V6.85084H89.0811V4.16284C89.0811 3.4436 88.7461 3.07934 88.1182 3.07934C87.9655 3.06681 87.8118 3.08781 87.6681 3.14086C87.5243 3.19392 87.3938 3.27774 87.2858 3.38648C87.1778 3.49522 87.0949 3.62624 87.0428 3.77038C86.9908 3.91451 86.9708 4.06829 86.9844 4.22094V6.85082H86.0957L86.0957 0.590088Z" fill="#1B1B1D"/>
<path d="M95.1523 5.63508C95.0316 6.04662 94.77 6.40261 94.4133 6.64075C94.0566 6.8789 93.6275 6.98406 93.2011 6.93781C92.9045 6.94564 92.6097 6.88882 92.3372 6.77129C92.0647 6.65377 91.821 6.47834 91.6231 6.25721C91.4252 6.03607 91.2778 5.77451 91.1911 5.49069C91.1044 5.20687 91.0805 4.90758 91.1211 4.6136C91.0816 4.31872 91.1059 4.01878 91.1924 3.73411C91.2788 3.44944 91.4255 3.18667 91.6224 2.9636C91.8192 2.74053 92.0617 2.56235 92.3334 2.44115C92.6051 2.31994 92.8997 2.25852 93.1972 2.26106C94.4502 2.26106 95.206 3.11706 95.206 4.53106V4.84115H92.0263V4.89095C92.0124 5.0562 92.0332 5.22253 92.0873 5.37928C92.1414 5.53603 92.2277 5.67974 92.3406 5.80119C92.4535 5.92265 92.5906 6.01917 92.743 6.08457C92.8954 6.14996 93.0597 6.18279 93.2256 6.18095C93.4381 6.20647 93.6535 6.16819 93.8443 6.07099C94.035 5.97378 94.1926 5.82204 94.2968 5.63505L95.1523 5.63508ZM92.0263 4.18391H94.3007C94.3119 4.03278 94.2914 3.88098 94.2404 3.73827C94.1895 3.59555 94.1092 3.46507 94.0048 3.35521C93.9005 3.24535 93.7742 3.15855 93.6343 3.10037C93.4944 3.0422 93.3438 3.01394 93.1923 3.01741C93.0386 3.01548 92.8861 3.04434 92.7437 3.10228C92.6014 3.16023 92.472 3.24609 92.3634 3.3548C92.2547 3.46351 92.1689 3.59288 92.111 3.73528C92.0531 3.87767 92.0243 4.03021 92.0263 4.18391H92.0263Z" fill="#1B1B1D"/>
<path d="M15.3877 12.0425C15.3988 11.1746 15.6294 10.3235 16.0579 9.56862C16.4863 8.8137 17.0988 8.17943 17.8382 7.72481C17.3685 7.05391 16.7488 6.50179 16.0283 6.1123C15.3078 5.7228 14.5065 5.50666 13.6878 5.48105C11.9416 5.29775 10.2487 6.52597 9.35885 6.52597C8.45178 6.52597 7.08172 5.49925 5.60638 5.5296C4.65209 5.56043 3.72207 5.83793 2.90691 6.33507C2.09176 6.8322 1.41929 7.532 0.955007 8.3663C-1.0561 11.8483 0.444008 16.9657 2.37052 19.7803C3.3344 21.1585 4.46089 22.698 5.9349 22.6435C7.3773 22.5836 7.91601 21.7237 9.6571 21.7237C11.382 21.7237 11.8874 22.6435 13.3914 22.6087C14.9391 22.5836 15.9143 21.2244 16.8444 19.8331C17.5369 18.8511 18.0698 17.7657 18.4234 16.6172C17.5242 16.2369 16.7568 15.6003 16.217 14.7868C15.6771 13.9733 15.3887 13.0189 15.3877 12.0425Z" fill="#1B1B1D"/>
<path d="M12.5471 3.62989C13.391 2.61682 13.8067 1.31468 13.7061 0C12.4168 0.135415 11.2258 0.751614 10.3705 1.72582C9.95232 2.20174 9.63204 2.75542 9.42796 3.35521C9.22389 3.95499 9.14002 4.58911 9.18117 5.22132C9.82605 5.22796 10.464 5.08818 11.0471 4.81252C11.6301 4.53686 12.143 4.1325 12.5471 3.62989Z" fill="#1B1B1D"/>
</svg>
