<svg width="26" height="26" viewBox="0 0 26 26" fill="none" xmlns="http://www.w3.org/2000/svg">
<path d="M20.5833 7.58331H5.41667C4.22005 7.58331 3.25 8.55336 3.25 9.74998V19.5C3.25 20.6966 4.22005 21.6666 5.41667 21.6666H20.5833C21.78 21.6666 22.75 20.6966 22.75 19.5V9.74998C22.75 8.55336 21.78 7.58331 20.5833 7.58331Z" stroke="#B6BCCB" stroke-width="2" stroke-linecap="round" stroke-linejoin="round"/>
<path d="M8.6665 7.58333V5.41667C8.6665 4.84203 8.89478 4.29093 9.30111 3.8846C9.70744 3.47827 10.2585 3.25 10.8332 3.25H15.1665C15.7411 3.25 16.2922 3.47827 16.6986 3.8846C17.1049 4.29093 17.3332 4.84203 17.3332 5.41667V7.58333" stroke="#B6BCCB" stroke-width="2" stroke-linecap="round" stroke-linejoin="round"/>
<path d="M13 13V13.0108" stroke="#B6BCCB" stroke-width="2" stroke-linecap="round" stroke-linejoin="round"/>
<path d="M3.25 14.0833C6.27421 15.6072 9.61353 16.401 13 16.401C16.3865 16.401 19.7258 15.6072 22.75 14.0833" stroke="#B6BCCB" stroke-width="2" stroke-linecap="round" stroke-linejoin="round"/>
</svg>
