<?xml version="1.0" encoding="utf-8"?>
<!-- Generator: Adobe Illustrator 26.1.0, SVG Export Plug-In . SVG Version: 6.00 Build 0)  -->
<svg version="1.1" id="Layer_1" xmlns="http://www.w3.org/2000/svg" xmlns:xlink="http://www.w3.org/1999/xlink" x="0px" y="0px"
	 viewBox="0 0 1920 1009.7" style="enable-background:new 0 0 1920 1009.7;" xml:space="preserve">
<style type="text/css">
	.st0{fill:url(#SVGID_1_);}
	.st1{fill-rule:evenodd;clip-rule:evenodd;fill:#FFFFFF;}
	.st2{fill:none;stroke:url(#SVGID_00000034809920659917377110000013897734035577030555_);stroke-width:2;}
	.st3{fill:none;stroke:#FFFFFF;stroke-width:2;}
</style>
<linearGradient id="SVGID_1_" gradientUnits="userSpaceOnUse" x1="960" y1="40.6522" x2="960" y2="-439.3478" gradientTransform="matrix(1 0 0 -1 0 431.3044)">
	<stop  offset="0" style="stop-color:#0189E1"/>
	<stop  offset="1" style="stop-color:#016BD4"/>
</linearGradient>
<path class="st0" d="M1920,390.7H0v480h578.2c73.7,0,138.3-45.3,195.8-91.6c50.9-40.9,115.6-65.4,186-65.4
	c70.4,0,135.1,24.5,186,65.4c57.5,46.2,122,91.6,195.8,91.6H1920V390.7z"/>
<path class="st1" d="M1920,0H0v177.2c-94.1,31.9-148,68.9-148,108.4c0,119.8,496.1,217,1108,217c611.9,0,1108-97.2,1108-217
	c0-39.5-53.9-76.5-148-108.4V0z"/>
<radialGradient id="SVGID_00000158010542787804858840000014999555168949995174_" cx="421.2551" cy="755.9493" r="1" gradientTransform="matrix(1.244100e-14 -203.177 -1413.66 -8.656172e-14 1069615.25 86116.3906)" gradientUnits="userSpaceOnUse">
	<stop  offset="0" style="stop-color:#016BD4"/>
	<stop  offset="1" style="stop-color:#FFFFFF;stop-opacity:0"/>
</radialGradient>
<path style="fill:none;stroke:url(#SVGID_00000158010542787804858840000014999555168949995174_);stroke-width:2;" d="M2067,283.2
	c0,11.9-7.5,23.6-22.1,35.2c-14.6,11.5-36.3,22.7-64.3,33.4c-56,21.3-137,40.5-237.2,56.7c-200.4,32.3-477.4,52.3-783.3,52.3
	c-305.9,0-582.9-20-783.3-52.3C76.5,392.2-4.6,373-60.6,351.7c-28-10.7-49.7-21.8-64.3-33.4c-14.7-11.5-22.1-23.3-22.1-35.2
	s7.5-23.6,22.1-35.2c14.6-11.5,36.3-22.7,64.3-33.4c56-21.3,137-40.5,237.3-56.7c200.4-32.3,477.4-52.3,783.3-52.3
	c305.9,0,582.9,20,783.3,52.3c100.2,16.1,181.3,35.4,237.2,56.7c28,10.7,49.7,21.8,64.3,33.4C2059.5,259.5,2067,271.3,2067,283.2z"
	/>
<path class="st3" d="M1839.6,399.9c6.7,13.5,10.3,28.4,10.4,43.5c0.1,15.1-3.2,30-9.7,43.6c-6.5,13.6-16,25.6-27.8,35
	c-11.8,9.4-25.6,16-40.3,19.3c-14.7,3.3-30,3.2-44.7-0.3c-14.7-3.5-28.4-10.3-40.1-19.9c-11.7-9.6-21-21.7-27.3-35.4
	c-6.3-13.7-9.4-28.7-9-43.8"/>
<path class="st3" d="M1828.9,405.2c5.9,11.9,9,25,9.1,38.2c0.1,13.3-2.8,26.4-8.5,38.4c-5.7,12-14.1,22.5-24.5,30.8
	c-10.4,8.3-22.5,14.1-35.5,16.9s-26.4,2.8-39.3-0.3c-12.9-3.1-24.9-9-35.2-17.5c-10.3-8.4-18.5-19.1-24-31.1
	c-5.5-12.1-8.3-25.2-8-38.5"/>
<path class="st3" d="M1817.2,411c5,10.1,7.7,21.3,7.8,32.6c0.1,11.3-2.4,22.5-7.3,32.7c-4.9,10.2-12,19.2-20.8,26.2
	c-8.8,7-19.2,12-30.2,14.4c-11,2.5-22.5,2.4-33.5-0.2c-11-2.6-21.2-7.7-30-14.9c-8.7-7.2-15.7-16.2-20.4-26.5
	c-4.7-10.3-7-21.5-6.8-32.8"/>
<path class="st3" d="M-33,865.7c0.9-15.1,5.3-29.7,12.8-42.8c7.4-13.1,17.8-24.4,30.2-32.9c12.4-8.5,26.7-14.1,41.6-16.4
	c14.9-2.2,30.2-1,44.6,3.5c14.4,4.5,27.6,12.3,38.5,22.6s19.4,23.1,24.7,37.2c5.3,14.1,7.3,29.3,5.9,44.3
	c-1.4,15-6.2,29.5-14.1,42.4"/>
<path class="st3" d="M-21,866.4c0.8-13.2,4.7-26.1,11.2-37.7c6.5-11.6,15.6-21.4,26.6-29c10.9-7.5,23.5-12.4,36.6-14.4
	c13.1-2,26.5-0.9,39.2,3.1c12.7,4,24.3,10.8,33.9,19.9c9.6,9.1,17.1,20.3,21.8,32.7c4.7,12.4,6.5,25.8,5.2,39
	c-1.2,13.2-5.5,26-12.4,37.3"/>
<path class="st3" d="M-8.1,867.3c0.7-11.3,4-22.2,9.6-32.1c5.6-9.8,13.3-18.3,22.6-24.7s20-10.6,31.1-12.3
	c11.2-1.7,22.6-0.8,33.4,2.6c10.8,3.4,20.7,9.2,28.9,17c8.2,7.8,14.5,17.3,18.5,27.9c4,10.6,5.5,21.9,4.5,33.2s-4.7,22.1-10.5,31.8"
	/>
</svg>
