<?xml version="1.0" encoding="utf-8"?>
<!-- Generator: Adobe Illustrator 26.1.0, SVG Export Plug-In . SVG Version: 6.00 Build 0)  -->
<svg version="1.1" id="Layer_1" xmlns="http://www.w3.org/2000/svg" xmlns:xlink="http://www.w3.org/1999/xlink" x="0px" y="0px"
	 viewBox="0 0 1920 531.9" style="enable-background:new 0 0 1920 531.9;" xml:space="preserve">
<style type="text/css">
	.st0{fill:url(#SVGID_1_);}
	.st1{fill:url(#SVGID_00000074418381507867982100000000213424766935205053_);}
	.st2{fill:none;stroke:#FFFFFF;stroke-width:2;}
</style>
<linearGradient id="SVGID_1_" gradientUnits="userSpaceOnUse" x1="960" y1="44.6367" x2="960" y2="521.3367">
	<stop  offset="0" style="stop-color:#0189E1"/>
	<stop  offset="1" style="stop-color:#016BD4"/>
</linearGradient>
<path class="st0" d="M1920,44.6v476.7h-578.2c-73.8,0-138.3-45.4-195.8-91.6c-50.9-40.9-115.6-65.4-186-65.4s-135.1,24.5-186,65.4
	c-57.5,46.3-122.1,91.6-195.8,91.6H0V44.6c191.5,64.9,549.7,108.6,960,108.6S1728.5,109.5,1920,44.6z"/>
<g>
	
		<radialGradient id="SVGID_00000103973879804973583980000007955487759867407530_" cx="959.9998" cy="-564.5807" r="1162.2864" gradientUnits="userSpaceOnUse">
		<stop  offset="0" style="stop-color:#016BD4"/>
		<stop  offset="1" style="stop-color:#FFFFFF;stop-opacity:0"/>
	</radialGradient>
	<path style="fill:url(#SVGID_00000103973879804973583980000007955487759867407530_);" d="M960.1,113.9
		c-296,0-574.3-18.6-783.7-52.3C74.2,45-5.8,25.8-61.5,4.7l1.8-4.7c55.3,21,135,40.1,236.9,56.7c209.1,33.7,487.2,52.3,782.9,52.3
		c295.7,0,573.8-18.6,782.9-52.3c101.5-16.4,181.2-35.5,236.7-56.6l1.8,4.7c-55.8,21.2-135.8,40.4-237.7,56.8
		C1534.4,95.4,1256.1,113.9,960.1,113.9z"/>
</g>
<path class="st2" d="M1845.9,66.6c2.6,8.9,4,18.1,4.1,27.5c0.1,15.1-3.2,30-9.7,43.6s-16,25.6-27.8,35s-25.6,16-40.3,19.3
	c-14.7,3.3-30,3.2-44.7-0.3s-28.4-10.3-40.1-19.9c-11.7-9.6-21-21.7-27.3-35.4c-4.4-9.7-7.3-20-8.4-30.6"/>
<path class="st2" d="M1834.3,69.5c2.4,7.9,3.6,16.2,3.7,24.5c0.1,13.3-2.8,26.4-8.5,38.4s-14.1,22.5-24.5,30.8
	c-10.4,8.3-22.5,14.1-35.5,16.9s-26.4,2.8-39.3-0.3c-12.9-3.1-24.9-9-35.2-17.5c-10.3-8.4-18.5-19.1-24-31.1
	c-3.9-8.7-6.5-17.9-7.5-27.4"/>
<path class="st2" d="M1821.6,72.7c2.2,7,3.3,14.2,3.4,21.6c0.1,11.3-2.4,22.5-7.3,32.7c-4.9,10.2-12,19.2-20.8,26.2
	c-8.8,7-19.2,12-30.2,14.4c-11,2.5-22.5,2.4-33.5-0.2c-11-2.6-21.2-7.7-30-14.9c-8.7-7.2-15.7-16.2-20.4-26.5
	c-3.5-7.7-5.7-15.8-6.5-24.2"/>
<path class="st2" d="M165.7,521.3c-0.1-11.5-2.2-23-6.3-33.8c-5.3-14.1-13.8-26.9-24.7-37.2c-10.9-10.3-24.1-18.1-38.5-22.6
	s-29.7-5.7-44.6-3.5c-14.9,2.3-29.2,7.9-41.6,16.4c-3.5,2.4-6.8,5-10,7.9c-8,7.2-14.9,15.6-20.2,25c-7.5,13.1-11.9,27.7-12.8,42.8"
	/>
<path class="st2" d="M153.9,521.3c-0.1-10.1-2-20.2-5.6-29.7c-4.7-12.4-12.2-23.6-21.8-32.7c-9.6-9.1-21.2-15.9-33.9-19.9
	s-26.1-5.1-39.2-3.1s-25.7,6.9-36.6,14.4c-6.3,4.3-11.9,9.4-16.8,15c-3.7,4.3-7,9-9.8,14c-6.5,11.6-10.4,24.5-11.2,37.7"/>
<path class="st2" d="M140.8,521.3c-0.1-8.5-1.8-17-4.8-25c-4-10.6-10.3-20.1-18.5-27.9c-8.2-7.8-18.1-13.6-28.9-17
	c-10.8-3.4-22.2-4.3-33.4-2.6c-11.1,1.7-21.8,5.9-31.1,12.3S7.1,476,1.5,485.8c-0.5,0.9-1,1.9-1.5,2.8c-4.7,9.1-7.5,19-8.1,29.3"/>
</svg>
