<svg width="30" height="30" viewBox="0 0 30 30" fill="none" xmlns="http://www.w3.org/2000/svg">
<path d="M11.25 5V27.5M7.5 5H21.25C21.913 5 22.5489 5.26339 23.0178 5.73223C23.4866 6.20107 23.75 6.83696 23.75 7.5V22.5C23.75 23.163 23.4866 23.7989 23.0178 24.2678C22.5489 24.7366 21.913 25 21.25 25H7.5C7.16848 25 6.85054 24.8683 6.61612 24.6339C6.3817 24.3995 6.25 24.0815 6.25 23.75V6.25C6.25 5.91848 6.3817 5.60054 6.61612 5.36612C6.85054 5.1317 7.16848 5 7.5 5V5Z" stroke="#B6BCCB" stroke-width="2" stroke-linecap="round" stroke-linejoin="round"/>
<path d="M16.25 10H18.75" stroke="#B6BCCB" stroke-width="2" stroke-linecap="round" stroke-linejoin="round"/>
<path d="M16.25 15H18.75" stroke="#B6BCCB" stroke-width="2" stroke-linecap="round" stroke-linejoin="round"/>
</svg>
