<svg width="34" height="34" viewBox="0 0 34 34" fill="none" xmlns="http://www.w3.org/2000/svg">
<path d="M4.25 26.9167C6.18824 25.7976 8.38691 25.2085 10.625 25.2085C12.8631 25.2085 15.0618 25.7976 17 26.9167C18.9382 25.7976 21.1369 25.2085 23.375 25.2085C25.6131 25.2085 27.8118 25.7976 29.75 26.9167" stroke="#1B1B1D" stroke-width="2" stroke-linecap="round" stroke-linejoin="round"/>
<path d="M4.25 8.50017C6.18824 7.38112 8.38691 6.79199 10.625 6.79199C12.8631 6.79199 15.0618 7.38112 17 8.50017C18.9382 7.38112 21.1369 6.79199 23.375 6.79199C25.6131 6.79199 27.8118 7.38112 29.75 8.50017" stroke="#1B1B1D" stroke-width="2" stroke-linecap="round" stroke-linejoin="round"/>
<path d="M4.25 8.5V26.9167" stroke="#1B1B1D" stroke-width="2" stroke-linecap="round" stroke-linejoin="round"/>
<path d="M17 8.5V26.9167" stroke="#1B1B1D" stroke-width="2" stroke-linecap="round" stroke-linejoin="round"/>
<path d="M29.75 8.5V26.9167" stroke="#1B1B1D" stroke-width="2" stroke-linecap="round" stroke-linejoin="round"/>
</svg>
