<svg width="30" height="30" viewBox="0 0 30 30" fill="none" xmlns="http://www.w3.org/2000/svg">
<path d="M14.7438 26.25H6.25C5.58696 26.25 4.95107 25.9866 4.48223 25.5178C4.01339 25.0489 3.75 24.413 3.75 23.75V8.75C3.75 8.08696 4.01339 7.45107 4.48223 6.98223C4.95107 6.51339 5.58696 6.25 6.25 6.25H21.25C21.913 6.25 22.5489 6.51339 23.0178 6.98223C23.4866 7.45107 23.75 8.08696 23.75 8.75V13.75" stroke="#B6BCCB" stroke-width="2" stroke-linecap="round" stroke-linejoin="round"/>
<path d="M22.5 27.5C25.2614 27.5 27.5 25.2614 27.5 22.5C27.5 19.7386 25.2614 17.5 22.5 17.5C19.7386 17.5 17.5 19.7386 17.5 22.5C17.5 25.2614 19.7386 27.5 22.5 27.5Z" stroke="#B6BCCB" stroke-width="2" stroke-linecap="round" stroke-linejoin="round"/>
<path d="M18.75 3.75V8.75" stroke="#B6BCCB" stroke-width="2" stroke-linecap="round" stroke-linejoin="round"/>
<path d="M8.75 3.75V8.75" stroke="#B6BCCB" stroke-width="2" stroke-linecap="round" stroke-linejoin="round"/>
<path d="M3.75 13.75H23.75" stroke="#B6BCCB" stroke-width="2" stroke-linecap="round" stroke-linejoin="round"/>
<path d="M22.5 20.62V22.5L23.75 23.75" stroke="#B6BCCB" stroke-width="2" stroke-linecap="round" stroke-linejoin="round"/>
</svg>
