<svg width="16" height="18" viewBox="0 0 16 18" fill="none" xmlns="http://www.w3.org/2000/svg">
<path d="M8.0001 2.4C10.2211 2.4 11.3316 2.4 12.2076 2.76538M8.0001 2.4C6.84849 2.4 5.99545 2.4 5.31885 2.45094M8.0001 2.4C9.32748 2.4 10.2582 2.4 10.9793 2.478M12.2076 2.76538C13.3755 3.25255 14.3035 4.18699 14.7873 5.36313C14.9886 5.85252 15.0782 6.4146 15.1181 7.20001M12.2076 2.76538C11.9302 2.6497 11.6294 2.57065 11.2772 2.51662M0.882115 7.20001C0.850098 7.83026 0.850098 8.60431 0.850098 9.60001C0.850098 11.8365 0.850098 12.9548 1.21294 13.8369C1.69673 15.013 2.62467 15.9475 3.79264 16.4346C4.66862 16.8 5.77911 16.8 8.0001 16.8C10.2211 16.8 11.3316 16.8 12.2076 16.4346C13.3755 15.9475 14.3035 15.013 14.7873 13.8369C15.1501 12.9548 15.1501 11.8365 15.1501 9.60001C15.1501 8.60431 15.1501 7.83026 15.1181 7.20001M0.882115 7.20001C0.922014 6.4146 1.01163 5.85252 1.21294 5.36313C1.69673 4.18699 2.62467 3.25255 3.79264 2.76538C4.06999 2.6497 4.37085 2.57064 4.72301 2.51661M0.882115 7.20001H15.1181M4.72301 2.51661C4.9064 2.48848 5.10371 2.46713 5.31885 2.45094M4.72301 2.51661V1.34897C4.72301 1.2667 4.78971 1.20001 4.87197 1.20001V1.20001C4.95424 1.20001 5.02093 1.2667 5.02093 1.34897V2.478M4.72301 2.51661C4.81837 2.50199 4.9175 2.48919 5.02093 2.478M5.31885 2.45094C5.21558 2.45871 5.11642 2.46767 5.02093 2.478M11.2772 2.51662V1.34897C11.2772 1.2667 11.2105 1.20001 11.1282 1.20001V1.20001C11.046 1.20001 10.9793 1.2667 10.9793 1.34897V2.478M11.2772 2.51662C11.1818 2.50199 11.0827 2.48919 10.9793 2.478" stroke="#1B1B1D" stroke-linecap="round"/>
<path d="M10.6001 13.225C10.6001 12.6865 11.0366 12.25 11.5751 12.25C12.1136 12.25 12.5501 12.6865 12.5501 13.225C12.5501 13.7635 12.1136 14.2 11.5751 14.2C11.0366 14.2 10.6001 13.7635 10.6001 13.225Z" fill="#1B1B1D"/>
</svg>
