<svg width="296" height="288" fill="none" xmlns="http://www.w3.org/2000/svg"><path d="M152 0C76.6-2.1 11.2 52.8 1.3 124.8-9.5 203.4 49.5 277.2 123 285.5c162.8 18.4 179.2-67.5 171.3-156C288.4 62.8 228.8 2.3 152 0Z" fill="#F4F7FA"/><path d="M150.5 243.3c18.4 2.2 42.1 2.4 65.8-5.2 6-2 43.2-14 40.8-30.6-.8-5.9-5.8-7.4-7-15.2-1.6-9.2 4.6-13 9.7-23.8 3.1-6.4 12.1-25.2 1.7-37.3a36.8 36.8 0 0 0-29.6-10.6c-15.2 1.8-21.9 15.6-32.9 39.3-9.7 21-8.4 26.5-15.7 41.5a132.7 132.7 0 0 1-32.8 41.9Z" fill="url(#a)"/><g style="mix-blend-mode:soft-light" opacity=".5"><path d="M147.9 244c-6 2-12 3.2-18.3 4-19.2 2.4-38.9-.3-58.5-8l.3-.9c19.5 7.7 39 10.4 58 8 68-8.5 100.6-81 109-103a79.5 79.5 0 0 0 2.8-42.6l1-.2c2.8 16 1.8 30.4-3 43a202.4 202.4 0 0 1-40.6 66.7 120 120 0 0 1-50.7 33Z" fill="#fff" style="mix-blend-mode:soft-light"/><path d="m221.7 179.8-.2-.3c-.2-.3-17.7-28.3-7-55.7l.8.3c-9.8 25.3 4.7 51.2 6.7 54.5 41.8-21 44.7-50 44.6-58.4v-.4h1v.4c0 8.6-2.9 38.2-45.5 59.4l-.4.2Z" fill="#fff" style="mix-blend-mode:soft-light"/><path d="M243.1 211.2a79.1 79.1 0 0 1-44.6-.4l-.2-.1-.1-.2c-.1-.3-8-24-2.3-54.6l5.8-30.7 1 .2-5.9 30.7a117.6 117.6 0 0 0 2.2 53.8c23.3 6.1 39.5 2.6 49-1.5a41 41 0 0 0 15-10.4l.7.6c-.2.2-5 6.1-15.4 10.7l-5.2 1.9Z" fill="#fff" style="mix-blend-mode:soft-light"/></g><g style="mix-blend-mode:soft-light" opacity=".3"><path style="mix-blend-mode:soft-light" d="M174.7 235.3a100 100 0 0 1-23.7-48.5c-4.6-28.6 8.1-41.4 12-88.5 2.4-29.8 3.8-50.7-10-63.4-10.8-10-29.6-13.7-42-7-10.3 5.7-17.3 19.4-20.1 29.3-2.3 8.2-1.9 14.3-7.1 18.2-5.4 3.9-10.4.8-15.3 3.6-10 5.7-7 28.5-6.5 32.2 5.3 41 39 71.8 54 85.1 12.3 11 31.6 26 58.7 39Z" fill="url(#b)"/><g style="mix-blend-mode:soft-light"><path d="M185 244.1a185.3 185.3 0 0 1-41.3-27.8c-16.3-15-25.7-31.3-28-48.3-1.7-13.3 1-27.1 4.4-44.7 2.8-14.6 6.1-24.6 9-33.5 3.8-11.4 6.8-20.5 6.9-34 0-13.8-3-27.8-9-41.6l1.3-.6c6 14 9.1 28.3 9 42.2 0 13.7-3 22.9-6.9 34.4-2.9 8.9-6.2 18.9-9 33.4-3.5 18-6 31.2-4.3 44.2 2.2 16.7 11.5 32.7 27.5 47.5a184 184 0 0 0 41 27.6l-.6 1.2Z" fill="#fff" style="mix-blend-mode:soft-light"/><path d="M122.5 113.6v-.8c-5-27.3-17.4-45.4-27-55.8a80 80 0 0 0-19.4-16l.6-1.3c.1 0 9.5 5 19.9 16.4a112.8 112.8 0 0 1 27 55.7A71.6 71.6 0 0 0 169 53.2l1.4.2a73 73 0 0 1-47 60l-.8.2Z" fill="#fff" style="mix-blend-mode:soft-light"/><path d="m116.4 153-.5-.3c-12.6-5.2-25.6-21.7-38.9-49C67.2 83.4 61 64.4 61 64.2l1.3-.4c.3.7 24.7 74.7 53.8 87.5 2-2.3 12.3-13.9 24.7-23.7 5.9-4.6 15-8 27.3-10.2a132 132 0 0 1 16.6-1.9v1.4c-.3 0-29.5 1-43 11.8a202.4 202.4 0 0 0-25 23.9l-.2.3Z" fill="#fff" style="mix-blend-mode:soft-light"/><path d="m140 212.3-1.3-.3c-.2 0-14.5-3.4-32.7-12-16.9-8-40.6-22.4-58-45.1L14.3 111l1-.9L49 154a159 159 0 0 0 57.5 44.7c15 7.1 27.2 10.6 31.2 11.7-5.7-14.1-2.7-28.5 8.6-41.6a79.7 79.7 0 0 1 19.6-16l.7 1.2c-.1 0-10.7 5.8-19.3 15.8-11.4 13.2-14 27.1-7.8 41.3l.5 1.2Z" fill="#fff" style="mix-blend-mode:soft-light"/></g></g><g style="mix-blend-mode:soft-light" opacity=".3"><path d="M144 178.4c-18.6 4.7-43 8-68.2 3.1-6.4-1.2-46.2-8.8-46-26.1.2-6.2 5.2-8.3 5.5-16.5.3-9.7-6.5-12.9-13.2-23.2-4-6.2-15.7-24.3-6.5-38.2a38.1 38.1 0 0 1 29-14.7c15.9 0 24.6 13.3 38.9 36.2 12.7 20.3 12 26.1 21.5 40.6 7 10.7 18.6 25 39 38.8Z" fill="#C1CAD4" style="mix-blend-mode:soft-light"/><g style="mix-blend-mode:soft-light"><path d="M166.1 181c-26.7 0-52.2-9.9-75.8-29.3a209.8 209.8 0 0 1-50.4-63.3 83.7 83.7 0 0 1-8.6-44H33a82 82 0 0 0 8.4 43.2 208.1 208.1 0 0 0 50 62.8 116.6 116.6 0 0 0 74.7 28.9h.1c19.8 0 39.4-5.3 58.5-15.7l.8 1.5a123.4 123.4 0 0 1-59.3 15.8Z" fill="#fff" style="mix-blend-mode:soft-light"/><path d="m63 122.9-.8-.3C15.5 106.2 8.6 76 7.6 67.1v-.3l1.6-.4.1.5c1 8.6 7.6 37.7 52.7 53.8 2-4.6 12.8-32.2-.2-56.2l1.5-.8c14.6 27 .1 58.2 0 58.5l-.4.7Z" fill="#fff" style="mix-blend-mode:soft-light"/><path d="M56.5 158.8c-7 0-12.9-1-17.4-2.4a43 43 0 0 1-17.4-9L23 146s5.7 5.5 16.8 8.7c10.1 3 27 4.5 50-4.7.6-3.5 4.2-27.1-4.8-55.2l-10-30.8 1.7-.5 10 30.8c9.8 30.7 4.7 56.3 4.6 56.5v.5l-.5.1a91.2 91.2 0 0 1-34.2 7.3Z" fill="#fff" style="mix-blend-mode:soft-light"/></g></g><path d="M292.2 246.7 6.9 244.2v7.4c0 2 1.2 3.7 2.9 4L90.5 270c1 .1 2 .2 2.9.1L289 253.7c1.8-.2 3.1-1.9 3.1-4v-3Z" fill="url(#c)"/><path d="M200.3 234.8 10 248.2a5.7 5.7 0 0 1-6.2-5.7V106.2c0-3.4 2.8-6.1 6.2-6.1h190.3c2.9 0 5.1 2.5 5.1 5.6v123.1c0 3.1-2.2 5.8-5 6Z" fill="url(#d)"/><path d="M203.4 234.8 13 248.2a5.7 5.7 0 0 1-6.1-5.7V106.2c0-3.4 2.7-6.1 6.1-6.1h190.4c2.8 0 5 2.5 5 5.6v123.1c0 3.1-2.2 5.8-5 6Z" fill="url(#e)"/><path d="M197.5 226 20.2 237.9c-2.8.2-5-2-5-4.7V113.8a5 5 0 0 1 5-5l177.3-.8c2.3 0 4.1 2 4.1 4.6v108.6c0 2.6-1.8 4.7-4.1 4.9Z" fill="#D8DEE8"/><path d="M198.6 234.2 7 248.3l83.6 15c1 .2 2 .3 2.9.2l198.8-16.8-90.5-12.5h-3Z" fill="url(#f)"/><path style="mix-blend-mode:multiply" opacity=".3" d="m34.8 248.7 159.7-12 49.4 6.7-158.3 12.9-50.8-7.6Z" fill="url(#g)"/><path d="M157.5 197.4c-14.7-8-26.2 2.1-37.3-7.8-6.8-6-3.5-10.4-11.8-19.4-9.2-10-15.2-6.6-24.4-15.5-11.7-11.3-5.8-20-16-28.2-12.1-9.8-25.3-.7-37-10.1-5-4.1-7.7-10-9.1-16.3H10.5c-2 0-3.6 1.6-3.6 3.6V245c0 2 1.6 3.5 3.6 3.3l194-13.8c1 0 1.8-.6 2.3-1.4-14.2-.5-23-5.3-28.5-10.2-11-9.7-9-19.2-20.8-25.5Z" fill="#fff" style="mix-blend-mode:soft-light" opacity=".5"/><path opacity=".5" d="M117.8 210a45.8 45.8 0 0 1-39.4-21.4c-4-6.7-6.2-14.3-6.2-22.1a43.8 43.8 0 0 1 45.6-43.1 44.3 44.3 0 0 1 43.6 43.5 43.8 43.8 0 0 1-43.6 43Z" fill="#fff"/><path d="M157.7 166.8a40 40 0 0 1-39.9 39.4A41.6 41.6 0 0 1 82 186.7a38.6 38.6 0 0 1-5.7-20.2 39.9 39.9 0 0 1 41.5-39.3 40.3 40.3 0 0 1 39.9 39.6Z" fill="#fff"/><path d="M143.3 160.5V172a4 4 0 0 1-1.2 2.9l-10 9.6c-.7.8-1.8 1.3-3 1.3h-14.8l-16.4 15.8a40.6 40.6 0 0 1-16-14.8l16.8-16.1-.1-14.7a4 4 0 0 1 1.3-3l10.2-9.7c.8-.7 1.9-1.1 3-1.1l11.8.2c1 0 1.9.6 2.3 1.5.3.9.1 1.9-.6 2.5l-11.2 10.8c-1 1-1 2.6 0 3.6l4 4 1.1 1 4 4c1 .9 2.6.9 3.6 0l11.1-10.9a2.4 2.4 0 0 1 4 1.7Z" fill="url(#h)"/><path d="M100.8 214.2c3-1.7 2.1-11.5-2-18.3-6-9.7-19-14.4-21.7-11.5-2.8 3 5.1 14.1 6.4 16 4.6 6.5 13.6 15.8 17.3 13.8Z" fill="url(#i)"/><path d="M128.7 276.2c-.6.6-.7 1.8-.2 2.4.5.6 1.2.1 3.3.2 2.3 0 2.9.6 4.4.2.6-.2 1.7-.6 1.7-1s-.6-.5-2.4-1.2l-3.2-1c-1.4-.2-2.8-.4-3.6.4Z" fill="url(#j)"/><path d="m130.1 272.5 1.2 3.8c-.1.2-1.3.9-2.3.4l-1.6-3.6 2.7-.6Z" fill="url(#k)"/><path d="M114.4 279.5c-.6.6-.7 1.8-.2 2.4.5.6 1.2.1 3.3.2 2.3 0 2.9.6 4.4.2.6-.2 1.7-.6 1.7-1s-.6-.5-2.4-1.1c-2.7-1-2.7-1-3.2-1-1.4-.3-2.8-.5-3.6.3Z" fill="url(#l)"/><path d="m115.9 275.8 1 3.8c0 .2-1.2.9-2.1.4l-1.7-3.6 2.8-.6Z" fill="url(#m)"/><path d="M52.3 185a49 49 0 0 1 15.8-2.6c7.6 0 13.7 0 18 3.6 10.1 8.7-1.3 29.6 4.6 45.1.6 1.7 2.5 7 .8 12.9-.3 1-.9 2-2 3.5-6.1 9.2-23.5 10-31.5 2-4.2-4.2-8-3.4-8-8.2-.5-19 2.5-38 2.3-56.2Z" fill="url(#n)"/><path style="mix-blend-mode:multiply" opacity=".4" d="M56.7 208c-1.4-4 0-8.6-3.2-10.6-1.2-.7-2.6-1-4.2-1 .2 14 .4 28 .8 42.5 0 4.8.7 5 5.3 9.2 5.4 5 14.7 6.5 22.7 5-10.4-6.5-17.9-13.2-16.8-18.9 1.2-6.6 13.4-8.6 12.9-13.3-.5-5-14.3-4.3-17.5-13Z" fill="url(#o)"/><path d="M55.6 185.5c-3.5-2.4-12 3.6-16.6 8.9-2.2 2.4-9.8 11-8 22.4.4 1.9 1.8 10.6 9.3 14.9 6.6 3.8 15.7 2.8 22.9-2.6l3-2.6 2.9-3.2a23.4 23.4 0 0 0-7.8-4.3c-5.6-1.8-9.2.9-10.5-.9-1.7-2.1 3.3-6.1 4.6-15.3.4-2.5 4.1-14.7.2-17.3Z" fill="url(#p)"/><path d="M61.4 245.2c-2.3 7.6 2 4.5 10.7.2 9.2-4.6 29.4-11 38-2.5 6.5 6.3 2 16.4 12 27.5 1.7 2 3.4 3.3 4.4 4.1l5.4-2.2c.7-4.2 3-20.1-7-34.4-2.5-3.5-7.1-10-15-12.9-21.3-7.6-46.4 13.2-48.5 20.2Z" fill="url(#q)"/><path d="M52.9 238.2c-1.5 4.3-.2 9.3 2.3 12.4 5.4 6.9 17.7 6.2 25.3 3.6 9.3-3 11.4-8.7 15-7.3 5.7 2.1 1.7 16.1 12 27.5 1.7 2 3.3 3.3 4.4 4.1l5.4-2.2c1.4-9.7.4-17.4-.7-22.3-1.2-5.7-2.2-10.7-6.2-15.6a30 30 0 0 0-15.1-9.4c-15.7-5-38.5-2.1-42.4 9.2Z" fill="url(#r)"/><path d="m103.7 226.4-42.3-.6 11.2 5.4 31.2-2-.1-2.8Z" fill="url(#s)"/><path d="M59.9 227c0 .7.5 1.4 1.2 1.7l13.5 5.3.1-3.7-13.3-4.5c-.8-.2-1.5.3-1.5 1.1Z" fill="url(#t)"/><path d="M66 225.2c-.3 0 1.2-3 2.4-2.7 1.2.3 7 3.7 7.6 5.1l.5 1.4s-2.6.2-4.1-.3c-1.6-.6-4.4-3-6.5-3.5Z" fill="url(#u)"/><path d="m75.8 204.5-3 27.2c0 1 1.3 2.3 2.2 2.3l43.7-2.7c.8 0 1.4-.6 1.5-1.3l5.5-26.2c.1-1-1.6-2-2.5-2l-45.9 1.3c-.8 0-1.4.6-1.5 1.4Z" fill="url(#v)"/><path d="m76.8 205.3-3 27.2c0 1 .7 1.7 1.6 1.7l44.3-2.1c.8 0 1.4-.6 1.5-1.3l4.5-26.4c.2-1-.6-1.8-1.5-1.8L78.3 204c-.8 0-1.4.6-1.5 1.4Z" fill="url(#w)"/><path style="mix-blend-mode:multiply" opacity=".3" d="M102.8 225.7c-3.8-1.6-2.5-4.8-7-8.7-6-5.1-12.2-2.9-14.4-6.9-.6-1.2-1-3.1.2-6.3l-3.3.1c-.8 0-1.4.6-1.5 1.4l-3 27.2c0 1 .7 1.7 1.6 1.7l44.3-2.1c.8 0 1.4-.6 1.5-1.3l.6-3.6c-1.3-.8-3-1.5-4.8-1.8-6.5-1.4-9.7 2.2-14.2.3Z" fill="url(#x)"/><path d="M68.8 172c0 2.8-.3 5-.6 6.6-.3 1.8-.6 2.2-.9 2.6-.4.5-1.2 1-5.2 2-2.2.6-2.5.5-2.5.8-.3 1 5.7 4.7 12 3.8 3.7-.6 7.1-2.7 7-3.9-.3-1.1-4-.5-5.2-2.6-.8-1.4.1-3.4 1.1-5.1-1-2-4.7-2.3-5.7-4.2Z" fill="url(#y)"/><path d="M76.8 175.6a4 4 0 0 0 1-4.4c-.5-1.4-1.9-1.9-2.6-2.2-2.3-.8-5.5-.6-7.1 1.3-1 1-.3 4-.2 4.6 0 .6.4.9.7 1.4l2 3.7a10 10 0 0 1 2.6-3c1.6-1.2 2.5-.5 3.6-1.4Z" fill="url(#z)"/><path d="M69 178.2s.9 3 4 3.6c2.8.5 4.8-5.6 3.4-7.3-.5-.6-1.6-1.1-2.7-1l-1.8.1c-1 0-1.1-.2-1.4 0-.4.2-.8.8-.8 2.7-.4-.6-1-1-1.4-1l-.5.4c-.6.6-.2 1.6 1.2 2.5Z" fill="url(#A)"/><path d="M70.4 173.2c.1.1-.4.5-.6 1.2-.4 1.4.5 3.3 1.9 3.8.8.3 1.2-.1 2.6.1.8.1 1.5.4 2 .7 0 1.6-.8 3-2 3.4-1.3.4-2.5-.4-3-.7-.4-.2-1.5-1-1.8-2.3-.4-1.3.4-1.8-.1-2.8-.3-.5-.8-.8-1-1.7a4 4 0 0 1-.2-.6c.9-.6 2-1.3 2.2-1.1Z" fill="url(#B)"/><path d="M75 179.2s-.6.2-1.6-.1h-.1s.5.7 1.1.7c.5 0 1-.4.9-.5h-.2Z" fill="url(#C)"/><path d="M258.7 74.6a42 42 0 0 1-43.4 42.8 49.1 49.1 0 0 1-46.6-49A41.8 41.8 0 0 1 215.3 26a49.4 49.4 0 0 1 43.4 48.7Z" fill="url(#D)"/><path d="M265.2 72.5a42 42 0 0 1-43.3 42.8 49.1 49.1 0 0 1-46.6-49 41.8 41.8 0 0 1 46.6-42.5 49.4 49.4 0 0 1 43.3 48.7Z" fill="url(#E)"/><path d="M263.3 72.3a40 40 0 0 1-41.4 40.9 46.9 46.9 0 0 1-44.4-46.7c0-25 20.2-43 44.4-40.6a47.2 47.2 0 0 1 41.4 46.4Z" fill="url(#F)"/><path opacity=".5" d="M261.3 72.2A38 38 0 0 1 222 111a44.6 44.6 0 0 1-42.2-44.3A38 38 0 0 1 221.9 28a44.8 44.8 0 0 1 39.4 44.2Z" fill="#fff"/><path d="M227 110.9c-1.7.1-3.4.2-5.1.1a44.6 44.6 0 0 1-42.2-44.3A38 38 0 0 1 213 28c6.4 5 12 11.4 13 19 1.7 12.2-10.6 18-12 31.3A43.4 43.4 0 0 0 227 111Z" fill="url(#G)"/><path d="m232 80.4-2.2-.5c0-1 0-2-.2-3l2.1-.8c.6-.3 1-.9.7-1.5l-1.3-3.7c-.2-.6-.8-1-1.4-.8l-2.2.8c-.5-.9-1-1.8-1.7-2.6l1.5-1.8c.4-.5.3-1.2-.1-1.6l-3-2.6c-.5-.5-1.2-.4-1.6 0l-1.5 1.9a18 18 0 0 0-2.8-1.5l.4-2.3c0-.6-.3-1.2-1-1.3l-3.8-.8c-.7-.2-1.3.2-1.4.9l-.4 2.3c-1 0-2 0-3.1.2l-.8-2.3c-.2-.6-.9-.9-1.5-.7L203 60c-.6.2-1 .9-.7 1.5l.8 2.2c-1 .5-1.8 1.1-2.6 1.8l-1.8-1.6c-.5-.4-1.2-.3-1.7.1l-2.5 3c-.4.5-.4 1.3.1 1.7l1.8 1.5c-.6 1-1 2-1.4 3l-2.3-.5c-.6-.2-1.2.3-1.3.9l-.7 4c-.1.5.3 1.2 1 1.3l2.2.4.3 3.2-2.2.7c-.6.3-.9 1-.7 1.5l1.4 3.8c.2.6.9.9 1.5.7l2.1-.8c.5 1 1.1 1.8 1.8 2.7l-1.4 1.7c-.4.5-.4 1.2.1 1.6l3 2.6c.5.4 1.3.3 1.7-.2l1.4-1.7c1 .6 1.9 1 2.9 1.4l-.4 2.2c-.1.6.3 1.2.9 1.3l3.9.7c.6.2 1.2-.2 1.3-.9l.4-2.2c1 0 2 0 3.1-.2l.8 2.1c.2.6.8 1 1.4.7l3.7-1.3c.6-.2.9-.9.7-1.4l-.8-2.2c1-.5 1.8-1 2.6-1.8L225 95c.5.4 1.2.4 1.6 0l2.5-3c.4-.5.4-1.2-.1-1.7l-1.7-1.5c.5-.9 1-1.8 1.3-2.8l2.2.5c.6 0 1.2-.3 1.3-1l.8-3.8c0-.6-.3-1.2-1-1.3Zm-11.3 6.8a11.4 11.4 0 0 1-16.2 1.2 11.7 11.7 0 0 1-1.4-16.4 11.4 11.4 0 0 1 16.3-1 11.7 11.7 0 0 1 1.3 16.2ZM246.5 50.1l-1.3-.2c0-.6 0-1.2-.2-1.7l1.2-.4c.4-.1.5-.5.4-.8l-.8-2a.7.7 0 0 0-.8-.4l-1.2.4-1-1.4.8-1c.3-.3.2-.7 0-.9l-1.7-1.4a.6.6 0 0 0-1 0l-.7 1-1.6-.8.2-1.2c0-.4-.2-.7-.5-.8l-2.2-.4c-.3 0-.6.1-.7.5l-.2 1.2-1.7.1-.5-1.2a.7.7 0 0 0-.8-.4l-2 .7c-.4.1-.5.5-.4.8l.4 1.2-1.4 1-1-.9a.6.6 0 0 0-.9 0l-1.3 1.7c-.3.2-.2.6 0 .9l1 .8-.7 1.5-1.2-.2c-.4 0-.7.1-.8.5l-.3 2.1c0 .3.2.7.5.7l1.3.3c0 .6 0 1.1.2 1.7l-1.2.4c-.3.1-.5.5-.4.8l.8 2c.2.3.5.5.9.4l1.1-.4 1 1.4-.7 1c-.2.2-.2.6 0 .8L229 59c.3.3.7.2.9 0l.8-1c.5.4 1 .6 1.5.8L232 60c-.1.3.1.7.5.7l2.1.4c.4.1.7-.1.7-.4l.2-1.2c.6 0 1.2 0 1.8-.2l.4 1.2c.1.3.5.5.8.4l2-.7c.4-.1.5-.5.4-.8l-.5-1.1 1.4-1 1 .8c.3.2.7.2.9 0l1.3-1.6c.3-.3.2-.7 0-1l-1-.7.7-1.5 1.2.2c.4 0 .7-.1.7-.5l.4-2c0-.4-.2-.7-.5-.8Zm-6.2 3.7a6.4 6.4 0 0 1-9 .5 6.3 6.3 0 0 1-1-8.8 6.4 6.4 0 0 1 9-.6 6.3 6.3 0 0 1 1 8.9Z" fill="#fff"/><defs><linearGradient id="a" x1="244.2" y1="118.8" x2="201.2" y2="234" gradientUnits="userSpaceOnUse"><stop stop-color="#FFC444"/><stop offset="1" stop-color="#F36F56"/></linearGradient><linearGradient id="b" x1="172.3" y1="5.9" x2="74.4" y2="289" gradientUnits="userSpaceOnUse"><stop stop-color="#FF9085"/><stop offset="1" stop-color="#FB6FBB"/></linearGradient><linearGradient id="c" x1="127.4" y1="257.7" x2="107.3" y2="266.1" gradientUnits="userSpaceOnUse"><stop stop-color="#40447E"/><stop offset="1" stop-color="#3C3B6B"/></linearGradient><linearGradient id="d" x1="100.6" y1="169.2" x2="78.9" y2="178.3" gradientUnits="userSpaceOnUse"><stop stop-color="#40447E"/><stop offset="1" stop-color="#3C3B6B"/></linearGradient><linearGradient id="e" x1="6.9" y1="174.2" x2="208.5" y2="174.2" gradientUnits="userSpaceOnUse"><stop stop-color="#40447E"/><stop offset="1" stop-color="#3C3B6B"/></linearGradient><linearGradient id="f" x1="6.9" y1="248.8" x2="292.2" y2="248.8" gradientUnits="userSpaceOnUse"><stop stop-color="#40447E"/><stop offset="1" stop-color="#3C3B6B"/></linearGradient><linearGradient id="g" x1="34.8" y1="246.5" x2="243.9" y2="246.5" gradientUnits="userSpaceOnUse"><stop stop-color="#40447E"/><stop offset="1" stop-color="#3C3B6B"/></linearGradient><linearGradient id="h" x1="128.8" y1="145.6" x2="76.8" y2="254.8" gradientUnits="userSpaceOnUse"><stop stop-color="#444B8C"/><stop offset="1" stop-color="#26264F"/></linearGradient><linearGradient id="i" x1="90.3" y1="184.7" x2="86.5" y2="250.4" gradientUnits="userSpaceOnUse"><stop stop-color="#AA80F9"/><stop offset="1" stop-color="#6165D7"/></linearGradient><linearGradient id="j" x1="137.4" y1="276.1" x2="128.4" y2="278.6" gradientUnits="userSpaceOnUse"><stop stop-color="#444B8C"/><stop offset="1" stop-color="#26264F"/></linearGradient><linearGradient id="k" x1="131.8" y1="277.5" x2="126.3" y2="270.3" gradientUnits="userSpaceOnUse"><stop stop-color="#FFC444"/><stop offset="1" stop-color="#F36F56"/></linearGradient><linearGradient id="l" x1="123.1" y1="279.4" x2="114.1" y2="281.9" gradientUnits="userSpaceOnUse"><stop stop-color="#444B8C"/><stop offset="1" stop-color="#26264F"/></linearGradient><linearGradient id="m" x1="117.5" y1="280.8" x2="112" y2="273.6" gradientUnits="userSpaceOnUse"><stop stop-color="#FFC444"/><stop offset="1" stop-color="#F36F56"/></linearGradient><linearGradient id="n" x1="73.9" y1="183.8" x2="70.1" y2="249.4" gradientUnits="userSpaceOnUse"><stop stop-color="#AA80F9"/><stop offset="1" stop-color="#6165D7"/></linearGradient><linearGradient id="o" x1="54.9" y1="235.8" x2="77.5" y2="207.2" gradientUnits="userSpaceOnUse"><stop stop-color="#AA80F9"/><stop offset="1" stop-color="#6165D7"/></linearGradient><linearGradient id="p" x1="51.9" y1="182.5" x2="48.2" y2="248.2" gradientUnits="userSpaceOnUse"><stop stop-color="#AA80F9"/><stop offset="1" stop-color="#6165D7"/></linearGradient><linearGradient id="q" x1="87.3" y1="270.2" x2="118.7" y2="230.4" gradientUnits="userSpaceOnUse"><stop stop-color="#FF9085"/><stop offset="1" stop-color="#FB6FBB"/></linearGradient><linearGradient id="r" x1="106" y1="233.4" x2="69.5" y2="273.8" gradientUnits="userSpaceOnUse"><stop stop-color="#FF9085"/><stop offset="1" stop-color="#FB6FBB"/></linearGradient><linearGradient id="s" x1="88.8" y1="243.9" x2="83.7" y2="229.4" gradientUnits="userSpaceOnUse"><stop stop-color="#311944"/><stop offset="1" stop-color="#893976"/></linearGradient><linearGradient id="t" x1="66.5" y1="222.9" x2="68.3" y2="235.9" gradientUnits="userSpaceOnUse"><stop stop-color="#311944"/><stop offset="1" stop-color="#893976"/></linearGradient><linearGradient id="u" x1="65.9" y1="225.7" x2="76.5" y2="225.7" gradientUnits="userSpaceOnUse"><stop stop-color="#FFC444"/><stop offset="1" stop-color="#F36F56"/></linearGradient><linearGradient id="v" x1="103.6" y1="224" x2="93.6" y2="209.9" gradientUnits="userSpaceOnUse"><stop stop-color="#444B8C"/><stop offset="1" stop-color="#26264F"/></linearGradient><linearGradient id="w" x1="84.5" y1="247.5" x2="106.4" y2="203.1" gradientUnits="userSpaceOnUse"><stop stop-color="#311944"/><stop offset="1" stop-color="#893976"/></linearGradient><linearGradient id="x" x1="73.8" y1="219" x2="121.8" y2="219" gradientUnits="userSpaceOnUse"><stop stop-color="#311944"/><stop offset="1" stop-color="#893976"/></linearGradient><linearGradient id="y" x1="64.3" y1="194" x2="76.5" y2="168.6" gradientUnits="userSpaceOnUse"><stop stop-color="#FFC444"/><stop offset="1" stop-color="#F36F56"/></linearGradient><linearGradient id="z" x1="63.2" y1="185.8" x2="74.7" y2="169.9" gradientUnits="userSpaceOnUse"><stop stop-color="#311944"/><stop offset="1" stop-color="#6B3976"/></linearGradient><linearGradient id="A" x1="72.6" y1="174.6" x2="67.2" y2="200.6" gradientUnits="userSpaceOnUse"><stop stop-color="#FFC444"/><stop offset="1" stop-color="#F36F56"/></linearGradient><linearGradient id="B" x1="65.1" y1="187.1" x2="76.6" y2="171.3" gradientUnits="userSpaceOnUse"><stop stop-color="#311944"/><stop offset="1" stop-color="#6B3976"/></linearGradient><linearGradient id="C" x1="74.7" y1="178.2" x2="73.5" y2="181.4" gradientUnits="userSpaceOnUse"><stop stop-color="#FFC444"/><stop offset="1" stop-color="#F36F56"/></linearGradient><linearGradient id="D" x1="168.7" y1="71.5" x2="258.7" y2="71.5" gradientUnits="userSpaceOnUse"><stop stop-color="#444B8C"/><stop offset="1" stop-color="#26264F"/></linearGradient><linearGradient id="E" x1="240.7" y1="24.2" x2="193.8" y2="127.6" gradientUnits="userSpaceOnUse"><stop stop-color="#AA80F9"/><stop offset="1" stop-color="#6165D7"/></linearGradient><linearGradient id="F" x1="191.2" y1="115.8" x2="215.7" y2="77" gradientUnits="userSpaceOnUse"><stop stop-color="#AA80F9"/><stop offset="1" stop-color="#6165D7"/></linearGradient><linearGradient id="G" x1="202" y1="58.7" x2="238.5" y2="136" gradientUnits="userSpaceOnUse"><stop stop-color="#AA80F9"/><stop offset="1" stop-color="#6165D7"/></linearGradient></defs></svg>