<svg width="30" height="30" viewBox="0 0 30 30" fill="none" xmlns="http://www.w3.org/2000/svg">
<path fill-rule="evenodd" clip-rule="evenodd" d="M0 15C0 6.71573 6.71573 0 15 0C23.2843 0 30 6.71573 30 15C30 23.2843 23.2843 30 15 30C6.71573 30 0 23.2843 0 15ZM15 7.5C19.125 7.5 22.5 10.875 22.5 15C22.5 18.75 19.7812 21.9375 16.0312 22.5V17.1562H17.8125L18.1875 15H16.125V13.5938C16.125 13.0312 16.4062 12.4688 17.3438 12.4688H18.2812V10.5938C18.2812 10.5938 17.4375 10.4062 16.5938 10.4062C14.9063 10.4062 13.7812 11.4375 13.7812 13.3125V15H11.9062V17.1562H13.7812V22.4062C10.2188 21.8438 7.5 18.75 7.5 15C7.5 10.875 10.875 7.5 15 7.5Z" fill="white"/>
</svg>
