<?xml version="1.0" encoding="utf-8"?>
<!-- Generator: Adobe Illustrator 26.1.0, SVG Export Plug-In . SVG Version: 6.00 Build 0)  -->
<svg version="1.1" id="Layer_1" xmlns="http://www.w3.org/2000/svg" xmlns:xlink="http://www.w3.org/1999/xlink" x="0px" y="0px"
	 viewBox="0 0 390 158" style="enable-background:new 0 0 390 158;" xml:space="preserve">
<style type="text/css">
	.st0{clip-path:url(#SVGID_00000132792915998647982930000018135869518248530072_);}
	.st1{fill:url(#SVGID_00000044868724341212545560000008688110416342856630_);}
	.st2{opacity:0.1;}
	.st3{fill:none;stroke:#FFFFFF;stroke-width:4.214631e-02;stroke-linecap:round;stroke-linejoin:round;}
	.st4{fill:none;stroke:#FFFFFF;stroke-width:4.538857e-02;stroke-linecap:round;stroke-linejoin:round;}
	.st5{fill:none;stroke:#FFFFFF;stroke-width:4.863083e-02;stroke-linecap:round;stroke-linejoin:round;}
	.st6{fill:none;stroke:#FFFFFF;stroke-width:5.187310e-02;stroke-linecap:round;stroke-linejoin:round;}
	.st7{fill:none;stroke:#FFFFFF;stroke-width:5.511458e-02;stroke-linecap:round;stroke-linejoin:round;}
	.st8{fill:none;stroke:#FFFFFF;stroke-width:5.835684e-02;stroke-linecap:round;stroke-linejoin:round;}
	.st9{fill:none;stroke:#FFFFFF;stroke-width:6.159911e-02;stroke-linecap:round;stroke-linejoin:round;}
	.st10{fill:none;stroke:#FFFFFF;stroke-width:6.484137e-02;stroke-linecap:round;stroke-linejoin:round;}
	.st11{fill:none;stroke:#FFFFFF;stroke-width:6.808285e-02;stroke-linecap:round;stroke-linejoin:round;}
	.st12{fill:none;stroke:#FFFFFF;stroke-width:7.132512e-02;stroke-linecap:round;stroke-linejoin:round;}
	.st13{fill:none;stroke:#FFFFFF;stroke-width:7.456739e-02;stroke-linecap:round;stroke-linejoin:round;}
	.st14{fill:none;stroke:#FFFFFF;stroke-width:7.780887e-02;stroke-linecap:round;stroke-linejoin:round;}
	.st15{fill:none;stroke:#FFFFFF;stroke-width:8.105113e-02;stroke-linecap:round;stroke-linejoin:round;}
	.st16{fill:none;stroke:#FFFFFF;stroke-width:8.429340e-02;stroke-linecap:round;stroke-linejoin:round;}
	.st17{fill:none;stroke:#FFFFFF;stroke-width:8.753566e-02;stroke-linecap:round;stroke-linejoin:round;}
	.st18{fill:none;stroke:#FFFFFF;stroke-width:9.726167e-02;stroke-linecap:round;stroke-linejoin:round;}
	.st19{fill:none;stroke:#FFFFFF;stroke-width:0.1005;stroke-linecap:round;stroke-linejoin:round;}
	.st20{fill:none;stroke:#FFFFFF;stroke-width:0.12;stroke-linecap:round;stroke-linejoin:round;}
	.st21{fill:none;stroke:#FFFFFF;stroke-width:0.1167;stroke-linecap:round;stroke-linejoin:round;}
	.st22{fill:none;stroke:#FFFFFF;stroke-width:0.1135;stroke-linecap:round;stroke-linejoin:round;}
	.st23{fill:none;stroke:#FFFFFF;stroke-width:0.1459;stroke-linecap:round;stroke-linejoin:round;}
	.st24{fill:none;stroke:#FFFFFF;stroke-width:0.1427;stroke-linecap:round;stroke-linejoin:round;}
	.st25{fill:none;stroke:#FFFFFF;stroke-width:0.1394;stroke-linecap:round;stroke-linejoin:round;}
	.st26{fill:none;stroke:#FFFFFF;stroke-width:0.1362;stroke-linecap:round;stroke-linejoin:round;}
	.st27{fill:none;stroke:#FFFFFF;stroke-width:0.1329;stroke-linecap:round;stroke-linejoin:round;}
	.st28{fill:none;stroke:#FFFFFF;stroke-width:0.1297;stroke-linecap:round;stroke-linejoin:round;}
	.st29{fill:none;stroke:#FFFFFF;stroke-width:0.1718;stroke-linecap:round;stroke-linejoin:round;}
	.st30{fill:none;stroke:#FFFFFF;stroke-width:0.1686;stroke-linecap:round;stroke-linejoin:round;}
	.st31{fill:none;stroke:#FFFFFF;stroke-width:0.1621;stroke-linecap:round;stroke-linejoin:round;}
	.st32{fill:none;stroke:#FFFFFF;stroke-width:0.1589;stroke-linecap:round;stroke-linejoin:round;}
	.st33{fill:none;stroke:#FFFFFF;stroke-width:0.1556;stroke-linecap:round;stroke-linejoin:round;}
	.st34{fill:none;stroke:#FFFFFF;stroke-width:0.1524;stroke-linecap:round;stroke-linejoin:round;}
	.st35{fill:none;stroke:#FFFFFF;stroke-width:0.1491;stroke-linecap:round;stroke-linejoin:round;}
	.st36{fill:none;stroke:#FFFFFF;stroke-width:0.1945;stroke-linecap:round;stroke-linejoin:round;}
	.st37{fill:none;stroke:#FFFFFF;stroke-width:0.1913;stroke-linecap:round;stroke-linejoin:round;}
	.st38{fill:none;stroke:#FFFFFF;stroke-width:0.1848;stroke-linecap:round;stroke-linejoin:round;}
	.st39{fill:none;stroke:#FFFFFF;stroke-width:0.1816;stroke-linecap:round;stroke-linejoin:round;}
	.st40{fill:none;stroke:#FFFFFF;stroke-width:0.1751;stroke-linecap:round;stroke-linejoin:round;}
	.st41{fill:none;stroke:#FFFFFF;stroke-width:0.2237;stroke-linecap:round;stroke-linejoin:round;}
	.st42{fill:none;stroke:#FFFFFF;stroke-width:0.2172;stroke-linecap:round;stroke-linejoin:round;}
	.st43{fill:none;stroke:#FFFFFF;stroke-width:0.2107;stroke-linecap:round;stroke-linejoin:round;}
	.st44{fill:none;stroke:#FFFFFF;stroke-width:0.201;stroke-linecap:round;stroke-linejoin:round;}
	.st45{fill:none;stroke:#FFFFFF;stroke-width:0.2658;stroke-linecap:round;stroke-linejoin:round;}
	.st46{fill:none;stroke:#FFFFFF;stroke-width:0.2529;stroke-linecap:round;stroke-linejoin:round;}
	.st47{fill:none;stroke:#FFFFFF;stroke-width:0.2432;stroke-linecap:round;stroke-linejoin:round;}
	.st48{fill:none;stroke:#FFFFFF;stroke-width:0.2334;stroke-linecap:round;stroke-linejoin:round;}
	.st49{fill:none;stroke:#FFFFFF;stroke-width:0.3145;stroke-linecap:round;stroke-linejoin:round;}
	.st50{fill:none;stroke:#FFFFFF;stroke-width:0.295;stroke-linecap:round;stroke-linejoin:round;}
	.st51{fill:none;stroke:#FFFFFF;stroke-width:0.2821;stroke-linecap:round;stroke-linejoin:round;}
	.st52{fill:none;stroke:#FFFFFF;stroke-width:0.3696;stroke-linecap:round;stroke-linejoin:round;}
	.st53{fill:none;stroke:#FFFFFF;stroke-width:0.3469;stroke-linecap:round;stroke-linejoin:round;}
	.st54{fill:none;stroke:#FFFFFF;stroke-width:0.3242;stroke-linecap:round;stroke-linejoin:round;}
	.st55{fill:none;stroke:#FFFFFF;stroke-width:0.3048;stroke-linecap:round;stroke-linejoin:round;}
	.st56{fill:none;stroke:#FFFFFF;stroke-width:0.4377;stroke-linecap:round;stroke-linejoin:round;}
	.st57{fill:none;stroke:#FFFFFF;stroke-width:0.4053;stroke-linecap:round;stroke-linejoin:round;}
	.st58{fill:none;stroke:#FFFFFF;stroke-width:0.3761;stroke-linecap:round;stroke-linejoin:round;}
	.st59{fill:none;stroke:#FFFFFF;stroke-width:0.5187;stroke-linecap:round;stroke-linejoin:round;}
	.st60{fill:none;stroke:#FFFFFF;stroke-width:0.4733;stroke-linecap:round;stroke-linejoin:round;}
	.st61{fill:none;stroke:#FFFFFF;stroke-width:0.4344;stroke-linecap:round;stroke-linejoin:round;}
	.st62{fill:none;stroke:#FFFFFF;stroke-width:0.616;stroke-linecap:round;stroke-linejoin:round;}
	.st63{fill:none;stroke:#FFFFFF;stroke-width:0.5576;stroke-linecap:round;stroke-linejoin:round;}
	.st64{fill:none;stroke:#FFFFFF;stroke-width:0.7327;stroke-linecap:round;stroke-linejoin:round;}
	.st65{fill:none;stroke:#FFFFFF;stroke-width:0.6549;stroke-linecap:round;stroke-linejoin:round;}
	.st66{fill:none;stroke:#FFFFFF;stroke-width:0.7651;stroke-linecap:round;stroke-linejoin:round;}
	.st67{fill:none;stroke:#FFFFFF;stroke-width:0.7457;stroke-linecap:round;stroke-linejoin:round;}
	.st68{fill:none;stroke:#FFFFFF;stroke-width:0.7911;stroke-linecap:round;stroke-linejoin:round;}
	.st69{fill:none;stroke:#FFFFFF;stroke-width:0.8202;stroke-linecap:round;stroke-linejoin:round;}
	.st70{fill:none;stroke:#FFFFFF;stroke-width:0.8527;stroke-linecap:round;stroke-linejoin:round;}
	.st71{fill:none;stroke:#FFFFFF;stroke-width:0.9143;stroke-linecap:round;stroke-linejoin:round;}
	.st72{fill:none;stroke:#FFFFFF;stroke-width:0.9467;stroke-linecap:round;stroke-linejoin:round;}
	.st73{fill:none;stroke:#FFFFFF;stroke-width:0.9856;stroke-linecap:round;stroke-linejoin:round;}
	.st74{fill:none;stroke:#FFFFFF;stroke-width:1.0991;stroke-linecap:round;stroke-linejoin:round;}
	.st75{fill:none;stroke:#FFFFFF;stroke-width:1.0602;stroke-linecap:round;stroke-linejoin:round;}
	.st76{fill:none;stroke:#FFFFFF;stroke-width:1.0212;stroke-linecap:round;stroke-linejoin:round;}
	.st77{fill:none;stroke:#FFFFFF;stroke-width:0.9823;stroke-linecap:round;stroke-linejoin:round;}
	.st78{fill:none;stroke:#FFFFFF;stroke-width:1.1801;stroke-linecap:round;stroke-linejoin:round;}
	.st79{fill:none;stroke:#FFFFFF;stroke-width:1.138;stroke-linecap:round;stroke-linejoin:round;}
	.st80{fill:none;stroke:#FFFFFF;stroke-width:1.0958;stroke-linecap:round;stroke-linejoin:round;}
	.st81{fill:none;stroke:#FFFFFF;stroke-width:1.0569;stroke-linecap:round;stroke-linejoin:round;}
	.st82{fill:none;stroke:#FFFFFF;stroke-width:1.018;stroke-linecap:round;stroke-linejoin:round;}
	.st83{fill:none;stroke:#FFFFFF;stroke-width:0.9791;stroke-linecap:round;stroke-linejoin:round;}
	.st84{fill:none;stroke:#FFFFFF;stroke-width:1.2644;stroke-linecap:round;stroke-linejoin:round;}
	.st85{fill:none;stroke:#FFFFFF;stroke-width:1.219;stroke-linecap:round;stroke-linejoin:round;}
	.st86{fill:none;stroke:#FFFFFF;stroke-width:1.1736;stroke-linecap:round;stroke-linejoin:round;}
	.st87{fill:none;stroke:#FFFFFF;stroke-width:1.1315;stroke-linecap:round;stroke-linejoin:round;}
	.st88{fill:none;stroke:#FFFFFF;stroke-width:1.0893;stroke-linecap:round;stroke-linejoin:round;}
	.st89{fill:none;stroke:#FFFFFF;stroke-width:1.0504;stroke-linecap:round;stroke-linejoin:round;}
	.st90{fill:none;stroke:#FFFFFF;stroke-width:1.0115;stroke-linecap:round;stroke-linejoin:round;}
	.st91{fill:none;stroke:#FFFFFF;stroke-width:0.9759;stroke-linecap:round;stroke-linejoin:round;}
	.st92{fill:none;stroke:#FFFFFF;stroke-width:1.2968;stroke-linecap:round;stroke-linejoin:round;}
	.st93{fill:none;stroke:#FFFFFF;stroke-width:1.2482;stroke-linecap:round;stroke-linejoin:round;}
	.st94{fill:none;stroke:#FFFFFF;stroke-width:1.206;stroke-linecap:round;stroke-linejoin:round;}
	.st95{fill:none;stroke:#FFFFFF;stroke-width:1.1607;stroke-linecap:round;stroke-linejoin:round;}
	.st96{fill:none;stroke:#FFFFFF;stroke-width:1.1185;stroke-linecap:round;stroke-linejoin:round;}
	.st97{fill:none;stroke:#FFFFFF;stroke-width:1.0796;stroke-linecap:round;stroke-linejoin:round;}
	.st98{fill:none;stroke:#FFFFFF;stroke-width:1.0407;stroke-linecap:round;stroke-linejoin:round;}
	.st99{fill:none;stroke:#FFFFFF;stroke-width:1.005;stroke-linecap:round;stroke-linejoin:round;}
	.st100{fill:none;stroke:#FFFFFF;stroke-width:1.3195;stroke-linecap:round;stroke-linejoin:round;}
	.st101{fill:none;stroke:#FFFFFF;stroke-width:1.2741;stroke-linecap:round;stroke-linejoin:round;}
	.st102{fill:none;stroke:#FFFFFF;stroke-width:1.2287;stroke-linecap:round;stroke-linejoin:round;}
	.st103{fill:none;stroke:#FFFFFF;stroke-width:1.1866;stroke-linecap:round;stroke-linejoin:round;}
	.st104{fill:none;stroke:#FFFFFF;stroke-width:1.1444;stroke-linecap:round;stroke-linejoin:round;}
	.st105{fill:none;stroke:#FFFFFF;stroke-width:1.1055;stroke-linecap:round;stroke-linejoin:round;}
	.st106{fill:none;stroke:#FFFFFF;stroke-width:1.0666;stroke-linecap:round;stroke-linejoin:round;}
	.st107{fill:none;stroke:#FFFFFF;stroke-width:1.031;stroke-linecap:round;stroke-linejoin:round;}
	.st108{fill:none;stroke:#FFFFFF;stroke-width:1.3292;stroke-linecap:round;stroke-linejoin:round;}
	.st109{fill:none;stroke:#FFFFFF;stroke-width:1.2871;stroke-linecap:round;stroke-linejoin:round;}
	.st110{fill:none;stroke:#FFFFFF;stroke-width:1.2449;stroke-linecap:round;stroke-linejoin:round;}
	.st111{fill:none;stroke:#FFFFFF;stroke-width:1.2028;stroke-linecap:round;stroke-linejoin:round;}
	.st112{fill:none;stroke:#FFFFFF;stroke-width:1.1639;stroke-linecap:round;stroke-linejoin:round;}
	.st113{fill:none;stroke:#FFFFFF;stroke-width:1.125;stroke-linecap:round;stroke-linejoin:round;}
	.st114{fill:none;stroke:#FFFFFF;stroke-width:1.0537;stroke-linecap:round;stroke-linejoin:round;}
	.st115{fill:none;stroke:#FFFFFF;stroke-width:1.2514;stroke-linecap:round;stroke-linejoin:round;}
	.st116{fill:none;stroke:#FFFFFF;stroke-width:1.2125;stroke-linecap:round;stroke-linejoin:round;}
	.st117{fill:none;stroke:#FFFFFF;stroke-width:1.1769;stroke-linecap:round;stroke-linejoin:round;}
	.st118{fill:none;stroke:#FFFFFF;stroke-width:1.2158;stroke-linecap:round;stroke-linejoin:round;}
	.st119{fill:none;}
	.st120{fill:url(#SVGID_00000137846967908133084430000004566815208933514656_);}
</style>
<g>
	<g>
		<defs>
			<rect id="SVGID_1_" width="390" height="158"/>
		</defs>
		<clipPath id="SVGID_00000150065506078444684170000010225434326222886557_">
			<use xlink:href="#SVGID_1_"  style="overflow:visible;"/>
		</clipPath>
		<g style="clip-path:url(#SVGID_00000150065506078444684170000010225434326222886557_);">
			
				<linearGradient id="SVGID_00000161598715029817407620000014297577331693050551_" gradientUnits="userSpaceOnUse" x1="200" y1="920" x2="200" y2="1080" gradientTransform="matrix(1 0 0 1 0 -920)">
				<stop  offset="0" style="stop-color:#D401CC"/>
				<stop  offset="1" style="stop-color:#5F37CF"/>
			</linearGradient>
			<rect style="fill:url(#SVGID_00000161598715029817407620000014297577331693050551_);" width="400" height="160"/>
			<g transform="translate(900,520.5) scale(1) rotate(0)" class="st2">
				<line class="st3" x1="-750.2" y1="-494.4" x2="-751" y2="-497.4"/>
				<line class="st4" x1="-740.5" y1="-499.2" x2="-740.5" y2="-501.7"/>
				<line class="st4" x1="-735.6" y1="-501.4" x2="-735.2" y2="-503.7"/>
				<line class="st5" x1="-730.8" y1="-503.4" x2="-730" y2="-505.4"/>
				<line class="st5" x1="-726" y1="-505.2" x2="-724.8" y2="-506.8"/>
				<line class="st6" x1="-721.2" y1="-506.7" x2="-719.8" y2="-507.9"/>
				<line class="st6" x1="-716.5" y1="-507.8" x2="-714.8" y2="-508.7"/>
				<line class="st6" x1="-711.9" y1="-508.4" x2="-710" y2="-509"/>
				<line class="st4" x1="-766.7" y1="-490.7" x2="-768.4" y2="-494.5"/>
				<line class="st4" x1="-761.5" y1="-492.9" x2="-762.8" y2="-496.5"/>
				<line class="st5" x1="-756.3" y1="-495.2" x2="-757.1" y2="-498.5"/>
				<line class="st5" x1="-751" y1="-497.4" x2="-751.4" y2="-500.4"/>
				<line class="st5" x1="-745.7" y1="-499.6" x2="-745.7" y2="-502.4"/>
				<line class="st6" x1="-740.5" y1="-501.7" x2="-740" y2="-504.1"/>
				<line class="st7" x1="-735.2" y1="-503.7" x2="-734.4" y2="-505.8"/>
				<line class="st7" x1="-730" y1="-505.4" x2="-728.8" y2="-507.1"/>
				<line class="st8" x1="-724.8" y1="-506.8" x2="-723.3" y2="-508.2"/>
				<line class="st8" x1="-719.8" y1="-507.9" x2="-718" y2="-509"/>
				<line class="st8" x1="-714.8" y1="-508.7" x2="-712.8" y2="-509.4"/>
				<line class="st8" x1="-710" y1="-509" x2="-707.8" y2="-509.3"/>
				<line class="st8" x1="-696.7" y1="-507.2" x2="-694.3" y2="-506.4"/>
				<line class="st6" x1="-779.7" y1="-490.8" x2="-781.9" y2="-495.3"/>
				<line class="st6" x1="-774.1" y1="-492.6" x2="-775.8" y2="-496.9"/>
				<line class="st7" x1="-768.4" y1="-494.5" x2="-769.7" y2="-498.5"/>
				<line class="st7" x1="-762.8" y1="-496.5" x2="-763.5" y2="-500.1"/>
				<line class="st7" x1="-757.1" y1="-498.5" x2="-757.4" y2="-501.8"/>
				<line class="st8" x1="-751.4" y1="-500.4" x2="-751.3" y2="-503.4"/>
				<line class="st8" x1="-745.7" y1="-502.4" x2="-745.2" y2="-505"/>
				<line class="st9" x1="-740" y1="-504.1" x2="-739.1" y2="-506.4"/>
				<line class="st9" x1="-734.4" y1="-505.8" x2="-733.1" y2="-507.7"/>
				<line class="st10" x1="-728.8" y1="-507.1" x2="-727.1" y2="-508.7"/>
				<line class="st10" x1="-723.3" y1="-508.2" x2="-721.4" y2="-509.4"/>
				<line class="st11" x1="-718" y1="-509" x2="-715.8" y2="-509.7"/>
				<line class="st11" x1="-712.8" y1="-509.4" x2="-710.4" y2="-509.7"/>
				<line class="st11" x1="-707.8" y1="-509.3" x2="-705.2" y2="-509.3"/>
				<line class="st10" x1="-781.9" y1="-495.3" x2="-783.5" y2="-500"/>
				<line class="st10" x1="-775.8" y1="-496.9" x2="-777" y2="-501.2"/>
				<line class="st10" x1="-769.7" y1="-498.5" x2="-770.4" y2="-502.5"/>
				<line class="st10" x1="-763.5" y1="-500.1" x2="-763.8" y2="-503.8"/>
				<line class="st11" x1="-757.4" y1="-501.8" x2="-757.3" y2="-505"/>
				<line class="st11" x1="-751.3" y1="-503.4" x2="-750.7" y2="-506.3"/>
				<line class="st12" x1="-745.2" y1="-505" x2="-744.2" y2="-507.5"/>
				<line class="st12" x1="-739.1" y1="-506.4" x2="-737.7" y2="-508.5"/>
				<line class="st13" x1="-733.1" y1="-507.7" x2="-731.4" y2="-509.4"/>
				<line class="st13" x1="-727.1" y1="-508.7" x2="-725.1" y2="-509.9"/>
				<line class="st13" x1="-721.4" y1="-509.4" x2="-719.1" y2="-510.2"/>
				<line class="st14" x1="-715.8" y1="-509.7" x2="-713.2" y2="-510.2"/>
				<line class="st14" x1="-710.4" y1="-509.7" x2="-707.7" y2="-509.8"/>
				<line class="st14" x1="-705.2" y1="-509.3" x2="-702.4" y2="-508.9"/>
				<line class="st13" x1="-700.4" y1="-508.5" x2="-697.5" y2="-507.7"/>
				<line class="st13" x1="-695.8" y1="-507.2" x2="-692.9" y2="-506.1"/>
				<line class="st14" x1="-783.5" y1="-500" x2="-784.7" y2="-504.9"/>
				<line class="st14" x1="-777" y1="-501.2" x2="-777.7" y2="-505.7"/>
				<line class="st14" x1="-770.4" y1="-502.5" x2="-770.7" y2="-506.5"/>
				<line class="st15" x1="-763.8" y1="-503.8" x2="-763.7" y2="-507.4"/>
				<line class="st15" x1="-757.3" y1="-505" x2="-756.7" y2="-508.2"/>
				<line class="st15" x1="-750.7" y1="-506.3" x2="-749.7" y2="-509"/>
				<line class="st16" x1="-744.2" y1="-507.5" x2="-742.8" y2="-509.8"/>
				<line class="st16" x1="-737.7" y1="-508.5" x2="-736" y2="-510.3"/>
				<line class="st16" x1="-731.4" y1="-509.4" x2="-729.3" y2="-510.7"/>
				<line class="st17" x1="-725.1" y1="-509.9" x2="-722.7" y2="-510.9"/>
				<line class="st17" x1="-719.1" y1="-510.2" x2="-716.4" y2="-510.7"/>
				<line class="st17" x1="-713.2" y1="-510.2" x2="-710.4" y2="-510.2"/>
				<line class="st17" x1="-707.7" y1="-509.8" x2="-704.7" y2="-509.4"/>
				<line class="st17" x1="-702.4" y1="-508.9" x2="-699.3" y2="-508.2"/>
				<line class="st18" x1="-784.7" y1="-504.9" x2="-785.3" y2="-509.8"/>
				<line class="st18" x1="-777.7" y1="-505.7" x2="-777.8" y2="-510.2"/>
				<line class="st18" x1="-770.7" y1="-506.5" x2="-770.4" y2="-510.5"/>
				<line class="st18" x1="-763.7" y1="-507.4" x2="-763" y2="-510.9"/>
				<line class="st18" x1="-756.7" y1="-508.2" x2="-755.7" y2="-511.2"/>
				<line class="st18" x1="-749.7" y1="-509" x2="-748.3" y2="-511.6"/>
				<line class="st18" x1="-742.8" y1="-509.8" x2="-741" y2="-511.8"/>
				<line class="st18" x1="-736" y1="-510.3" x2="-733.8" y2="-511.9"/>
				<line class="st19" x1="-729.3" y1="-510.7" x2="-726.8" y2="-511.8"/>
				<line class="st19" x1="-722.7" y1="-510.9" x2="-720" y2="-511.5"/>
				<line class="st19" x1="-716.4" y1="-510.7" x2="-713.5" y2="-510.8"/>
				<line class="st19" x1="-710.4" y1="-510.2" x2="-707.3" y2="-509.9"/>
				<line class="st20" x1="-785.3" y1="-509.8" x2="-785.3" y2="-514.9"/>
				<line class="st21" x1="-777.8" y1="-510.2" x2="-777.5" y2="-514.7"/>
				<line class="st21" x1="-770.4" y1="-510.5" x2="-769.7" y2="-514.5"/>
				<line class="st21" x1="-763" y1="-510.9" x2="-761.9" y2="-514.3"/>
				<line class="st22" x1="-755.7" y1="-511.2" x2="-754.2" y2="-514.1"/>
				<line class="st22" x1="-748.3" y1="-511.6" x2="-746.5" y2="-513.9"/>
				<line class="st22" x1="-741" y1="-511.8" x2="-738.8" y2="-513.6"/>
				<line class="st22" x1="-733.8" y1="-511.9" x2="-731.3" y2="-513.1"/>
				<line class="st22" x1="-726.8" y1="-511.8" x2="-724" y2="-512.5"/>
				<line class="st22" x1="-720" y1="-511.5" x2="-717" y2="-511.7"/>
				<line class="st22" x1="-713.5" y1="-510.8" x2="-710.3" y2="-510.6"/>
				<line class="st22" x1="-707.3" y1="-509.9" x2="-703.9" y2="-509.2"/>
				<line class="st23" x1="-785.3" y1="-514.9" x2="-784.8" y2="-520"/>
				<line class="st24" x1="-777.5" y1="-514.7" x2="-776.6" y2="-519.2"/>
				<line class="st25" x1="-769.7" y1="-514.5" x2="-768.5" y2="-518.3"/>
				<line class="st25" x1="-761.9" y1="-514.3" x2="-760.3" y2="-517.6"/>
				<line class="st26" x1="-754.2" y1="-514.1" x2="-752.3" y2="-516.8"/>
				<line class="st26" x1="-746.5" y1="-513.9" x2="-744.2" y2="-515.9"/>
				<line class="st26" x1="-738.8" y1="-513.6" x2="-736.3" y2="-515.1"/>
				<line class="st27" x1="-731.3" y1="-513.1" x2="-728.5" y2="-514"/>
				<line class="st27" x1="-724" y1="-512.5" x2="-721" y2="-512.9"/>
				<line class="st27" x1="-717" y1="-511.7" x2="-713.7" y2="-511.5"/>
				<line class="st28" x1="-710.3" y1="-510.6" x2="-706.8" y2="-509.8"/>
				<polyline class="st29" points="-766.8,-522.1 -767.5,-520.5 -768.5,-518.3 				"/>
				<polyline class="st30" points="-758.3,-520.6 -758.4,-520.5 -760.3,-517.5 				"/>
				<line class="st31" x1="-752.3" y1="-516.8" x2="-749.9" y2="-519.2"/>
				<line class="st31" x1="-744.2" y1="-515.9" x2="-741.6" y2="-517.7"/>
				<line class="st32" x1="-736.3" y1="-515.1" x2="-733.4" y2="-516.2"/>
				<line class="st33" x1="-728.5" y1="-514" x2="-725.4" y2="-514.6"/>
				<line class="st34" x1="-721" y1="-512.9" x2="-717.7" y2="-512.8"/>
				<line class="st35" x1="-713.7" y1="-511.5" x2="-710.3" y2="-510.8"/>
				<line class="st23" x1="-706.8" y1="-509.8" x2="-703.3" y2="-508.7"/>
				<line class="st36" x1="-749.9" y1="-519.2" x2="-747.3" y2="-521.3"/>
				<line class="st37" x1="-741.6" y1="-517.7" x2="-738.7" y2="-519.1"/>
				<line class="st38" x1="-733.4" y1="-516.2" x2="-730.3" y2="-517"/>
				<line class="st39" x1="-725.4" y1="-514.6" x2="-722.1" y2="-514.7"/>
				<line class="st40" x1="-717.7" y1="-512.8" x2="-714.2" y2="-512.3"/>
				<line class="st29" x1="-710.3" y1="-510.8" x2="-706.7" y2="-509.7"/>
				<line class="st41" x1="-738.7" y1="-519.1" x2="-735.4" y2="-520.3"/>
				<line class="st42" x1="-730.3" y1="-517" x2="-726.9" y2="-517.4"/>
				<line class="st43" x1="-722.1" y1="-514.7" x2="-718.6" y2="-514.4"/>
				<line class="st44" x1="-714.2" y1="-512.3" x2="-710.6" y2="-511.4"/>
				<line class="st36" x1="-706.7" y1="-509.7" x2="-703" y2="-508.2"/>
				<line class="st45" x1="-735.4" y1="-520.3" x2="-731.9" y2="-521.1"/>
				<line class="st46" x1="-726.9" y1="-517.4" x2="-723.2" y2="-517.4"/>
				<line class="st47" x1="-718.6" y1="-514.4" x2="-714.8" y2="-513.8"/>
				<line class="st48" x1="-710.6" y1="-511.4" x2="-706.8" y2="-510.1"/>
				<line class="st49" x1="-731.9" y1="-521.1" x2="-728" y2="-521.6"/>
				<line class="st50" x1="-723.2" y1="-517.4" x2="-719.3" y2="-517.1"/>
				<line class="st51" x1="-714.8" y1="-513.8" x2="-710.9" y2="-512.8"/>
				<line class="st45" x1="-706.8" y1="-510.1" x2="-703" y2="-508.4"/>
				<line class="st52" x1="-728" y1="-521.6" x2="-723.8" y2="-521.7"/>
				<line class="st53" x1="-719.3" y1="-517.1" x2="-715.2" y2="-516.5"/>
				<line class="st54" x1="-710.9" y1="-512.8" x2="-706.9" y2="-511.4"/>
				<line class="st55" x1="-703" y1="-508.4" x2="-699.1" y2="-506.4"/>
				<line class="st56" x1="-723.8" y1="-521.7" x2="-719.3" y2="-521.5"/>
				<line class="st57" x1="-715.2" y1="-516.5" x2="-710.8" y2="-515.5"/>
				<line class="st58" x1="-706.9" y1="-511.4" x2="-702.8" y2="-509.7"/>
				<line class="st59" x1="-719.3" y1="-521.5" x2="-714.4" y2="-521"/>
				<line class="st60" x1="-710.8" y1="-515.5" x2="-706.3" y2="-514.3"/>
				<line class="st61" x1="-702.8" y1="-509.7" x2="-698.5" y2="-507.8"/>
				<line class="st62" x1="-714.4" y1="-521" x2="-709.2" y2="-520.1"/>
				<line class="st63" x1="-706.3" y1="-514.3" x2="-701.5" y2="-512.7"/>
				<line class="st64" x1="-709.2" y1="-520.1" x2="-703.5" y2="-518.9"/>
				<line class="st65" x1="-701.5" y1="-512.7" x2="-696.3" y2="-510.7"/>
				<line class="st66" x1="-703.5" y1="-518.9" x2="-697.3" y2="-517.2"/>
				<line class="st67" x1="-696.3" y1="-510.7" x2="-690.8" y2="-508.5"/>
				<line class="st68" x1="-697.3" y1="-517.2" x2="-690.5" y2="-515.2"/>
				<line class="st69" x1="-690.5" y1="-515.2" x2="-683" y2="-512.6"/>
				<line class="st70" x1="-683" y1="-512.6" x2="-674.6" y2="-509.4"/>
				<line class="st71" x1="-678.5" y1="-520.1" x2="-667.9" y2="-516.4"/>
				<line class="st72" x1="-667.9" y1="-516.4" x2="-656.1" y2="-511.6"/>
				<line class="st73" x1="-656.1" y1="-511.6" x2="-643" y2="-505.4"/>
				<polyline class="st74" points="-624.4,-520.6 -624.1,-520.5 -623.2,-520 				"/>
				<line class="st75" x1="-648.1" y1="-520.5" x2="-626.1" y2="-508.5"/>
				<line class="st76" x1="-643" y1="-505.4" x2="-628.5" y2="-497.6"/>
				<line class="st77" x1="-643.4" y1="-494.6" x2="-630.6" y2="-487.2"/>
				<polyline class="st78" points="-599.3,-520.7 -599.2,-520.7 -598.8,-520.5 -598,-520 				"/>
				<line class="st79" x1="-623.2" y1="-520" x2="-603.5" y2="-508.9"/>
				<line class="st80" x1="-626.1" y1="-508.5" x2="-608.4" y2="-498.2"/>
				<line class="st81" x1="-628.5" y1="-497.6" x2="-612.7" y2="-488"/>
				<line class="st82" x1="-630.6" y1="-487.2" x2="-616.6" y2="-478.3"/>
				<line class="st83" x1="-632.5" y1="-477.4" x2="-620.1" y2="-469.1"/>
				<polyline class="st84" points="-566.4,-515 -569.1,-516.8 -573.9,-519.9 -574.8,-520.5 				"/>
				<line class="st85" x1="-598" y1="-520" x2="-574.9" y2="-504.9"/>
				<line class="st86" x1="-603.5" y1="-508.9" x2="-582.6" y2="-495"/>
				<line class="st87" x1="-608.4" y1="-498.2" x2="-589.5" y2="-485.4"/>
				<line class="st88" x1="-612.7" y1="-488" x2="-595.8" y2="-476.2"/>
				<line class="st89" x1="-616.6" y1="-478.3" x2="-601.5" y2="-467.4"/>
				<line class="st90" x1="-620.1" y1="-469.1" x2="-606.7" y2="-459.1"/>
				<line class="st91" x1="-623.3" y1="-460.4" x2="-611.4" y2="-451.2"/>
				<line class="st92" x1="-566.4" y1="-515.1" x2="-540.7" y2="-495"/>
				<line class="st93" x1="-574.9" y1="-504.9" x2="-551.2" y2="-486.6"/>
				<line class="st94" x1="-582.6" y1="-495" x2="-560.9" y2="-478.2"/>
				<line class="st95" x1="-589.5" y1="-485.4" x2="-569.8" y2="-470.1"/>
				<line class="st96" x1="-595.8" y1="-476.2" x2="-577.9" y2="-462.2"/>
				<line class="st97" x1="-601.5" y1="-467.4" x2="-585.3" y2="-454.6"/>
				<line class="st98" x1="-606.7" y1="-459.1" x2="-592.2" y2="-447.4"/>
				<line class="st99" x1="-611.4" y1="-451.2" x2="-598.5" y2="-440.4"/>
				<line class="st100" x1="-540.7" y1="-495" x2="-515.2" y2="-471.6"/>
				<line class="st101" x1="-551.2" y1="-486.6" x2="-527.6" y2="-465.1"/>
				<line class="st102" x1="-560.9" y1="-478.2" x2="-539.1" y2="-458.6"/>
				<line class="st103" x1="-569.8" y1="-470.1" x2="-549.7" y2="-452.1"/>
				<line class="st104" x1="-577.9" y1="-462.2" x2="-559.5" y2="-445.8"/>
				<line class="st105" x1="-585.3" y1="-454.6" x2="-568.6" y2="-439.6"/>
				<line class="st106" x1="-592.2" y1="-447.4" x2="-577" y2="-433.7"/>
				<line class="st107" x1="-598.5" y1="-440.4" x2="-584.8" y2="-427.9"/>
				<line class="st108" x1="-510" y1="-465.9" x2="-515.2" y2="-471.6"/>
				<line class="st109" x1="-510" y1="-446.3" x2="-527.6" y2="-465.1"/>
				<line class="st110" x1="-539.1" y1="-458.6" x2="-517.8" y2="-436.3"/>
				<line class="st111" x1="-549.7" y1="-452.1" x2="-529.9" y2="-431.8"/>
				<line class="st112" x1="-559.5" y1="-445.8" x2="-541.1" y2="-427.1"/>
				<line class="st113" x1="-568.6" y1="-439.6" x2="-551.6" y2="-422.5"/>
				<line class="st88" x1="-577" y1="-433.7" x2="-561.4" y2="-418"/>
				<path class="st114" d="M-584.8-427.9"/>
				<line class="st115" x1="-510" y1="-426.7" x2="-517.8" y2="-436.3"/>
				<line class="st116" x1="-529.9" y1="-431.8" x2="-511.1" y2="-409.3"/>
				<line class="st117" x1="-541.1" y1="-427.1" x2="-523.4" y2="-406.4"/>
				<line class="st118" x1="-510" y1="-407.8" x2="-511.1" y2="-409.3"/>
			</g>
			<rect y="-301" class="st119" width="390" height="681"/>
			
				<linearGradient id="SVGID_00000077318892400635077160000004987742071863439791_" gradientUnits="userSpaceOnUse" x1="259.4374" y1="927.6408" x2="123.8704" y2="1055.0824" gradientTransform="matrix(1 0 0 1 0 -920)">
				<stop  offset="0.1031" style="stop-color:#2F3E41"/>
				<stop  offset="0.3506" style="stop-color:#273132"/>
				<stop  offset="0.714" style="stop-color:#1E2422"/>
				<stop  offset="0.9948" style="stop-color:#1B1F1C"/>
			</linearGradient>
			<path style="fill:url(#SVGID_00000077318892400635077160000004987742071863439791_);" d="M383.1,208
				c15.7-16.1,22.8-38.3,18.6-58.6c-5.9-28.6-30.9-46.3-61.5-54.9c-11.2-3.1-22.8-5.4-33.5-9.6C281,74.6,279.5,53.6,266,34.7
				c-36.5-51.1-114-0.8-166.4-7.3C65.5,23.2,38.9-1,34.1-30.3c-0.3-2.1-0.6-4.3-2.1-6c-1-1.2-2.5-1.9-4-2.6
				C5-49.6-26.5-40.6-43.8-24C-62.9-5.5-69.6,19.9-72.3,44.2c-2.2,19.4-2.4,39.3,4.5,57.5c18.7,49.6,82.6,74.1,113.5,118.5
				c6.7,9.6,11.8,20.1,19.4,29.1c19.4,23,52.6,33.8,85.2,39.3c40.1,6.9,84.2,7,120.7-10.7c23.4-11.3,42-29.3,65.6-40.2
				C353,230.1,371,220.4,383.1,208z"/>
		</g>
	</g>
</g>
</svg>
