<svg width="36" height="36" viewBox="0 0 36 36" fill="none" xmlns="http://www.w3.org/2000/svg">
<path d="M13.5 22.5L22.5 13.5" stroke="#016BD4" stroke-width="2" stroke-linecap="round" stroke-linejoin="round"/>
<path d="M14.25 15C14.6642 15 15 14.6642 15 14.25C15 13.8358 14.6642 13.5 14.25 13.5C13.8358 13.5 13.5 13.8358 13.5 14.25C13.5 14.6642 13.8358 15 14.25 15Z" fill="#016BD4" stroke="#016BD4" stroke-width="2" stroke-linecap="round" stroke-linejoin="round"/>
<path d="M21.75 22.5C22.1642 22.5 22.5 22.1642 22.5 21.75C22.5 21.3358 22.1642 21 21.75 21C21.3358 21 21 21.3358 21 21.75C21 22.1642 21.3358 22.5 21.75 22.5Z" fill="#016BD4" stroke="#016BD4" stroke-width="2" stroke-linecap="round" stroke-linejoin="round"/>
<path d="M7.5002 10.8C7.5002 9.92478 7.84788 9.08541 8.46675 8.46654C9.08562 7.84767 9.92499 7.49999 10.8002 7.49999H12.3002C13.1716 7.49949 14.0073 7.15439 14.6252 6.53999L15.6752 5.48999C15.9819 5.18159 16.3465 4.93685 16.7481 4.76985C17.1496 4.60285 17.5803 4.51688 18.0152 4.51688C18.4501 4.51688 18.8808 4.60285 19.2823 4.76985C19.6839 4.93685 20.0485 5.18159 20.3552 5.48999L21.4052 6.53999C22.0231 7.15439 22.8589 7.49949 23.7302 7.49999H25.2302C26.1054 7.49999 26.9448 7.84767 27.5637 8.46654C28.1825 9.08541 28.5302 9.92478 28.5302 10.8V12.3C28.5307 13.1713 28.8758 14.0071 29.4902 14.625L30.5402 15.675C30.8486 15.9817 31.0933 16.3463 31.2603 16.7479C31.4273 17.1494 31.5133 17.5801 31.5133 18.015C31.5133 18.4499 31.4273 18.8805 31.2603 19.2821C31.0933 19.6837 30.8486 20.0483 30.5402 20.355L29.4902 21.405C28.8758 22.0229 28.5307 22.8586 28.5302 23.73V25.23C28.5302 26.1052 28.1825 26.9446 27.5637 27.5634C26.9448 28.1823 26.1054 28.53 25.2302 28.53H23.7302C22.8589 28.5305 22.0231 28.8756 21.4052 29.49L20.3552 30.54C20.0485 30.8484 19.6839 31.0931 19.2823 31.2601C18.8808 31.4271 18.4501 31.5131 18.0152 31.5131C17.5803 31.5131 17.1496 31.4271 16.7481 31.2601C16.3465 31.0931 15.9819 30.8484 15.6752 30.54L14.6252 29.49C14.0073 28.8756 13.1716 28.5305 12.3002 28.53H10.8002C9.92499 28.53 9.08562 28.1823 8.46675 27.5634C7.84788 26.9446 7.5002 26.1052 7.5002 25.23V23.73C7.49971 22.8586 7.15461 22.0229 6.5402 21.405L5.4902 20.355C5.1818 20.0483 4.93707 19.6837 4.77006 19.2821C4.60306 18.8805 4.51709 18.4499 4.51709 18.015C4.51709 17.5801 4.60306 17.1494 4.77006 16.7479C4.93707 16.3463 5.1818 15.9817 5.4902 15.675L6.5402 14.625C7.15461 14.0071 7.49971 13.1713 7.5002 12.3V10.8" stroke="#016BD4" stroke-width="2" stroke-linecap="round" stroke-linejoin="round"/>
</svg>
