<svg width="150" height="50" viewBox="0 0 150 50" fill="none" xmlns="http://www.w3.org/2000/svg">
<rect width="150" height="50" rx="10" fill="white"/>
<path d="M17.463 11.738C17.172 12.046 17 12.524 17 13.143V35.259C17 35.879 17.172 36.356 17.463 36.664L17.537 36.736L29.926 24.347V24.201V24.055L17.537 11.665L17.463 11.738Z" fill="#1B1B1D"/>
<path d="M34.056 28.479L29.927 24.348V24.202V24.056L34.057 19.926L34.15 19.979L39.043 22.759C40.441 23.553 40.441 24.852 39.043 25.647L34.15 28.427L34.056 28.479Z" fill="#1B1B1D"/>
<path d="M34.15 28.4249L29.927 24.2009L17.463 36.6639C17.924 37.1519 18.684 37.2119 19.541 36.7249L34.15 28.4249Z" fill="#1B1B1D"/>
<path d="M34.15 19.977L19.542 11.677C18.685 11.19 17.925 11.251 17.464 11.738L29.927 24.201L34.15 19.977Z" fill="#1B1B1D"/>
<path opacity="0.2" d="M34.057 28.332L19.542 36.579C18.73 37.04 18.004 37.01 17.538 36.59L17.463 36.665L17.537 36.737C18.003 37.157 18.729 37.188 19.541 36.726L34.149 28.426L34.057 28.332Z" fill="#1B1B1D"/>
<path opacity="0.12" d="M17.463 36.518C17.172 36.21 17 35.732 17 35.113V35.259C17 35.878 17.172 36.356 17.463 36.664L17.538 36.589L17.463 36.518Z" fill="#1B1B1D"/>
<path opacity="0.12" d="M39.043 25.4989L34.057 28.3319L34.15 28.4249L39.043 25.6449C39.742 25.2479 40.091 24.7249 40.091 24.2019C40.032 24.6749 39.676 25.1389 39.043 25.4989Z" fill="#1B1B1D"/>
<path opacity="0.25" d="M19.541 11.823L39.042 22.903C39.676 23.263 40.031 23.727 40.09 24.201C40.09 23.678 39.741 23.154 39.042 22.757L19.541 11.677C18.143 10.883 17 11.542 17 13.143V13.29C17 11.689 18.144 11.029 19.541 11.823Z" fill="#1B1B1D"/>
<path d="M75.1708 25.841C72.8188 25.841 70.9018 27.629 70.9018 30.094C70.9018 32.543 72.8188 34.347 75.1708 34.347C77.5228 34.347 79.4398 32.543 79.4398 30.094C79.4398 27.629 77.5228 25.841 75.1708 25.841ZM75.1708 32.672C73.8818 32.672 72.7698 31.609 72.7698 30.094C72.7698 28.563 73.8818 27.516 75.1708 27.516C76.4598 27.516 77.5708 28.563 77.5708 30.094C77.5708 31.608 76.4598 32.672 75.1708 32.672ZM65.8568 25.841C63.5048 25.841 61.5878 27.629 61.5878 30.094C61.5878 32.543 63.5048 34.347 65.8568 34.347C68.2088 34.347 70.1258 32.543 70.1258 30.094C70.1268 27.629 68.2088 25.841 65.8568 25.841ZM65.8568 32.672C64.5678 32.672 63.4568 31.609 63.4568 30.094C63.4568 28.563 64.5688 27.516 65.8568 27.516C67.1458 27.516 68.2568 28.563 68.2568 30.094C68.2578 31.608 67.1458 32.672 65.8568 32.672ZM54.7788 27.146V28.95H59.0968C58.9678 29.965 58.6298 30.706 58.1138 31.222C57.4858 31.85 56.5028 32.543 54.7788 32.543C52.1208 32.543 50.0428 30.4 50.0428 27.742C50.0428 25.084 52.1208 22.941 54.7788 22.941C56.2128 22.941 57.2598 23.505 58.0328 24.23L59.3058 22.957C58.2268 21.926 56.7928 21.136 54.7788 21.136C51.1378 21.136 48.0768 24.1 48.0768 27.741C48.0768 31.382 51.1378 34.346 54.7788 34.346C56.7438 34.346 58.2268 33.702 59.3868 32.493C60.5788 31.301 60.9498 29.625 60.9498 28.272C60.9498 27.853 60.9178 27.466 60.8528 27.144H54.7788V27.146ZM100.087 28.547C99.7328 27.596 98.6528 25.84 96.4458 25.84C94.2548 25.84 92.4348 27.564 92.4348 30.093C92.4348 32.477 94.2388 34.346 96.6558 34.346C98.6048 34.346 99.7328 33.154 100.2 32.461L98.7498 31.494C98.2668 32.203 97.6058 32.67 96.6558 32.67C95.7048 32.67 95.0288 32.235 94.5938 31.381L100.281 29.029L100.087 28.547ZM94.2868 29.965C94.2388 28.322 95.5598 27.484 96.5098 27.484C97.2508 27.484 97.8788 27.854 98.0888 28.386L94.2868 29.965ZM89.6628 34.089H91.5318V21.588H89.6628V34.089ZM86.6018 26.791H86.5378C86.1188 26.292 85.3138 25.84 84.2988 25.84C82.1718 25.84 80.2228 27.709 80.2228 30.109C80.2228 32.493 82.1718 34.346 84.2988 34.346C85.3138 34.346 86.1188 33.895 86.5378 33.379H86.6018V33.991C86.6018 35.618 85.7318 36.488 84.3298 36.488C83.1858 36.488 82.4768 35.666 82.1868 34.974L80.5598 35.651C81.0268 36.779 82.2678 38.164 84.3298 38.164C86.5208 38.164 88.3738 36.875 88.3738 33.734V26.098H86.6018V26.791ZM84.4598 32.672C83.1708 32.672 82.0918 31.593 82.0918 30.11C82.0918 28.612 83.1708 27.516 84.4598 27.516C85.7328 27.516 86.7308 28.611 86.7308 30.11C86.7308 31.592 85.7328 32.672 84.4598 32.672ZM108.841 21.588H104.37V34.089H106.235V29.353H108.84C110.908 29.353 112.941 27.856 112.941 25.471C112.941 23.086 110.909 21.588 108.841 21.588ZM108.889 27.613H106.235V23.328H108.889C110.284 23.328 111.076 24.483 111.076 25.471C111.076 26.439 110.284 27.613 108.889 27.613ZM120.421 25.818C119.07 25.818 117.671 26.413 117.092 27.732L118.749 28.424C119.103 27.732 119.762 27.507 120.454 27.507C121.419 27.507 122.4 28.086 122.416 29.115V29.244C122.078 29.051 121.354 28.761 120.47 28.761C118.685 28.761 116.867 29.742 116.867 31.576C116.867 33.249 118.331 34.326 119.971 34.326C121.226 34.326 121.917 33.763 122.351 33.104H122.415V34.069H124.216V29.276C124.216 27.056 122.56 25.818 120.421 25.818ZM120.195 32.669C119.584 32.669 118.731 32.363 118.731 31.608C118.731 30.643 119.793 30.273 120.709 30.273C121.529 30.273 121.915 30.45 122.414 30.691C122.27 31.849 121.273 32.669 120.195 32.669ZM130.778 26.091L128.639 31.511H128.575L126.356 26.091H124.346L127.675 33.666L125.777 37.88H127.723L132.854 26.091H130.778ZM113.971 34.089H115.837V21.588H113.971V34.089Z" fill="#1B1B1D"/>
<path fill-rule="evenodd" clip-rule="evenodd" d="M80.6858 16.36C80.0958 16.967 79.3628 17.269 78.4858 17.269C77.6088 17.269 76.8758 16.966 76.2868 16.36C75.6968 15.754 75.4028 15.012 75.4028 14.135C75.4028 13.258 75.6968 12.516 76.2868 11.91C76.8758 11.303 77.6088 11 78.4858 11C79.3578 11 80.0898 11.305 80.6818 11.914C81.2738 12.523 81.5698 13.263 81.5698 14.135C81.5698 15.013 81.2748 15.755 80.6858 16.36ZM76.8558 15.858C77.2998 16.308 77.8428 16.532 78.4858 16.532C79.1288 16.532 79.6718 16.307 80.1158 15.858C80.5598 15.408 80.7828 14.834 80.7828 14.136C80.7828 13.438 80.5598 12.863 80.1158 12.414C79.6728 11.964 79.1288 11.74 78.4858 11.74C77.8428 11.74 77.2998 11.965 76.8558 12.414C76.4128 12.864 76.1898 13.438 76.1898 14.136C76.1898 14.834 76.4128 15.408 76.8558 15.858Z" fill="#1B1B1D"/>
<path d="M54.4948 14.379C54.4948 15.217 54.2468 15.884 53.7498 16.382C53.1858 16.974 52.4498 17.27 51.5458 17.27C50.6798 17.27 49.9428 16.97 49.3378 16.37C48.7318 15.769 48.4288 15.025 48.4288 14.137C48.4288 13.248 48.7318 12.504 49.3378 11.904C49.9428 11.303 50.6798 11.003 51.5458 11.003C51.9758 11.003 52.3868 11.087 52.7768 11.254C53.1678 11.422 53.4808 11.645 53.7148 11.924L53.1878 12.452C52.7908 11.977 52.2438 11.74 51.5448 11.74C50.9128 11.74 50.3668 11.962 49.9058 12.406C49.4458 12.85 49.2158 13.426 49.2158 14.136C49.2158 14.846 49.4458 15.422 49.9068 15.867C50.3678 16.311 50.9138 16.533 51.5458 16.533C52.2158 16.533 52.7748 16.31 53.2218 15.863C53.5118 15.572 53.6798 15.167 53.7248 14.648H51.5458V13.926H54.4528C54.4818 14.083 54.4948 14.234 54.4948 14.379Z" fill="#1B1B1D"/>
<path d="M59.1048 11.873H56.3728V13.775H58.8368V14.496H56.3728V16.398H59.1048V17.136H55.6018V11.136H59.1048V11.873Z" fill="#1B1B1D"/>
<path d="M61.5838 17.136H62.3548V11.873H64.0308V11.136H59.9078V11.873H61.5838V17.136Z" fill="#1B1B1D"/>
<path d="M67.0148 17.136V11.136H67.7858V17.136H67.0148Z" fill="#1B1B1D"/>
<path d="M70.4328 17.136H71.2038V11.873H72.8798V11.136H68.7568V11.873H70.4328V17.136Z" fill="#1B1B1D"/>
<path d="M82.6518 11.136V17.136H83.4208V13.398L83.3878 12.242H83.4208L86.4718 17.136H87.2768V11.136H86.5058V14.648L86.5388 15.804H86.5058L83.5898 11.136H82.6518Z" fill="#1B1B1D"/>
<path fill-rule="evenodd" clip-rule="evenodd" d="M80.6858 16.36C80.0958 16.967 79.3628 17.269 78.4858 17.269C77.6088 17.269 76.8758 16.966 76.2868 16.36C75.6968 15.754 75.4028 15.012 75.4028 14.135C75.4028 13.258 75.6968 12.516 76.2868 11.91C76.8758 11.303 77.6088 11 78.4858 11C79.3578 11 80.0898 11.305 80.6818 11.914C81.2738 12.523 81.5698 13.263 81.5698 14.135C81.5698 15.013 81.2748 15.755 80.6858 16.36ZM76.8558 15.858C77.2998 16.308 77.8428 16.532 78.4858 16.532C79.1288 16.532 79.6718 16.307 80.1158 15.858C80.5598 15.408 80.7828 14.834 80.7828 14.136C80.7828 13.438 80.5598 12.863 80.1158 12.414C79.6728 11.964 79.1288 11.74 78.4858 11.74C77.8428 11.74 77.2998 11.965 76.8558 12.414C76.4128 12.864 76.1898 13.438 76.1898 14.136C76.1898 14.834 76.4128 15.408 76.8558 15.858Z" stroke="#1B1B1D" stroke-width="0.2" stroke-miterlimit="10"/>
<path d="M54.4948 14.379C54.4948 15.217 54.2468 15.884 53.7498 16.382C53.1858 16.974 52.4498 17.27 51.5458 17.27C50.6798 17.27 49.9428 16.97 49.3378 16.37C48.7318 15.769 48.4288 15.025 48.4288 14.137C48.4288 13.248 48.7318 12.504 49.3378 11.904C49.9428 11.303 50.6798 11.003 51.5458 11.003C51.9758 11.003 52.3868 11.087 52.7768 11.254C53.1678 11.422 53.4808 11.645 53.7148 11.924L53.1878 12.452C52.7908 11.977 52.2438 11.74 51.5448 11.74C50.9128 11.74 50.3668 11.962 49.9058 12.406C49.4458 12.85 49.2158 13.426 49.2158 14.136C49.2158 14.846 49.4458 15.422 49.9068 15.867C50.3678 16.311 50.9138 16.533 51.5458 16.533C52.2158 16.533 52.7748 16.31 53.2218 15.863C53.5118 15.572 53.6798 15.167 53.7248 14.648H51.5458V13.926H54.4528C54.4818 14.083 54.4948 14.234 54.4948 14.379Z" stroke="#1B1B1D" stroke-width="0.2" stroke-miterlimit="10"/>
<path d="M59.1048 11.873H56.3728V13.775H58.8368V14.496H56.3728V16.398H59.1048V17.136H55.6018V11.136H59.1048V11.873Z" stroke="#1B1B1D" stroke-width="0.2" stroke-miterlimit="10"/>
<path d="M61.5838 17.136H62.3548V11.873H64.0308V11.136H59.9078V11.873H61.5838V17.136Z" stroke="#1B1B1D" stroke-width="0.2" stroke-miterlimit="10"/>
<path d="M67.0148 17.136V11.136H67.7858V17.136H67.0148Z" stroke="#1B1B1D" stroke-width="0.2" stroke-miterlimit="10"/>
<path d="M70.4328 17.136H71.2038V11.873H72.8798V11.136H68.7568V11.873H70.4328V17.136Z" stroke="#1B1B1D" stroke-width="0.2" stroke-miterlimit="10"/>
<path d="M82.6518 11.136V17.136H83.4208V13.398L83.3878 12.242H83.4208L86.4718 17.136H87.2768V11.136H86.5058V14.648L86.5388 15.804H86.5058L83.5898 11.136H82.6518Z" stroke="#1B1B1D" stroke-width="0.2" stroke-miterlimit="10"/>
</svg>
