<svg width="112" height="35" viewBox="0 0 112 35" fill="none" xmlns="http://www.w3.org/2000/svg">
<path d="M11.9496 10.3491C11.8015 10.3118 11.6593 10.2745 11.5199 10.2401C7.52221 9.20751 6.5148 8.65678 6.5148 7.0763C6.5148 5.797 7.62963 4.83609 9.75478 4.83609C11.5315 4.83609 13.3577 5.48148 15.2157 6.58867L18.9028 2.94583C16.3973 1.0527 13.3635 0 9.82736 0C4.67997 0 1.00741 2.98599 1.00741 7.50369C1.00741 11.7403 3.3474 13.3896 7.13899 14.5685C7.83286 14.7865 8.57318 14.9873 9.35995 15.1852C13.5696 16.2523 14.4348 16.9636 14.4348 18.3519C14.4348 19.8808 13.0673 20.77 10.7999 20.77C8.07092 20.77 5.79481 19.7173 3.63482 18.0306L0 21.6219C3.02224 24.2895 6.8748 25.606 10.6896 25.606C16.1273 25.606 19.9421 22.8323 19.9421 17.8872C19.9421 13.4785 17.0622 11.6628 11.9496 10.3491Z" fill="white"/>
<path d="M41.1559 15.7533C41.1559 10.2747 45.621 5.83154 51.6307 5.83154C57.6403 5.83154 62.0329 10.2058 62.0329 15.7533C62.0329 21.3007 57.5677 25.675 51.5581 25.675C45.5484 25.675 41.1559 21.3007 41.1559 15.7533ZM56.6358 15.7533C56.6358 12.9423 54.5832 10.4898 51.561 10.4898C48.5387 10.4898 46.5588 12.8734 46.5588 15.7533C46.5588 18.6331 48.6113 21.0168 51.6336 21.0168C54.6558 21.0168 56.6358 18.6331 56.6358 15.7533Z" fill="white"/>
<path d="M64.0157 6.1871H69.4883V10.0279C70.6031 7.39469 72.4031 6.04369 75.6431 6.1871V10.8109H75.3557C71.7209 10.8109 69.4883 13.6564 69.4883 18.2085V25.2504H64.0157V6.1871Z" fill="white"/>
<path d="M79.9253 19.8435V10.8081H77.6202V6.1871H79.9253V1.31372H85.3979V6.1871H89.9327V10.8109H85.3979V18.9543C85.3979 20.1992 85.9379 20.8044 87.163 20.8044C88.1704 20.8044 89.0704 20.5548 89.863 20.1274V24.4673C88.7104 25.1442 87.3779 25.5688 85.543 25.5688C82.1956 25.5688 79.9282 24.2522 79.9282 19.8435H79.9253Z" fill="white"/>
<path d="M93.3875 29.7309L95.2224 25.8184C95.9423 26.2458 96.8423 26.5642 97.5623 26.5642C98.4972 26.5642 99.0023 26.2802 99.4697 25.3193L91.9098 6.18433H97.7046L102.097 19.1666L106.31 6.18433H111.997L104.582 25.7094C103.107 29.5875 101.522 31.0446 98.2475 31.0446C96.2675 31.0446 94.7927 30.5455 93.3875 29.728V29.7309Z" fill="white"/>
<path d="M19.4108 35L25.4176 9.07269L21.8902 0L39.1759 11.9095L19.4108 35Z" fill="url(#paint0_linear_354_4917)"/>
<path d="M21.8902 0L30.3821 11.2928L19.4108 35L25.4176 9.07269L21.8902 0Z" fill="url(#paint1_linear_354_4917)"/>
<defs>
<linearGradient id="paint0_linear_354_4917" x1="24.985" y1="-0.697017" x2="31.556" y2="37.0378" gradientUnits="userSpaceOnUse">
<stop stop-color="#00CCFF"/>
<stop offset="1" stop-color="#003CBF"/>
</linearGradient>
<linearGradient id="paint1_linear_354_4917" x1="18.5631" y1="-0.522046" x2="26.4936" y2="29.8498" gradientUnits="userSpaceOnUse">
<stop stop-color="#00CCFF"/>
<stop offset="1" stop-color="#003CBF"/>
</linearGradient>
</defs>
</svg>
