<svg width="112" height="30" viewBox="0 0 112 30" fill="none" xmlns="http://www.w3.org/2000/svg">
<path d="M27.5461 29.6827H16.2146C7.27259 29.6827 0 22.4424 0 13.54H5.21707C5.21707 19.5754 10.1524 24.4888 16.2146 24.4888H27.5461V29.6827Z" fill="#0071BC"/>
<path d="M13.7731 0C6.16136 0 0 6.1392 0 13.7171C0 21.295 6.16136 19.0305 13.7731 19.0305C21.3848 19.0305 27.5513 21.2898 27.5513 13.7171C27.5513 6.14439 21.3795 0 13.7731 0ZM13.7731 13.7119C9.11422 13.7119 5.34228 18.3501 5.34228 13.7119C5.34228 9.07375 9.11422 5.31856 13.7731 5.31856C18.4319 5.31856 22.2038 9.07375 22.2038 13.7119C22.2038 18.3501 18.4319 13.7119 13.7731 13.7119Z" fill="#0071BC"/>
<path d="M53.1671 10.3878C54.8 11.9771 55.6191 14.33 55.6191 17.4515V29.678H49.4004V18.402C49.4004 16.7088 49.03 15.4467 48.2839 14.6104C47.5379 13.7794 46.4632 13.3587 45.0545 13.3587C43.4842 13.3587 42.2373 13.8417 41.3087 14.8078C40.3801 15.7739 39.9105 17.2074 39.9105 19.1136V29.6728H33.6918V0.228516H39.9105V10.5488C40.7348 9.72817 41.7313 9.09971 42.8999 8.66342C44.0685 8.22713 45.3467 8.00899 46.7292 8.00899C49.3847 8.00899 51.5341 8.80365 53.1671 10.393V10.3878Z" fill="white"/>
<path d="M82.8522 8.32617V29.6835H76.9517V27.1437C76.1274 28.0682 75.1414 28.7798 73.9989 29.268C72.8563 29.7562 71.6199 30.0003 70.2895 30.0003C67.4723 30.0003 65.2394 29.1953 63.5908 27.58C61.9422 25.9647 61.1179 23.5703 61.1179 20.3968V8.32617H67.3367V19.4827C67.3367 22.921 68.787 24.6454 71.6825 24.6454C73.1693 24.6454 74.3693 24.1624 75.2718 23.1963C76.1744 22.2303 76.6283 20.7967 76.6283 18.8906V8.32617H82.847H82.8522Z" fill="white"/>
<path d="M106.757 9.37498C108.39 10.2891 109.673 11.572 110.607 13.2237C111.536 14.8805 112 16.8023 112 18.9993C112 21.1963 111.536 23.1233 110.607 24.7749C109.678 26.4318 108.395 27.7147 106.757 28.6236C105.119 29.5325 103.308 29.9948 101.315 29.9948C98.3625 29.9948 96.1192 29.0703 94.5749 27.2161V29.678H88.6327V0.228516H94.8514V10.5904C96.4218 8.87117 98.5712 8.00899 101.31 8.00899C103.303 8.00899 105.119 8.46605 106.752 9.38018L106.757 9.37498ZM104.164 23.3102C105.186 22.2403 105.698 20.8016 105.698 19.0045C105.698 17.2074 105.186 15.7687 104.164 14.6987C103.141 13.6288 101.832 13.0886 100.235 13.0886C98.639 13.0886 97.3295 13.6236 96.307 14.6987C95.2845 15.7687 94.7732 17.2074 94.7732 19.0045C94.7732 20.8016 95.2845 22.2403 96.307 23.3102C97.3295 24.3802 98.639 24.9203 100.235 24.9203C101.832 24.9203 103.141 24.3854 104.164 23.3102Z" fill="white"/>
</svg>
