<svg width="26" height="26" viewBox="0 0 26 26" fill="none" xmlns="http://www.w3.org/2000/svg">
<path d="M11.731 10.647C12.3371 10.041 12.75 9.2689 12.9173 8.42828C13.0846 7.58766 12.9989 6.7163 12.6709 5.92441C12.343 5.13252 11.7876 4.45567 11.0749 3.97946C10.3623 3.50325 9.52443 3.24907 8.66732 3.24907C7.81021 3.24907 6.97235 3.50325 6.25971 3.97946C5.54707 4.45567 4.99166 5.13252 4.66372 5.92441C4.33578 6.7163 4.25004 7.58766 4.41735 8.42828C4.58465 9.2689 4.99749 10.041 5.60365 10.647L8.66732 13.7117L11.731 10.647Z" stroke="#B6BCCB" stroke-width="2" stroke-linecap="round" stroke-linejoin="round"/>
<path d="M8.66602 7.58333V7.59416" stroke="#B6BCCB" stroke-width="2" stroke-linecap="round" stroke-linejoin="round"/>
<path d="M20.397 19.3137C21.0032 18.7077 21.416 17.9356 21.5833 17.0949C21.7506 16.2543 21.6649 15.383 21.3369 14.5911C21.009 13.7992 20.4536 13.1223 19.7409 12.6461C19.0283 12.1699 18.1904 11.9157 17.3333 11.9157C16.4762 11.9157 15.6384 12.1699 14.9257 12.6461C14.2131 13.1223 13.6577 13.7992 13.3297 14.5911C13.0018 15.383 12.9161 16.2543 13.0834 17.0949C13.2507 17.9356 13.6635 18.7077 14.2697 19.3137L17.3333 22.3784L20.397 19.3137Z" stroke="#B6BCCB" stroke-width="2" stroke-linecap="round" stroke-linejoin="round"/>
<path d="M17.334 16.25V16.2608" stroke="#B6BCCB" stroke-width="2" stroke-linecap="round" stroke-linejoin="round"/>
</svg>
