<svg width="26" height="26" viewBox="0 0 26 26" fill="none" xmlns="http://www.w3.org/2000/svg">
<path d="M15.1667 8.66665V6.49998C15.1667 5.92534 14.9384 5.37424 14.5321 4.96791C14.1257 4.56159 13.5746 4.33331 13 4.33331H5.41667C4.84203 4.33331 4.29093 4.56159 3.8846 4.96791C3.47827 5.37424 3.25 5.92534 3.25 6.49998V19.5C3.25 20.0746 3.47827 20.6257 3.8846 21.032C4.29093 21.4384 4.84203 21.6666 5.41667 21.6666H13C13.5746 21.6666 14.1257 21.4384 14.5321 21.032C14.9384 20.6257 15.1667 20.0746 15.1667 19.5V17.3333" stroke="#B6BCCB" stroke-width="2" stroke-linecap="round" stroke-linejoin="round"/>
<path d="M7.5835 13H22.7502M22.7502 13L19.5002 9.75M22.7502 13L19.5002 16.25" stroke="#B6BCCB" stroke-width="2" stroke-linecap="round" stroke-linejoin="round"/>
</svg>
