<svg width="116" height="116" viewBox="0 0 116 116" fill="none" xmlns="http://www.w3.org/2000/svg">
<path d="M87 29V29.0483" stroke="#016BD4" stroke-width="6" stroke-linecap="round" stroke-linejoin="round"/>
<path d="M87 62.8333L70.0833 38.6667C68.4548 35.7233 67.6225 32.406 67.6685 29.0425C67.7145 25.679 68.6373 22.3857 70.3457 19.488C72.0541 16.5903 74.489 14.1885 77.4098 12.5199C80.3306 10.8513 83.6362 9.97363 87 9.97363C90.3638 9.97363 93.6694 10.8513 96.5902 12.5199C99.511 14.1885 101.946 16.5903 103.654 19.488C105.363 22.3857 106.286 25.679 106.332 29.0425C106.378 32.406 105.545 35.7233 103.917 38.6667L87 62.8333Z" stroke="#016BD4" stroke-width="6" stroke-linecap="round" stroke-linejoin="round"/>
<path d="M50.75 22.9583L43.5 19.3333L14.5 33.8333V96.6666L43.5 82.1666L72.5 96.6666L101.5 82.1666V72.5" stroke="#016BD4" stroke-width="6" stroke-linecap="round" stroke-linejoin="round"/>
<path d="M43.5 19.3333V82.1666" stroke="#016BD4" stroke-width="6" stroke-linecap="round" stroke-linejoin="round"/>
<path d="M72.5 72.5V96.6667" stroke="#016BD4" stroke-width="6" stroke-linecap="round" stroke-linejoin="round"/>
</svg>
