<svg width="34" height="34" viewBox="0 0 34 34" fill="none" xmlns="http://www.w3.org/2000/svg">
<path d="M25.5 5.6665H8.50002C6.93521 5.6665 5.66669 6.93503 5.66669 8.49984V25.4998C5.66669 27.0646 6.93521 28.3332 8.50002 28.3332H25.5C27.0648 28.3332 28.3334 27.0646 28.3334 25.4998V8.49984C28.3334 6.93503 27.0648 5.6665 25.5 5.6665Z" stroke="#1B1B1D" stroke-width="2" stroke-linecap="round" stroke-linejoin="round"/>
<path d="M12.75 22.6668V11.3335H18.4167C19.1681 11.3335 19.8888 11.632 20.4201 12.1634C20.9515 12.6947 21.25 13.4154 21.25 14.1668C21.25 14.9183 20.9515 15.6389 20.4201 16.1703C19.8888 16.7017 19.1681 17.0002 18.4167 17.0002H12.75" stroke="#1B1B1D" stroke-width="2" stroke-linecap="round" stroke-linejoin="round"/>
</svg>
