<svg width="42" height="42" viewBox="0 0 42 42" fill="none" xmlns="http://www.w3.org/2000/svg">
<path d="M18.2999 11.0167C18.7141 11.0167 19.0499 10.6809 19.0499 10.2667C19.0499 9.85251 18.7141 9.51672 18.2999 9.51672V11.0167ZM24.5999 9.51672C24.1857 9.51672 23.8499 9.85251 23.8499 10.2667C23.8499 10.6809 24.1857 11.0167 24.5999 11.0167V9.51672ZM24.5999 31.5667C24.1857 31.5667 23.8499 31.9025 23.8499 32.3167C23.8499 32.7309 24.1857 33.0667 24.5999 33.0667V31.5667ZM17.3999 33.0667C17.8141 33.0667 18.1499 32.7309 18.1499 32.3167C18.1499 31.9025 17.8141 31.5667 17.3999 31.5667V33.0667ZM10.9499 24.9667C10.9499 24.5525 10.6141 24.2167 10.1999 24.2167C9.78569 24.2167 9.4499 24.5525 9.4499 24.9667H10.9499ZM32.5499 24.9667C32.5499 24.5525 32.2141 24.2167 31.7999 24.2167C31.3857 24.2167 31.0499 24.5525 31.0499 24.9667H32.5499ZM8.3999 17.9167C7.98569 17.9167 7.6499 18.2525 7.6499 18.6667C7.6499 19.0809 7.98569 19.4167 8.3999 19.4167V17.9167ZM33.5999 19.4167C34.0141 19.4167 34.3499 19.0809 34.3499 18.6667C34.3499 18.2525 34.0141 17.9167 33.5999 17.9167V19.4167ZM16.4198 27.7734L16.0793 28.4416L16.0793 28.4416L16.4198 27.7734ZM15.0432 26.3968L15.7115 26.0563L15.7115 26.0563L15.0432 26.3968ZM26.9566 26.3968L27.6248 26.7373L27.6248 26.7373L26.9566 26.3968ZM25.58 27.7734L25.9205 28.4416L25.9205 28.4416L25.58 27.7734ZM25.58 14.8101L25.2395 15.4783L25.2395 15.4783L25.58 14.8101ZM26.9566 16.1867L27.6248 15.8462L27.6248 15.8462L26.9566 16.1867ZM16.4198 14.8101L16.0793 14.1418L16.0793 14.1418L16.4198 14.8101ZM15.0432 16.1867L14.375 15.8462L14.375 15.8462L15.0432 16.1867ZM27.287 22.7025L26.5462 22.8198L26.5462 22.8198L27.287 22.7025ZM26.4142 21.8297L26.5315 21.0889L26.5315 21.0889L26.4142 21.8297ZM14.7128 22.7025L15.4536 22.8198L15.4536 22.8198L14.7128 22.7025ZM15.5856 21.8297L15.4683 21.0889L15.4683 21.0889L15.5856 21.8297ZM31.0499 15.7792V17.6167H32.5499V15.7792H31.0499ZM10.9499 17.6167V15.7792H9.4499V17.6167H10.9499ZM15.5999 11.0167H18.2999V9.51672H15.5999V11.0167ZM24.5999 11.0167H26.3999V9.51672H24.5999V11.0167ZM26.3999 31.5667H24.5999V33.0667H26.3999V31.5667ZM17.3999 31.5667H15.5999V33.0667H17.3999V31.5667ZM10.9499 26.8042V24.9667H9.4499V26.8042H10.9499ZM31.0499 24.9667V26.8042H32.5499V24.9667H31.0499ZM15.5999 31.5667C13.0463 31.5667 10.9499 29.4491 10.9499 26.8042H9.4499C9.4499 30.2483 12.1888 33.0667 15.5999 33.0667V31.5667ZM26.3999 33.0667C29.811 33.0667 32.5499 30.2483 32.5499 26.8042H31.0499C31.0499 29.4491 28.9535 31.5667 26.3999 31.5667V33.0667ZM32.5499 15.7792C32.5499 12.3352 29.811 9.51672 26.3999 9.51672V11.0167C28.9535 11.0167 31.0499 13.1343 31.0499 15.7792H32.5499ZM10.9499 15.7792C10.9499 13.1343 13.0463 11.0167 15.5999 11.0167V9.51672C12.1888 9.51672 9.4499 12.3352 9.4499 15.7792H10.9499ZM8.3999 19.4167H33.5999V17.9167H8.3999V19.4167ZM19.7399 15.2167H22.2599V13.7167H19.7399V15.2167ZM22.2599 27.3667H19.7399V28.8667H22.2599V27.3667ZM19.7399 27.3667C18.8454 27.3667 18.2197 27.3661 17.7321 27.3263C17.2532 27.2872 16.9739 27.214 16.7603 27.1051L16.0793 28.4416C16.5396 28.6762 17.0383 28.7746 17.6099 28.8213C18.1728 28.8673 18.8702 28.8667 19.7399 28.8667V27.3667ZM13.9499 23.0767C13.9499 23.9464 13.9493 24.6438 13.9953 25.2067C14.042 25.7784 14.1405 26.277 14.375 26.7373L15.7115 26.0563C15.6027 25.8427 15.5295 25.5635 15.4903 25.0846C15.4505 24.5969 15.4499 23.9712 15.4499 23.0767H13.9499ZM16.7603 27.1051C16.3087 26.875 15.9416 26.5079 15.7115 26.0563L14.375 26.7373C14.7489 27.4711 15.3455 28.0677 16.0793 28.4416L16.7603 27.1051ZM26.5499 23.0767C26.5499 23.9712 26.5493 24.5969 26.5095 25.0846C26.4704 25.5635 26.3971 25.8427 26.2883 26.0563L27.6248 26.7373C27.8593 26.277 27.9578 25.7784 28.0045 25.2067C28.0505 24.6438 28.0499 23.9464 28.0499 23.0767H26.5499ZM22.2599 28.8667C23.1296 28.8667 23.827 28.8673 24.3899 28.8213C24.9615 28.7746 25.4602 28.6762 25.9205 28.4416L25.2395 27.1051C25.0259 27.214 24.7466 27.2872 24.2677 27.3263C23.7801 27.3661 23.1544 27.3667 22.2599 27.3667V28.8667ZM26.2883 26.0563C26.0582 26.5079 25.6911 26.875 25.2395 27.1051L25.9205 28.4416C26.6543 28.0677 27.2509 27.4711 27.6248 26.7373L26.2883 26.0563ZM22.2599 15.2167C23.1544 15.2167 23.7801 15.2173 24.2677 15.2571C24.7466 15.2963 25.0259 15.3695 25.2395 15.4783L25.9205 14.1418C25.4602 13.9073 24.9615 13.8088 24.3899 13.7621C23.827 13.7161 23.1296 13.7167 22.2599 13.7167V15.2167ZM25.2395 15.4783C25.6911 15.7084 26.0582 16.0756 26.2883 16.5271L27.6248 15.8462C27.2509 15.1123 26.6543 14.5157 25.9205 14.1418L25.2395 15.4783ZM19.7399 13.7167C18.8702 13.7167 18.1728 13.7161 17.6099 13.7621C17.0383 13.8088 16.5396 13.9073 16.0793 14.1418L16.7603 15.4783C16.9739 15.3695 17.2532 15.2963 17.7321 15.2571C18.2197 15.2173 18.8454 15.2167 19.7399 15.2167V13.7167ZM16.0793 14.1418C15.3455 14.5157 14.7489 15.1123 14.375 15.8462L15.7115 16.5271C15.9416 16.0756 16.3087 15.7084 16.7603 15.4783L16.0793 14.1418ZM15.9599 22.5667H26.0399V21.0667H15.9599V22.5667ZM15.4517 18.6719C15.4604 17.4159 15.5214 16.9002 15.7115 16.5271L14.375 15.8462C13.9972 16.5876 13.96 17.4712 13.9517 18.6615L15.4517 18.6719ZM28.0481 18.6615C28.0398 17.4712 28.0026 16.5876 27.6248 15.8462L26.2883 16.5271C26.4784 16.9002 26.5394 17.4159 26.5481 18.6719L28.0481 18.6615ZM28.0499 23.0767C28.0499 22.9103 28.0522 22.7398 28.0277 22.5851L26.5462 22.8198C26.5454 22.815 26.5474 22.8235 26.5486 22.8676C26.5498 22.9139 26.5499 22.9751 26.5499 23.0767H28.0499ZM26.0399 22.5667C26.1415 22.5667 26.2027 22.5668 26.249 22.5681C26.2931 22.5693 26.3016 22.5712 26.2968 22.5704L26.5315 21.0889C26.3769 21.0644 26.2063 21.0667 26.0399 21.0667V22.5667ZM28.0277 22.5851C27.9058 21.8149 27.3017 21.2109 26.5315 21.0889L26.2968 22.5704C26.4252 22.5907 26.5259 22.6914 26.5462 22.8198L28.0277 22.5851ZM15.4499 23.0767C15.4499 22.9751 15.45 22.9139 15.4512 22.8676C15.4524 22.8235 15.4544 22.815 15.4536 22.8198L13.9721 22.5851C13.9476 22.7398 13.9499 22.9103 13.9499 23.0767H15.4499ZM15.9599 21.0667C15.7935 21.0667 15.6229 21.0644 15.4683 21.0889L15.703 22.5704C15.6982 22.5712 15.7067 22.5693 15.7508 22.5681C15.7971 22.5668 15.8583 22.5667 15.9599 22.5667V21.0667ZM15.4536 22.8198C15.4739 22.6914 15.5746 22.5907 15.703 22.5704L15.4683 21.0889C14.6981 21.2109 14.0941 21.8149 13.9721 22.5851L15.4536 22.8198Z" fill="white"/>
</svg>
