<svg width="36" height="36" viewBox="0 0 36 36" fill="none" xmlns="http://www.w3.org/2000/svg">
<path d="M22.5 27C24.9853 27 27 24.9853 27 22.5C27 20.0147 24.9853 18 22.5 18C20.0147 18 18 20.0147 18 22.5C18 24.9853 20.0147 27 22.5 27Z" stroke="#016BD4" stroke-width="2" stroke-linecap="round" stroke-linejoin="round"/>
<path d="M19.5 26.25V33L22.5 30.75L25.5 33V26.25" stroke="#016BD4" stroke-width="2" stroke-linecap="round" stroke-linejoin="round"/>
<path d="M15 28.5H7.5C6.70435 28.5 5.94129 28.1839 5.37868 27.6213C4.81607 27.0587 4.5 26.2956 4.5 25.5V10.5C4.5 8.85 5.85 7.5 7.5 7.5H28.5C29.2956 7.5 30.0587 7.81607 30.6213 8.37868C31.1839 8.94129 31.5 9.70435 31.5 10.5V25.5C31.4995 26.0261 31.3606 26.5428 31.0973 26.9983C30.834 27.4537 30.4556 27.832 30 28.095" stroke="#016BD4" stroke-width="2" stroke-linecap="round" stroke-linejoin="round"/>
<path d="M9 13.5H27" stroke="#016BD4" stroke-width="2" stroke-linecap="round" stroke-linejoin="round"/>
<path d="M9 18H13.5" stroke="#016BD4" stroke-width="2" stroke-linecap="round" stroke-linejoin="round"/>
<path d="M9 22.5H12" stroke="#016BD4" stroke-width="2" stroke-linecap="round" stroke-linejoin="round"/>
</svg>
