<svg width="1013" height="990" viewBox="0 0 1013 990" fill="none" xmlns="http://www.w3.org/2000/svg">
<path d="M1103.22 1085.58C1194.15 966.028 1247.79 818.535 1254.91 668.493C1257.64 610.983 1253.51 552.368 1234.04 498.19C1214.56 444.018 1178.55 394.435 1128.32 366.315C1070.04 333.719 999.265 332.793 933.095 341.745C866.946 350.691 801.83 368.629 735.098 370.867C668.366 373.106 596.987 356.955 551.119 308.451C514.278 269.505 498.454 213.324 503.124 159.916C507.816 106.503 531.598 55.9354 564.644 13.7184C642.38 -85.5554 770.799 -138.829 896.887 -137.898C1022.97 -136.967 1145.62 -85.5477 1244.66 -7.54022C1343.7 70.4673 1420.51 173.881 1480.71 284.663C1554.1 419.669 1604.72 569.369 1609.52 722.963C1614.33 876.557 1570.65 1034.29 1472.87 1152.85C1351.62 1299.9 1163.69 1372.49 981.333 1427.93C929.717 1443.63 874.899 1458.53 822.503 1445.69C789.37 1437.58 751.065 1411.72 739.605 1377.93C727.472 1342.14 762.11 1336.62 788.928 1325.79C867.391 1294.15 940.377 1248.42 1003.75 1192.45C1040.3 1160.17 1073.72 1124.37 1103.22 1085.58Z" fill="url(#paint0_linear_1406_159)"/>
<path d="M980.908 1073.64C1014.43 968.215 1014.14 855.577 1021.42 745.18C1028.7 634.784 1045.5 520.436 1107.36 428.711C1142.07 377.221 1193.72 333.241 1255.21 324.609C1327.62 314.452 1399.87 356.074 1444.39 414.092C1488.91 472.109 1510.37 544.267 1526.93 615.495C1552.04 723.399 1568.03 835.964 1547.2 944.762C1515.08 1112.43 1397.31 1254.23 1255.84 1349.75C1114.37 1445.3 949.898 1500.3 786.259 1548.91C745.366 1561.06 703.779 1572.97 661.118 1573.64C604.904 1574.53 538.167 1551.39 517.666 1493.62C498.199 1438.74 559.89 1437.29 598.057 1427.95C710.445 1400.5 812.727 1334.1 886.31 1245.21C928.219 1194.59 960.973 1136.3 980.908 1073.64Z" fill="url(#paint1_linear_1406_159)"/>
<path d="M729.852 1245.25C748.634 1176.2 751.761 1103.87 766.276 1033.8C780.791 963.721 809.291 892.512 865.994 848.835C966.735 771.203 1127.3 800.694 1215.86 709.4C1257.97 665.991 1273.81 604.409 1294.53 547.586C1315.26 490.763 1347.47 431.4 1404.2 410.386C1451.73 392.771 1507.07 407.523 1546.92 438.87C1586.78 470.189 1613.01 515.9 1631.37 563.139C1698.13 734.847 1668.4 934.791 1577.96 1095.3C1487.52 1255.81 1341.8 1379.72 1181.47 1470.49C1021.17 1561.26 845.6 1621.38 670.395 1678.31C631.588 1690.93 592.119 1703.51 551.336 1705.01C510.553 1706.5 467.591 1695.51 438.673 1666.7C418.199 1646.32 395.832 1601.79 419.929 1576.79C439.187 1556.83 481.761 1548.95 505.893 1534.8C574.99 1494.34 633.852 1436.59 675.965 1368.53C699.637 1330.27 718.028 1288.69 729.852 1245.25Z" fill="url(#paint2_linear_1406_159)"/>
<path opacity="0.55" d="M1331.41 788.891C1296.96 751.36 1251.77 725.343 1215.12 689.917C1142.3 619.52 1108.19 511.368 1127.42 411.941C1138.82 353.064 1167.29 298.534 1178.39 239.598C1189.49 180.661 1177.68 110.425 1127.06 78.2746C1081.99 49.6577 1022.06 61.0485 973.912 84.1277C925.769 107.207 882.48 140.822 831.622 156.994C780.742 173.172 716.332 166.127 686.729 121.692C659.977 81.537 671.67 26.4579 695.824 -15.3143C741.708 -94.6602 828.021 -146.761 918.725 -159.999C1009.43 -173.236 1103.33 -149.861 1182.77 -104.164C1262.23 -58.4735 1327.97 8.51936 1381.03 83.2742C1481.8 225.232 1538.82 397.755 1542.49 571.778C1543.94 640.798 1536.92 711.154 1510.1 774.748C1489.38 823.863 1451.68 880.332 1402.32 904.788C1366.41 922.58 1378.1 895.284 1373.25 868.474C1367.91 838.762 1351.63 810.93 1331.41 788.891Z" fill="url(#paint3_linear_1406_159)"/>
<g opacity="0.54">
<path opacity="0.54" d="M1723.13 378.166C1761.74 408.138 1759.85 470.935 1730.97 510.353C1702.11 549.792 1654.57 570.585 1608.15 585.895C1561.73 601.226 1513.05 613.385 1473.32 641.842C1391.12 700.755 1368.78 811.569 1355.63 911.84C1342.48 1012.11 1327.41 1122.21 1252.23 1189.87C1193.27 1242.9 1110.11 1257.46 1039.03 1292.61C914.947 1353.97 828.461 1485.24 821.099 1623.49" stroke="url(#paint4_linear_1406_159)" stroke-width="0.8669" stroke-miterlimit="10"/>
<path opacity="0.54" d="M1714.81 367.929C1753.4 397.836 1751.86 460.397 1723.47 500.036C1720.94 503.585 1718.23 506.973 1715.42 510.248C1686.64 543.455 1643.82 562.374 1601.85 576.751C1593.74 579.529 1585.57 582.21 1577.39 584.891C1538.99 597.468 1500.36 610.202 1467.78 633.801C1457.22 641.44 1447.65 649.96 1438.96 659.197C1380.34 721.483 1362.23 816.684 1351.47 903.99C1350.7 910.337 1349.91 916.712 1349.1 923.115C1337.17 1017.9 1320.25 1117.36 1253.14 1182.46C1233.94 1201.07 1212.26 1216.13 1188.11 1228.34C1159.59 1242.78 1128.28 1253.06 1097.67 1263.48C1076.76 1270.6 1056.08 1277.84 1036.21 1286.69C1026.86 1290.86 1017.69 1295.41 1008.73 1300.38C951.644 1332 903.257 1380.31 869.249 1436.89C835.161 1493.6 815.208 1558.46 812.283 1624.57" stroke="url(#paint5_linear_1406_159)" stroke-width="0.8669" stroke-miterlimit="10"/>
<path opacity="0.54" d="M1706.48 357.692C1745.09 387.549 1743.9 449.853 1715.99 489.714C1713.49 493.279 1710.83 496.698 1708.05 499.989C1679.67 533.413 1637.23 552.77 1595.52 567.612C1587.46 570.472 1579.35 573.229 1571.22 575.991C1533.07 588.946 1494.61 602.005 1462.22 625.744C1451.72 633.436 1442.17 641.972 1433.52 651.247C1375.12 713.775 1357.34 808.868 1347.26 896.128C1346.53 902.464 1345.79 908.849 1345.05 915.235C1333.95 1009.91 1317.83 1108.32 1253.95 1175.03C1235.29 1194.52 1214.43 1211.16 1189.95 1224.23C1161.01 1239.69 1128.39 1249.78 1096.79 1259.44C1075.24 1266.03 1053.92 1272.54 1033.35 1280.76C1023.68 1284.63 1014.2 1288.9 1004.87 1293.66C945.54 1323.94 894.873 1373.59 860.146 1432.02C825.334 1490.56 805.9 1557.61 803.494 1625.66" stroke="url(#paint6_linear_1406_159)" stroke-width="0.8669" stroke-miterlimit="10"/>
<path opacity="0.54" d="M1698.18 347.449C1736.77 377.242 1735.96 439.304 1708.5 479.37C1706.05 482.945 1703.45 486.397 1700.69 489.703C1672.71 523.373 1630.67 543.16 1589.21 558.447C1581.22 561.382 1573.14 564.247 1565.08 567.085C1527.16 580.419 1488.91 593.798 1456.67 617.681C1446.23 625.406 1436.73 633.973 1428.11 643.265C1369.96 706.007 1352.47 800.996 1343.09 888.234C1342.41 894.58 1341.74 900.948 1341.04 907.321C1330.78 1001.92 1315.45 1099.34 1254.82 1167.58C1236.69 1187.99 1216.66 1206.15 1191.82 1220.09C1162.46 1236.59 1128.53 1246.48 1095.95 1255.35C1073.72 1261.42 1051.77 1267.16 1030.53 1274.77C1020.54 1278.33 1010.71 1282.34 1001.05 1286.89C939.468 1315.84 886.515 1366.8 851.07 1427.07C815.54 1487.47 796.617 1556.69 794.71 1626.68" stroke="url(#paint7_linear_1406_159)" stroke-width="0.8669" stroke-miterlimit="10"/>
<path opacity="0.54" d="M1689.85 337.19C1728.43 366.939 1727.97 428.744 1701.01 469.026C1698.6 472.639 1696.04 476.079 1693.34 479.417C1665.77 513.326 1624.09 533.528 1582.9 549.259C1574.96 552.297 1566.94 555.216 1558.9 558.141C1521.23 571.854 1483.16 585.579 1451.07 609.586C1440.69 617.365 1431.22 625.948 1422.65 635.271C1364.72 698.234 1347.59 793.13 1338.85 880.335C1338.22 886.669 1337.59 893.047 1336.96 899.425C1327.54 993.912 1313.06 1090.5 1255.63 1160.13C1238.04 1181.46 1218.81 1201.16 1193.63 1215.94C1163.83 1233.49 1128.6 1243.17 1095.05 1251.27C1072.16 1256.8 1049.57 1261.82 1027.63 1268.8C1017.32 1272.07 1007.15 1275.83 997.121 1280.15C933.282 1307.74 878.054 1360.05 841.885 1422.16C805.631 1484.38 787.227 1555.8 785.817 1627.73" stroke="url(#paint8_linear_1406_159)" stroke-width="0.8669" stroke-miterlimit="10"/>
<path opacity="0.54" d="M1681.53 326.953C1720.11 356.631 1720.02 418.222 1693.53 458.704C1691.16 462.327 1688.64 465.804 1685.97 469.159C1658.81 503.307 1617.5 523.924 1576.58 540.121C1568.68 543.24 1560.71 546.241 1552.73 549.241C1515.3 563.333 1477.41 577.383 1445.5 601.53C1435.18 609.34 1425.76 617.955 1417.21 627.322C1359.5 690.527 1342.69 785.292 1334.64 872.474C1334.06 878.819 1333.49 885.157 1332.91 891.545C1324.33 985.925 1310.74 1081.78 1256.46 1152.71C1239.39 1175 1221 1196.18 1195.5 1211.84C1165.27 1230.42 1128.73 1239.91 1094.18 1247.25C1070.61 1252.26 1047.39 1256.55 1024.78 1262.88C1014.14 1265.87 1003.66 1269.34 993.271 1273.45C927.184 1299.7 869.67 1353.33 832.783 1417.29C795.831 1481.35 777.918 1554.95 777.006 1628.83" stroke="url(#paint9_linear_1406_159)" stroke-width="0.8669" stroke-miterlimit="10"/>
<path opacity="0.54" d="M1673.21 316.716C1711.78 346.35 1712.05 407.678 1686.03 448.387C1683.71 452.02 1681.22 455.536 1678.6 458.9C1651.83 493.271 1610.92 514.341 1570.27 530.954C1562.42 534.155 1554.51 537.253 1546.59 540.335C1509.39 554.784 1471.71 569.175 1439.96 593.467C1429.69 601.331 1420.31 609.983 1411.81 619.36C1354.32 682.786 1337.83 777.463 1330.48 864.601C1329.94 870.934 1329.42 877.283 1328.91 883.653C1321.16 977.926 1308.5 1073.16 1257.34 1145.26C1240.81 1168.53 1223.23 1191.19 1197.37 1207.7C1166.73 1227.32 1128.87 1236.6 1093.34 1243.16C1069.12 1247.64 1045.25 1251.19 1021.96 1256.89C1011.01 1259.57 1000.17 1262.78 989.427 1266.68C921.091 1291.6 861.296 1346.56 823.684 1412.35C786.009 1478.24 768.614 1554.04 768.2 1629.86" stroke="url(#paint10_linear_1406_159)" stroke-width="0.8669" stroke-miterlimit="10"/>
<path opacity="0.54" d="M1664.91 306.473C1703.48 336.036 1704.09 397.134 1678.56 438.037C1676.27 441.686 1673.83 445.212 1671.24 448.614C1644.89 483.224 1604.35 504.709 1563.96 521.789C1556.18 525.065 1548.3 528.25 1540.43 531.407C1503.46 546.241 1465.99 560.973 1434.41 585.382C1424.19 593.278 1414.85 601.969 1406.4 611.377C1349.14 675.024 1332.97 769.591 1326.31 856.707C1325.84 863.044 1325.36 869.381 1324.9 875.74C1317.98 969.905 1306.35 1064.61 1258.21 1137.81C1242.24 1162.1 1225.46 1186.18 1199.26 1203.57C1168.19 1224.25 1129.02 1233.32 1092.51 1239.11C1067.61 1243.07 1043.13 1245.87 1019.13 1250.95C1007.84 1253.34 996.696 1256.26 985.594 1259.96C915.003 1283.52 852.928 1339.82 814.598 1407.45C776.204 1475.2 759.322 1553.17 759.427 1630.93" stroke="url(#paint11_linear_1406_159)" stroke-width="0.8669" stroke-miterlimit="10"/>
<path opacity="0.54" d="M1656.58 296.215C1695.13 325.712 1696.13 386.568 1671.05 427.699C1668.82 431.38 1666.4 434.922 1663.86 438.334C1637.9 473.189 1597.78 495.1 1557.63 512.629C1549.9 516.008 1542.08 519.268 1534.27 522.507C1497.53 537.72 1460.25 552.777 1428.84 577.325C1418.66 585.259 1409.39 593.976 1400.95 603.406C1343.94 667.289 1328.07 761.753 1322.1 848.824C1321.67 855.15 1321.24 861.497 1320.85 867.86C1314.79 961.913 1304.2 1056.15 1259.05 1130.38C1243.63 1155.7 1227.63 1181.21 1201.11 1199.43C1169.62 1221.13 1129.14 1230.02 1091.66 1235.04C1066.1 1238.48 1040.97 1240.52 1016.29 1244.96C1004.69 1247.07 993.189 1249.71 981.749 1253.19C908.909 1275.42 844.576 1333.04 805.5 1402.51C766.382 1472.08 750.024 1552.27 750.62 1631.96" stroke="url(#paint12_linear_1406_159)" stroke-width="0.8669" stroke-miterlimit="10"/>
<path opacity="0.54" d="M1648.25 285.978C1686.82 315.426 1688.14 376.03 1663.57 417.377C1661.36 421.074 1659.01 424.647 1656.51 428.07C1630.96 463.142 1591.21 485.49 1551.32 503.463C1543.63 506.924 1535.87 510.265 1528.09 513.585C1491.6 529.176 1454.52 544.554 1423.26 569.247C1413.15 577.234 1403.91 585.966 1395.52 595.429C1338.73 659.532 1323.18 753.887 1317.88 840.942C1317.5 847.255 1317.15 853.607 1316.79 859.958C1311.57 953.904 1302.12 1047.77 1259.87 1122.92C1245.04 1149.3 1229.82 1176.22 1202.95 1195.3C1171.03 1218.04 1129.24 1226.75 1090.76 1230.99C1064.52 1233.88 1038.77 1235.2 1013.39 1239.02C1001.47 1240.81 989.622 1243.19 977.823 1246.47C902.729 1267.34 836.115 1326.3 796.32 1397.62C756.479 1469.02 740.617 1551.41 741.733 1633.03" stroke="url(#paint13_linear_1406_159)" stroke-width="0.8669" stroke-miterlimit="10"/>
<path opacity="0.54" d="M1639.93 275.74C1678.48 305.123 1680.19 365.508 1656.08 407.033C1653.92 410.74 1651.62 414.323 1649.14 417.789C1623.98 453.107 1584.62 475.885 1544.99 494.303C1537.37 497.839 1529.65 501.262 1521.92 504.663C1485.67 520.611 1448.77 536.357 1417.69 561.168C1407.63 569.187 1398.45 577.951 1390.09 587.451C1333.52 651.775 1318.29 746.021 1313.69 833.053C1313.36 839.376 1313.05 845.716 1312.76 852.05C1308.37 945.889 1300.12 1039.45 1260.73 1115.47C1246.49 1142.94 1232.03 1171.21 1204.8 1191.16C1172.47 1214.95 1129.36 1223.44 1089.9 1226.9C1062.98 1229.28 1036.62 1229.85 1010.55 1233.03C998.3 1234.54 986.137 1236.63 973.979 1239.7C896.636 1259.23 827.741 1319.53 787.229 1392.7C746.668 1465.95 731.319 1550.51 732.933 1634.08" stroke="url(#paint14_linear_1406_159)" stroke-width="0.8669" stroke-miterlimit="10"/>
<path opacity="0.54" d="M1631.63 265.498C1670.19 294.831 1672.25 354.958 1648.6 396.711C1646.5 400.449 1644.22 404.049 1641.79 407.525C1617.04 443.082 1578.06 466.275 1538.71 485.131C1531.13 488.748 1523.46 492.274 1515.8 495.751C1479.78 512.078 1443.07 528.149 1412.15 553.105C1402.15 561.178 1392.99 569.958 1384.66 579.496C1328.33 644.062 1313.44 738.192 1309.51 825.186C1309.21 831.498 1308.98 837.842 1308.74 844.186C1305.18 937.918 1298.22 1031.21 1261.59 1108.05C1247.97 1136.61 1234.25 1166.25 1206.69 1187.06C1173.93 1211.87 1129.51 1220.18 1089.07 1222.87C1061.51 1224.72 1034.5 1224.56 1007.75 1227.1C995.182 1228.3 982.669 1230.14 970.153 1233C890.561 1251.2 819.385 1312.83 778.149 1387.82C736.865 1462.9 722.034 1549.66 724.145 1635.18" stroke="url(#paint15_linear_1406_159)" stroke-width="0.8669" stroke-miterlimit="10"/>
<path opacity="0.54" d="M1623.3 255.239C1661.84 284.507 1664.26 344.398 1641.11 386.367C1639.04 390.121 1636.81 393.753 1634.42 397.267C1610.08 433.063 1571.47 456.693 1532.38 475.993C1524.86 479.713 1517.25 483.293 1509.63 486.851C1473.86 503.557 1437.35 519.947 1406.58 545.048C1396.63 553.153 1387.52 561.993 1379.24 571.541C1323.13 636.327 1308.56 730.348 1305.32 817.319C1305.08 823.641 1304.88 829.974 1304.71 836.3C1302 929.946 1296.4 1023.01 1262.45 1100.63C1249.46 1130.31 1236.44 1161.27 1208.56 1182.94C1175.38 1208.8 1129.64 1216.9 1088.2 1218.83C1059.96 1220.16 1032.3 1219.24 1004.87 1221.17C991.975 1222.09 979.13 1223.64 966.276 1226.29C884.429 1243.13 810.973 1306.09 769.018 1382.94C727.016 1459.87 712.697 1548.8 715.328 1636.26" stroke="url(#paint16_linear_1406_159)" stroke-width="0.8669" stroke-miterlimit="10"/>
<path opacity="0.54" d="M1614.98 245.002C1653.53 274.221 1656.3 333.854 1633.61 376.05C1631.58 379.815 1629.39 383.462 1627.04 387.008C1603.1 423.027 1564.89 447.088 1526.05 466.833C1518.57 470.634 1511.03 474.311 1503.46 477.929C1467.93 495.014 1431.6 511.751 1401.01 536.969C1391.12 545.106 1382.05 553.978 1373.81 563.563C1317.94 628.565 1303.68 722.504 1301.13 809.43C1300.95 815.735 1300.81 822.077 1300.68 828.392C1298.8 921.932 1294.62 1014.8 1263.27 1093.17C1250.96 1123.97 1238.63 1156.28 1210.39 1178.81C1176.79 1205.72 1129.74 1213.61 1087.32 1214.75C1058.42 1215.54 1030.12 1213.89 1002.01 1215.19C988.801 1215.82 975.628 1217.1 962.409 1219.52C878.314 1235.03 802.578 1299.33 759.899 1378.01C717.172 1456.76 703.372 1547.89 706.5 1637.29" stroke="url(#paint17_linear_1406_159)" stroke-width="0.8669" stroke-miterlimit="10"/>
<path opacity="0.54" d="M1606.68 234.759C1645.21 263.913 1648.36 323.304 1626.14 365.7C1624.17 369.475 1622 373.16 1619.71 376.716C1596.18 412.975 1558.34 437.472 1519.76 457.661C1512.35 461.538 1504.84 465.302 1497.31 469.023C1462 486.471 1425.88 503.549 1395.46 528.906C1385.63 537.097 1376.6 545.984 1368.38 555.586C1312.74 620.808 1298.8 714.638 1296.92 801.548C1296.79 807.862 1296.69 814.193 1296.62 820.49C1295.58 913.923 1292.88 1006.66 1264.11 1085.74C1252.47 1117.69 1240.81 1151.28 1212.25 1174.67C1178.22 1202.6 1129.88 1210.3 1086.46 1210.68C1056.88 1210.95 1027.97 1208.56 999.155 1209.24C985.627 1209.54 972.106 1210.58 958.527 1212.79C872.183 1226.96 794.161 1292.58 750.763 1373.1C707.318 1453.71 694.031 1547.01 697.657 1638.35" stroke="url(#paint18_linear_1406_159)" stroke-width="0.8669" stroke-miterlimit="10"/>
<path opacity="0.54" d="M1598.36 224.522C1636.9 253.626 1640.37 312.766 1618.66 355.378C1616.72 359.191 1614.6 362.886 1612.34 366.458C1589.2 402.961 1551.75 427.868 1513.46 448.517C1506.09 452.475 1498.65 456.315 1491.17 460.117C1456.09 477.943 1420.18 495.341 1389.91 520.844C1380.14 529.066 1371.16 537.985 1362.98 547.625C1307.56 613.089 1293.94 706.81 1292.75 793.675C1292.67 799.978 1292.63 806.291 1292.62 812.62C1292.41 905.946 1291.29 998.559 1264.99 1078.31C1254.08 1111.4 1243.05 1146.31 1214.13 1170.57C1179.69 1199.55 1130.03 1207.04 1085.64 1206.65C1055.41 1206.4 1025.85 1203.27 996.353 1203.31C982.492 1203.33 968.659 1204.08 954.722 1206.08C866.123 1218.9 785.826 1285.87 741.705 1368.22C697.535 1450.66 684.766 1546.16 688.89 1639.44" stroke="url(#paint19_linear_1406_159)" stroke-width="0.8669" stroke-miterlimit="10"/>
<path opacity="0.54" d="M1590.03 214.264C1628.55 243.302 1632.41 302.223 1611.15 345.04C1609.26 348.863 1607.19 352.568 1604.96 356.178C1582.24 392.921 1545.16 418.242 1507.13 439.335C1499.81 443.397 1492.41 447.318 1485 451.195C1450.16 469.4 1414.43 487.145 1384.34 512.765C1374.63 521.041 1365.68 529.977 1357.55 539.648C1302.36 605.333 1289.06 698.944 1288.56 785.786C1288.52 792.1 1288.53 798.401 1288.59 804.713C1289.22 897.931 1289.69 990.419 1265.84 1070.87C1255.68 1105.11 1245.24 1141.31 1215.99 1166.43C1181.13 1196.45 1130.15 1203.74 1084.76 1202.59C1053.85 1201.82 1023.67 1197.93 993.496 1197.35C979.317 1197.06 965.136 1197.55 950.861 1199.34C860.014 1210.82 777.43 1279.11 732.59 1363.31C687.703 1447.59 675.446 1545.27 680.068 1640.5" stroke="url(#paint20_linear_1406_159)" stroke-width="0.8669" stroke-miterlimit="10"/>
<path opacity="0.54" d="M1581.7 204.026C1620.22 233.022 1624.45 291.679 1603.67 334.696C1601.8 338.535 1599.79 342.272 1597.58 345.897C1575.27 382.858 1538.57 408.638 1500.8 430.175C1493.52 434.318 1486.19 438.314 1478.82 442.273C1444.23 460.857 1408.68 478.927 1378.77 504.686C1369.11 512.994 1360.19 521.967 1352.1 531.676C1297.13 597.582 1284.15 691.084 1284.35 777.904C1284.35 784.205 1284.43 790.511 1284.53 796.811C1286 889.922 1288.17 982.283 1266.67 1063.41C1257.29 1098.81 1247.42 1136.31 1217.84 1162.27C1182.55 1193.32 1130.26 1200.42 1083.89 1198.48C1052.33 1197.18 1021.51 1192.55 990.626 1191.35C976.115 1190.78 961.601 1190.98 946.967 1192.56C853.865 1202.69 769.006 1272.33 723.443 1358.36C677.831 1444.47 666.093 1544.34 671.234 1641.51" stroke="url(#paint21_linear_1406_159)" stroke-width="0.8669" stroke-miterlimit="10"/>
<path opacity="0.54" d="M1573.4 193.784C1611.92 222.708 1616.49 281.135 1596.18 324.374C1594.37 328.244 1592.39 331.997 1590.24 335.633C1568.31 372.838 1532 399.028 1494.49 421.009C1487.28 425.228 1479.98 429.333 1472.67 433.345C1438.32 452.308 1402.98 470.697 1373.19 496.608C1363.59 504.947 1354.73 513.974 1346.67 523.699C1291.95 589.841 1279.27 683.239 1280.16 770.015C1280.21 776.327 1280.33 782.621 1280.5 788.903C1282.8 881.907 1286.7 974.179 1267.52 1055.96C1258.95 1092.53 1249.63 1131.31 1219.7 1158.15C1183.99 1190.25 1130.4 1197.16 1083.04 1194.44C1050.8 1192.6 1019.34 1187.25 987.791 1185.39C972.969 1184.52 958.121 1184.44 943.128 1185.82C847.755 1194.61 760.632 1265.56 714.356 1353.46C668.02 1441.4 656.8 1543.47 662.439 1642.58" stroke="url(#paint22_linear_1406_159)" stroke-width="0.8669" stroke-miterlimit="10"/>
<path opacity="0.54" d="M1565.08 183.546C1603.59 212.427 1608.53 270.59 1588.7 314.051C1586.94 317.932 1584.99 321.701 1582.89 325.368C1561.38 362.813 1525.44 389.439 1488.19 411.865C1481.03 416.164 1473.79 420.345 1466.51 424.466C1432.4 443.787 1397.24 462.544 1367.64 488.594C1358.1 496.987 1349.27 506.03 1341.25 515.765C1286.75 582.128 1274.42 675.411 1275.95 762.175C1276.08 768.47 1276.23 774.78 1276.44 781.072C1279.57 873.969 1285.26 966.112 1268.34 1048.58C1260.61 1086.3 1251.81 1126.38 1221.53 1154.06C1185.4 1187.21 1130.48 1193.91 1082.16 1190.43C1049.23 1188.07 1017.16 1181.98 984.925 1179.48C969.764 1178.31 954.589 1177.96 939.237 1179.13C841.615 1186.59 752.212 1258.87 705.211 1348.61C658.157 1438.4 647.428 1542.64 653.586 1643.69" stroke="url(#paint23_linear_1406_159)" stroke-width="0.8669" stroke-miterlimit="10"/>
<path opacity="0.54" d="M1556.75 173.288C1595.26 202.097 1600.56 260.025 1581.21 303.707C1579.48 307.604 1577.58 311.405 1575.51 315.088C1554.39 352.756 1518.84 379.813 1481.88 402.699C1474.77 407.102 1467.57 411.342 1460.36 415.539C1426.49 435.238 1391.51 454.321 1362.09 480.509C1352.6 488.934 1343.83 498.009 1335.85 507.782C1281.57 574.365 1269.56 667.561 1271.78 754.281C1271.96 760.585 1272.17 766.878 1272.43 773.159C1276.42 865.943 1283.91 957.952 1269.21 1041.11C1262.33 1079.98 1254.02 1121.36 1223.43 1149.91C1186.87 1184.08 1130.65 1190.6 1081.31 1186.33C1047.74 1183.45 1015.02 1176.62 982.082 1173.49C966.61 1172.03 951.081 1171.41 935.392 1172.37C835.515 1178.47 743.831 1252.08 696.112 1343.67C648.334 1435.29 638.129 1541.75 644.779 1644.72" stroke="url(#paint24_linear_1406_159)" stroke-width="0.8669" stroke-miterlimit="10"/>
<path opacity="0.54" d="M1548.43 163.051C1586.93 191.816 1592.58 249.509 1573.7 293.369C1572.02 297.276 1570.15 301.114 1568.13 304.808C1547.42 342.715 1512.25 370.209 1475.54 393.517C1468.48 398.001 1461.35 402.339 1454.19 406.617C1420.53 426.7 1385.78 446.097 1356.51 472.431C1347.09 480.909 1338.34 490 1330.39 499.811C1276.35 566.636 1264.65 659.701 1267.57 746.398C1267.79 752.691 1268.05 758.993 1268.38 765.257C1273.21 857.956 1282.57 949.813 1270.05 1033.67C1264.06 1073.7 1256.21 1116.38 1225.26 1145.78C1188.28 1180.99 1130.74 1187.31 1080.44 1182.27C1046.19 1178.87 1012.84 1171.27 979.226 1167.53C963.442 1165.78 947.58 1164.88 931.532 1165.63C829.406 1170.39 735.464 1245.34 686.999 1338.75C638.503 1432.22 628.81 1540.86 635.958 1645.78" stroke="url(#paint25_linear_1406_159)" stroke-width="0.8669" stroke-miterlimit="10"/>
<path opacity="0.54" d="M1540.13 152.808C1578.63 181.502 1584.64 238.959 1566.24 283.041C1564.59 286.986 1562.77 290.813 1560.8 294.538C1540.51 332.684 1505.71 360.593 1469.26 384.367C1462.26 388.927 1455.16 393.351 1448.06 397.705C1414.65 418.167 1380.08 437.889 1350.99 464.362C1341.62 472.873 1332.91 482.001 1325.01 491.844C1271.19 558.89 1259.82 651.867 1263.43 738.52C1263.69 744.822 1264.02 751.108 1264.39 757.359C1270.06 849.951 1281.36 941.639 1270.94 1026.21C1265.86 1067.38 1258.46 1111.37 1227.16 1141.65C1189.75 1177.92 1130.91 1184.02 1079.63 1178.22C1044.72 1174.26 1010.74 1165.95 976.418 1161.58C960.295 1159.53 944.105 1158.36 927.698 1158.9C823.324 1162.33 727.095 1238.59 677.912 1333.86C628.692 1429.16 619.517 1539.99 627.184 1646.85" stroke="url(#paint26_linear_1406_159)" stroke-width="0.8669" stroke-miterlimit="10"/>
<path opacity="0.54" d="M1531.8 142.571C1570.3 171.222 1576.68 228.415 1558.74 272.725C1557.14 276.679 1555.37 280.538 1553.41 284.285C1533.51 322.676 1499.1 351.017 1462.91 375.213C1455.96 379.854 1448.93 384.376 1441.87 388.788C1408.69 409.608 1374.32 429.699 1345.39 456.289C1336.09 464.853 1327.42 473.992 1319.56 483.872C1265.98 551.133 1254.91 644.006 1259.22 730.637C1259.52 736.928 1259.9 743.223 1260.34 749.479C1266.84 841.964 1280.08 933.46 1271.78 1018.8C1267.66 1061.11 1260.66 1106.41 1229.03 1137.53C1191.18 1174.82 1131.04 1180.74 1078.76 1174.18C1043.17 1169.71 1008.57 1160.65 973.566 1155.65C957.133 1153.3 940.616 1151.87 923.844 1152.18C817.215 1154.26 718.711 1231.87 668.804 1328.97C618.887 1426.11 610.204 1539.12 618.368 1647.92" stroke="url(#paint27_linear_1406_159)" stroke-width="0.8669" stroke-miterlimit="10"/>
<path opacity="0.54" d="M1523.48 132.312C1561.97 160.892 1568.69 217.855 1551.25 262.359C1549.7 266.324 1547.96 270.22 1546.05 273.978C1526.56 312.586 1492.53 341.363 1456.62 366.02C1449.71 370.742 1442.73 375.345 1435.72 379.861C1402.78 401.059 1368.61 421.469 1339.84 448.205C1330.59 456.801 1321.96 465.977 1314.13 475.895C1260.78 543.398 1250.03 636.14 1255.02 722.748C1255.38 729.049 1255.83 735.327 1256.31 741.572C1263.65 833.949 1278.88 925.237 1272.61 1011.34C1269.44 1054.77 1262.82 1101.42 1230.86 1133.4C1192.6 1171.74 1131.14 1177.44 1077.88 1170.1C1041.63 1165.1 1006.39 1155.3 970.704 1149.67C953.931 1147.02 937.087 1145.32 919.956 1145.43C811.079 1146.17 710.289 1225.1 659.663 1324.04C609.022 1423.01 600.857 1538.22 609.519 1648.97" stroke="url(#paint28_linear_1406_159)" stroke-width="0.8669" stroke-miterlimit="10"/>
<path opacity="0.54" d="M1515.15 122.075C1553.64 150.612 1560.73 207.311 1543.74 252.043C1542.22 256.045 1540.53 259.93 1538.66 263.747C1519.56 302.6 1485.93 331.808 1450.28 356.909C1443.44 361.728 1436.5 366.391 1429.54 370.988C1396.84 392.565 1362.85 413.301 1334.24 440.181C1325.04 448.809 1316.47 458.039 1308.67 467.951C1255.54 535.675 1245.11 628.33 1250.77 714.899C1251.17 721.188 1251.66 727.454 1252.22 733.703C1260.39 825.974 1277.64 917.025 1273.4 1003.94C1271.24 1048.5 1264.97 1096.45 1232.66 1129.3C1193.97 1168.68 1131.2 1174.18 1076.96 1166.07C1040.04 1160.55 1004.15 1150 967.786 1143.75C950.703 1140.81 933.504 1138.83 916.036 1138.73C804.904 1138.11 701.839 1218.39 650.473 1319.19C599.108 1419.99 591.461 1537.4 600.621 1650.09" stroke="url(#paint29_linear_1406_159)" stroke-width="0.8669" stroke-miterlimit="10"/>
<path opacity="0.54" d="M1506.85 111.832C1545.34 140.297 1552.78 196.789 1536.28 241.714C1534.81 245.727 1533.16 249.65 1531.33 253.477C1512.65 292.569 1479.38 322.192 1443.99 347.737C1437.2 352.638 1430.31 357.403 1423.41 362.054C1390.95 384.011 1357.15 405.093 1328.71 432.091C1319.57 440.772 1311.03 450.018 1303.28 459.962C1250.37 527.906 1240.27 620.452 1246.62 706.998C1247.1 713.292 1247.63 719.547 1248.23 725.805C1257.24 817.969 1276.52 908.757 1274.3 996.482C1273.14 1042.16 1267.23 1091.46 1234.58 1125.16C1195.47 1165.57 1131.39 1170.89 1076.17 1162.01C1038.6 1155.96 1002.07 1144.67 965.023 1137.79C947.628 1134.56 930.096 1132.3 912.269 1131.99C798.888 1130.03 693.542 1211.65 641.453 1314.28C589.369 1416.93 582.235 1536.51 591.892 1651.14" stroke="url(#paint30_linear_1406_159)" stroke-width="0.8669" stroke-miterlimit="10"/>
<path opacity="0.54" d="M1498.53 101.595C1537.01 130.017 1544.81 186.245 1528.8 231.392C1527.36 235.421 1525.76 239.375 1523.98 243.212C1505.69 282.528 1472.81 312.582 1437.69 338.593C1430.95 343.575 1424.12 348.416 1417.27 353.17C1385.06 375.505 1351.45 396.907 1323.17 424.05C1314.09 432.763 1305.58 442.047 1297.86 452.029C1245.18 520.193 1235.42 612.645 1242.44 699.153C1242.96 705.436 1243.54 711.7 1244.21 717.941C1254.05 809.998 1275.4 900.488 1275.16 989.082C1275.04 1035.85 1269.42 1086.5 1236.45 1121.07C1196.92 1162.52 1131.52 1167.65 1075.3 1157.97C1037.05 1151.38 999.905 1139.37 962.149 1131.86C944.415 1128.32 926.556 1125.8 908.37 1125.28C792.74 1121.99 685.108 1204.92 632.301 1309.4C579.493 1413.88 572.876 1535.65 583.032 1652.23" stroke="url(#paint31_linear_1406_159)" stroke-width="0.8669" stroke-miterlimit="10"/>
<path opacity="0.54" d="M1490.2 91.3367C1528.68 119.687 1536.85 175.679 1521.29 221.032C1519.89 225.071 1518.32 229.041 1516.58 232.916C1498.7 272.471 1466.2 302.962 1431.32 329.395C1424.63 334.458 1417.85 339.403 1411.06 344.21C1379.06 366.908 1345.67 388.651 1317.56 415.933C1308.54 424.701 1300.08 433.995 1292.4 444.014C1239.96 512.415 1230.5 604.742 1238.22 691.227C1238.78 697.519 1239.43 703.766 1240.14 709.996C1250.82 801.945 1274.26 892.111 1275.98 981.58C1276.9 1029.45 1271.6 1081.46 1238.27 1116.89C1198.32 1159.39 1131.61 1164.31 1074.41 1153.86C1035.48 1146.76 997.719 1134 959.28 1125.86C941.235 1122.03 923.021 1119.23 904.498 1118.5C786.613 1113.85 676.707 1198.14 623.175 1304.45C569.649 1410.77 563.545 1534.72 574.22 1653.24" stroke="url(#paint32_linear_1406_159)" stroke-width="0.8669" stroke-miterlimit="10"/>
<path opacity="0.54" d="M1481.9 81.094C1520.37 109.401 1528.89 165.136 1513.83 210.704C1512.49 214.775 1510.94 218.761 1509.25 222.646C1491.78 262.44 1459.65 293.346 1425.07 320.239C1418.44 325.4 1411.7 330.404 1404.94 335.32C1373.19 358.397 1339.98 380.487 1312.04 407.886C1303.08 416.686 1294.65 426.017 1287.03 436.069C1234.81 504.69 1225.68 596.929 1234.08 683.37C1234.69 689.651 1235.39 695.908 1236.17 702.12C1247.68 793.963 1273.21 883.775 1276.89 974.169C1278.89 1023.1 1273.86 1076.49 1240.21 1112.78C1199.83 1156.3 1131.81 1161.04 1073.63 1149.82C1034.05 1142.2 995.644 1128.7 956.516 1119.9C938.138 1115.79 919.613 1112.69 900.73 1111.75C780.597 1105.77 668.404 1191.38 614.154 1299.53C559.904 1407.69 554.318 1533.83 565.491 1654.3" stroke="url(#paint33_linear_1406_159)" stroke-width="0.8669" stroke-miterlimit="10"/>
<path opacity="0.54" d="M1473.58 70.8568C1512.03 99.098 1520.92 154.591 1506.32 200.388C1505.01 204.474 1503.54 208.486 1501.86 212.393C1484.78 252.432 1453.05 283.769 1418.71 311.085C1412.13 316.327 1405.44 321.412 1398.75 326.404C1367.24 349.86 1334.23 372.268 1306.45 399.813C1297.52 408.65 1289.17 418.008 1281.55 428.081C1229.56 496.923 1220.74 589.053 1229.82 675.477C1230.48 681.768 1231.24 688.008 1232.07 694.23C1244.42 785.987 1272.04 875.403 1277.67 966.722C1280.75 1016.72 1276 1071.5 1242 1108.66C1201.2 1153.23 1131.86 1157.75 1072.71 1145.77C1032.45 1137.63 993.422 1123.36 953.593 1113.96C934.898 1109.53 916.025 1106.19 896.783 1105.04C774.401 1097.72 659.927 1184.66 604.953 1294.64C549.984 1404.65 544.89 1532.97 556.582 1655.38" stroke="url(#paint34_linear_1406_159)" stroke-width="0.8669" stroke-miterlimit="10"/>
<path opacity="0.54" d="M1465.25 60.6199C1507.15 91.3251 1514.38 154.127 1494.51 202.129C1474.63 250.109 1433.92 286.022 1392.6 317.498C1351.29 348.974 1307.27 378.581 1276.12 420.126C1220.61 494.207 1214.86 594.715 1228.06 686.338C1241.25 777.988 1271.01 866.997 1278.55 959.273C1282.73 1010.33 1278.21 1066.5 1243.88 1104.51C1202.66 1150.13 1132 1154.45 1071.85 1141.69C1011.7 1128.92 954.271 1102.54 892.939 1098.27C768.302 1089.6 651.548 1177.87 595.855 1289.7C540.163 1401.54 535.586 1532.06 547.776 1656.4" stroke="url(#paint35_linear_1406_159)" stroke-width="0.8669" stroke-miterlimit="10"/>
</g>
<defs>
<linearGradient id="paint0_linear_1406_159" x1="1564.13" y1="469.553" x2="567.652" y2="736.559" gradientUnits="userSpaceOnUse">
<stop stop-color="#7ED4EF"/>
<stop offset="0.2294" stop-color="#66BFE6"/>
<stop offset="0.711" stop-color="#298BD0"/>
<stop offset="1" stop-color="#0169C2"/>
</linearGradient>
<linearGradient id="paint1_linear_1406_159" x1="1573.99" y1="788.228" x2="411.859" y2="1099.62" gradientUnits="userSpaceOnUse">
<stop stop-color="#7ED4EF"/>
<stop offset="0.2294" stop-color="#66BFE6"/>
<stop offset="0.711" stop-color="#298BD0"/>
<stop offset="1" stop-color="#0169C2"/>
</linearGradient>
<linearGradient id="paint2_linear_1406_159" x1="1715" y1="863.426" x2="309.776" y2="1239.95" gradientUnits="userSpaceOnUse">
<stop stop-color="#7ED4EF"/>
<stop offset="0.2294" stop-color="#66BFE6"/>
<stop offset="0.711" stop-color="#298BD0"/>
<stop offset="1" stop-color="#0169C2"/>
</linearGradient>
<linearGradient id="paint3_linear_1406_159" x1="1491.11" y1="283.486" x2="776.612" y2="474.935" gradientUnits="userSpaceOnUse">
<stop stop-color="#7ED4EF"/>
<stop offset="0.2294" stop-color="#66BFE6"/>
<stop offset="0.711" stop-color="#298BD0"/>
<stop offset="1" stop-color="#0169C2"/>
</linearGradient>
<linearGradient id="paint4_linear_1406_159" x1="860.034" y1="1649.77" x2="1706.91" y2="366.306" gradientUnits="userSpaceOnUse">
<stop stop-color="#7ED4EF"/>
<stop offset="0.2294" stop-color="#66BFE6"/>
<stop offset="0.711" stop-color="#298BD0"/>
<stop offset="1" stop-color="#0169C2"/>
</linearGradient>
<linearGradient id="paint5_linear_1406_159" x1="847.535" y1="1648.41" x2="1699.76" y2="356.835" gradientUnits="userSpaceOnUse">
<stop stop-color="#7ED4EF"/>
<stop offset="0.2294" stop-color="#66BFE6"/>
<stop offset="0.711" stop-color="#298BD0"/>
<stop offset="1" stop-color="#0169C2"/>
</linearGradient>
<linearGradient id="paint6_linear_1406_159" x1="835.038" y1="1647.05" x2="1692.62" y2="347.366" gradientUnits="userSpaceOnUse">
<stop stop-color="#7ED4EF"/>
<stop offset="0.2294" stop-color="#66BFE6"/>
<stop offset="0.711" stop-color="#298BD0"/>
<stop offset="1" stop-color="#0169C2"/>
</linearGradient>
<linearGradient id="paint7_linear_1406_159" x1="823.701" y1="1646.46" x2="1686.64" y2="338.662" gradientUnits="userSpaceOnUse">
<stop stop-color="#7ED4EF"/>
<stop offset="0.2294" stop-color="#66BFE6"/>
<stop offset="0.711" stop-color="#298BD0"/>
<stop offset="1" stop-color="#0169C2"/>
</linearGradient>
<linearGradient id="paint8_linear_1406_159" x1="814.347" y1="1647.18" x2="1682.63" y2="331.266" gradientUnits="userSpaceOnUse">
<stop stop-color="#7ED4EF"/>
<stop offset="0.2294" stop-color="#66BFE6"/>
<stop offset="0.711" stop-color="#298BD0"/>
<stop offset="1" stop-color="#0169C2"/>
</linearGradient>
<linearGradient id="paint9_linear_1406_159" x1="805.11" y1="1647.97" x2="1678.75" y2="323.948" gradientUnits="userSpaceOnUse">
<stop stop-color="#7ED4EF"/>
<stop offset="0.2294" stop-color="#66BFE6"/>
<stop offset="0.711" stop-color="#298BD0"/>
<stop offset="1" stop-color="#0169C2"/>
</linearGradient>
<linearGradient id="paint10_linear_1406_159" x1="795.999" y1="1648.84" x2="1674.99" y2="316.712" gradientUnits="userSpaceOnUse">
<stop stop-color="#7ED4EF"/>
<stop offset="0.2294" stop-color="#66BFE6"/>
<stop offset="0.711" stop-color="#298BD0"/>
<stop offset="1" stop-color="#0169C2"/>
</linearGradient>
<linearGradient id="paint11_linear_1406_159" x1="787.023" y1="1649.81" x2="1671.36" y2="309.565" gradientUnits="userSpaceOnUse">
<stop stop-color="#7ED4EF"/>
<stop offset="0.2294" stop-color="#66BFE6"/>
<stop offset="0.711" stop-color="#298BD0"/>
<stop offset="1" stop-color="#0169C2"/>
</linearGradient>
<linearGradient id="paint12_linear_1406_159" x1="778.339" y1="1650.96" x2="1668.03" y2="302.611" gradientUnits="userSpaceOnUse">
<stop stop-color="#7ED4EF"/>
<stop offset="0.2294" stop-color="#66BFE6"/>
<stop offset="0.711" stop-color="#298BD0"/>
<stop offset="1" stop-color="#0169C2"/>
</linearGradient>
<linearGradient id="paint13_linear_1406_159" x1="769.893" y1="1652.28" x2="1664.94" y2="295.814" gradientUnits="userSpaceOnUse">
<stop stop-color="#7ED4EF"/>
<stop offset="0.2294" stop-color="#66BFE6"/>
<stop offset="0.711" stop-color="#298BD0"/>
<stop offset="1" stop-color="#0169C2"/>
</linearGradient>
<linearGradient id="paint14_linear_1406_159" x1="761.592" y1="1653.69" x2="1661.99" y2="289.112" gradientUnits="userSpaceOnUse">
<stop stop-color="#7ED4EF"/>
<stop offset="0.2294" stop-color="#66BFE6"/>
<stop offset="0.711" stop-color="#298BD0"/>
<stop offset="1" stop-color="#0169C2"/>
</linearGradient>
<linearGradient id="paint15_linear_1406_159" x1="753.391" y1="1655.16" x2="1659.14" y2="282.476" gradientUnits="userSpaceOnUse">
<stop stop-color="#7ED4EF"/>
<stop offset="0.2294" stop-color="#66BFE6"/>
<stop offset="0.711" stop-color="#298BD0"/>
<stop offset="1" stop-color="#0169C2"/>
</linearGradient>
<linearGradient id="paint16_linear_1406_159" x1="745.262" y1="1656.68" x2="1656.36" y2="275.888" gradientUnits="userSpaceOnUse">
<stop stop-color="#7ED4EF"/>
<stop offset="0.2294" stop-color="#66BFE6"/>
<stop offset="0.711" stop-color="#298BD0"/>
<stop offset="1" stop-color="#0169C2"/>
</linearGradient>
<linearGradient id="paint17_linear_1406_159" x1="737.188" y1="1658.24" x2="1653.64" y2="269.336" gradientUnits="userSpaceOnUse">
<stop stop-color="#7ED4EF"/>
<stop offset="0.2294" stop-color="#66BFE6"/>
<stop offset="0.711" stop-color="#298BD0"/>
<stop offset="1" stop-color="#0169C2"/>
</linearGradient>
<linearGradient id="paint18_linear_1406_159" x1="729.156" y1="1659.82" x2="1650.96" y2="262.812" gradientUnits="userSpaceOnUse">
<stop stop-color="#7ED4EF"/>
<stop offset="0.2294" stop-color="#66BFE6"/>
<stop offset="0.711" stop-color="#298BD0"/>
<stop offset="1" stop-color="#0169C2"/>
</linearGradient>
<linearGradient id="paint19_linear_1406_159" x1="721.158" y1="1661.43" x2="1648.31" y2="256.309" gradientUnits="userSpaceOnUse">
<stop stop-color="#7ED4EF"/>
<stop offset="0.2294" stop-color="#66BFE6"/>
<stop offset="0.711" stop-color="#298BD0"/>
<stop offset="1" stop-color="#0169C2"/>
</linearGradient>
<linearGradient id="paint20_linear_1406_159" x1="713.184" y1="1663.05" x2="1645.68" y2="249.824" gradientUnits="userSpaceOnUse">
<stop stop-color="#7ED4EF"/>
<stop offset="0.2294" stop-color="#66BFE6"/>
<stop offset="0.711" stop-color="#298BD0"/>
<stop offset="1" stop-color="#0169C2"/>
</linearGradient>
<linearGradient id="paint21_linear_1406_159" x1="705.234" y1="1664.69" x2="1643.08" y2="243.353" gradientUnits="userSpaceOnUse">
<stop stop-color="#7ED4EF"/>
<stop offset="0.2294" stop-color="#66BFE6"/>
<stop offset="0.711" stop-color="#298BD0"/>
<stop offset="1" stop-color="#0169C2"/>
</linearGradient>
<linearGradient id="paint22_linear_1406_159" x1="697.3" y1="1666.34" x2="1640.5" y2="236.893" gradientUnits="userSpaceOnUse">
<stop stop-color="#7ED4EF"/>
<stop offset="0.2294" stop-color="#66BFE6"/>
<stop offset="0.711" stop-color="#298BD0"/>
<stop offset="1" stop-color="#0169C2"/>
</linearGradient>
<linearGradient id="paint23_linear_1406_159" x1="689.383" y1="1668" x2="1637.93" y2="230.444" gradientUnits="userSpaceOnUse">
<stop stop-color="#7ED4EF"/>
<stop offset="0.2294" stop-color="#66BFE6"/>
<stop offset="0.711" stop-color="#298BD0"/>
<stop offset="1" stop-color="#0169C2"/>
</linearGradient>
<linearGradient id="paint24_linear_1406_159" x1="681.476" y1="1669.67" x2="1635.38" y2="224.002" gradientUnits="userSpaceOnUse">
<stop stop-color="#7ED4EF"/>
<stop offset="0.2294" stop-color="#66BFE6"/>
<stop offset="0.711" stop-color="#298BD0"/>
<stop offset="1" stop-color="#0169C2"/>
</linearGradient>
<linearGradient id="paint25_linear_1406_159" x1="673.581" y1="1671.34" x2="1632.83" y2="217.567" gradientUnits="userSpaceOnUse">
<stop stop-color="#7ED4EF"/>
<stop offset="0.2294" stop-color="#66BFE6"/>
<stop offset="0.711" stop-color="#298BD0"/>
<stop offset="1" stop-color="#0169C2"/>
</linearGradient>
<linearGradient id="paint26_linear_1406_159" x1="665.694" y1="1673.02" x2="1630.3" y2="211.138" gradientUnits="userSpaceOnUse">
<stop stop-color="#7ED4EF"/>
<stop offset="0.2294" stop-color="#66BFE6"/>
<stop offset="0.711" stop-color="#298BD0"/>
<stop offset="1" stop-color="#0169C2"/>
</linearGradient>
<linearGradient id="paint27_linear_1406_159" x1="657.815" y1="1674.7" x2="1627.77" y2="204.715" gradientUnits="userSpaceOnUse">
<stop stop-color="#7ED4EF"/>
<stop offset="0.2294" stop-color="#66BFE6"/>
<stop offset="0.711" stop-color="#298BD0"/>
<stop offset="1" stop-color="#0169C2"/>
</linearGradient>
<linearGradient id="paint28_linear_1406_159" x1="649.944" y1="1676.39" x2="1625.25" y2="198.296" gradientUnits="userSpaceOnUse">
<stop stop-color="#7ED4EF"/>
<stop offset="0.2294" stop-color="#66BFE6"/>
<stop offset="0.711" stop-color="#298BD0"/>
<stop offset="1" stop-color="#0169C2"/>
</linearGradient>
<linearGradient id="paint29_linear_1406_159" x1="642.077" y1="1678.08" x2="1622.73" y2="191.88" gradientUnits="userSpaceOnUse">
<stop stop-color="#7ED4EF"/>
<stop offset="0.2294" stop-color="#66BFE6"/>
<stop offset="0.711" stop-color="#298BD0"/>
<stop offset="1" stop-color="#0169C2"/>
</linearGradient>
<linearGradient id="paint30_linear_1406_159" x1="634.217" y1="1679.78" x2="1620.22" y2="185.468" gradientUnits="userSpaceOnUse">
<stop stop-color="#7ED4EF"/>
<stop offset="0.2294" stop-color="#66BFE6"/>
<stop offset="0.711" stop-color="#298BD0"/>
<stop offset="1" stop-color="#0169C2"/>
</linearGradient>
<linearGradient id="paint31_linear_1406_159" x1="626.361" y1="1681.48" x2="1617.71" y2="179.06" gradientUnits="userSpaceOnUse">
<stop stop-color="#7ED4EF"/>
<stop offset="0.2294" stop-color="#66BFE6"/>
<stop offset="0.711" stop-color="#298BD0"/>
<stop offset="1" stop-color="#0169C2"/>
</linearGradient>
<linearGradient id="paint32_linear_1406_159" x1="618.509" y1="1683.18" x2="1615.21" y2="172.654" gradientUnits="userSpaceOnUse">
<stop stop-color="#7ED4EF"/>
<stop offset="0.2294" stop-color="#66BFE6"/>
<stop offset="0.711" stop-color="#298BD0"/>
<stop offset="1" stop-color="#0169C2"/>
</linearGradient>
<linearGradient id="paint33_linear_1406_159" x1="610.661" y1="1684.89" x2="1612.71" y2="166.25" gradientUnits="userSpaceOnUse">
<stop stop-color="#7ED4EF"/>
<stop offset="0.2294" stop-color="#66BFE6"/>
<stop offset="0.711" stop-color="#298BD0"/>
<stop offset="1" stop-color="#0169C2"/>
</linearGradient>
<linearGradient id="paint34_linear_1406_159" x1="602.817" y1="1686.59" x2="1610.22" y2="159.848" gradientUnits="userSpaceOnUse">
<stop stop-color="#7ED4EF"/>
<stop offset="0.2294" stop-color="#66BFE6"/>
<stop offset="0.711" stop-color="#298BD0"/>
<stop offset="1" stop-color="#0169C2"/>
</linearGradient>
<linearGradient id="paint35_linear_1406_159" x1="594.976" y1="1688.3" x2="1607.73" y2="153.449" gradientUnits="userSpaceOnUse">
<stop stop-color="#7ED4EF"/>
<stop offset="0.2294" stop-color="#66BFE6"/>
<stop offset="0.711" stop-color="#298BD0"/>
<stop offset="1" stop-color="#0169C2"/>
</linearGradient>
</defs>
</svg>
