<svg width="1261" height="990" viewBox="0 0 1261 990" fill="none" xmlns="http://www.w3.org/2000/svg">
<path d="M37.6119 379.555C-37.201 509.801 -71.4306 662.964 -59.2061 812.676C-54.5218 870.061 -42.8961 927.659 -16.6276 978.885C9.66178 1030.1 51.7384 1074.65 105.172 1096.08C167.153 1120.91 237.464 1112.73 301.934 1095.35C366.384 1077.98 428.655 1051.82 494.545 1041.02C560.436 1030.22 633.299 1037.07 685.021 1079.27C726.562 1113.16 749.476 1166.84 751.709 1220.41C753.922 1273.98 736.837 1327.18 709.491 1373.3C645.16 1481.74 524.653 1551.08 399.492 1566.36C274.33 1581.64 146.096 1546.42 37.8474 1481.79C-70.4007 1417.16 -159.863 1324.47 -233.801 1222.35C-323.934 1097.89 -393.374 955.941 -417.881 804.238C-442.387 652.536 -419.35 490.496 -337.618 360.351C-236.278 198.937 -59.2278 102.799 114.485 24.3754C163.655 2.17325 216.103 -19.6477 269.714 -13.6564C303.616 -9.86405 344.926 10.8514 360.634 42.8918C377.266 76.8198 343.626 86.7484 318.422 100.934C244.677 142.403 178.174 197.133 122.517 260.785C90.4183 297.492 61.8855 337.291 37.6119 379.555Z" fill="url(#paint0_linear_1367_575)"/>
<path d="M160.444 375.67C140.748 484.532 155.52 596.197 162.487 706.614C169.453 817.031 167.489 932.59 117.941 1031.5C90.1293 1087.03 44.5622 1137.28 -15.3113 1153.75C-85.8131 1173.13 -162.814 1141.14 -214.421 1089.32C-266.028 1037.51 -296.584 968.708 -322.165 900.2C-360.934 796.418 -391.26 686.842 -384.584 576.269C-374.283 405.865 -275.713 250.104 -147.693 137.186C-19.6815 24.2466 136.358 -51.4338 292.391 -120.673C331.384 -137.977 371.094 -155.137 413.316 -161.283C468.949 -169.392 538.107 -155.024 565.863 -100.362C592.223 -48.4417 531.23 -39.0763 494.58 -24.9083C386.652 16.7626 293.753 95.7534 232.206 193.366C197.15 248.949 172.16 310.97 160.444 375.67Z" fill="url(#paint1_linear_1367_575)"/>
<path d="M387.361 173.218C377.609 244.108 383.804 316.235 378.417 387.597C373.029 458.958 353.919 533.24 303.3 583.842C213.373 673.779 50.3491 665.17 -25.7407 767.09C-61.9243 815.552 -69.7118 878.658 -82.9642 937.674C-96.2166 996.69 -120.53 1059.7 -174.087 1087.83C-218.958 1111.41 -275.734 1103.89 -319.28 1077.93C-362.838 1051.99 -394.729 1010.03 -419.002 965.545C-507.283 803.842 -503.503 601.736 -434.443 430.935C-365.382 260.134 -236.792 118.519 -89.4633 7.89178C57.8442 -102.727 224.228 -184.912 390.661 -263.897C427.524 -281.397 465.049 -298.949 505.301 -305.674C545.553 -312.4 589.572 -307.018 621.954 -282.162C644.877 -264.581 672.783 -223.296 652.098 -195.412C635.565 -173.141 594.358 -159.852 572.245 -142.72C508.921 -93.714 457.97 -28.8782 424.954 44.0334C406.397 85.0162 393.502 128.617 387.361 173.218Z" fill="url(#paint2_linear_1367_575)"/>
<path opacity="0.55" d="M-150.549 703.11C-111.557 735.902 -63.3987 755.894 -22.5045 786.317C58.7565 846.77 106.49 949.64 100.195 1050.72C96.4574 1110.57 75.2393 1168.3 71.8036 1228.18C68.3678 1288.05 89.1131 1356.19 143.441 1381.57C191.814 1404.15 249.79 1385.15 294.568 1356.08C339.345 1327 377.955 1288.1 426.312 1265.53C474.691 1242.94 539.472 1241.65 574.541 1281.91C606.232 1318.3 601.715 1374.42 583.131 1418.95C547.826 1503.54 468.925 1566.3 380.676 1591.09C292.427 1615.87 196.295 1604.76 111.644 1569.65C26.9727 1534.55 -46.834 1476.57 -109.068 1409.25C-227.249 1281.42 -305.964 1117.66 -331.973 945.554C-342.283 877.292 -344.368 806.618 -325.936 740.103C-311.706 688.733 -281.574 627.886 -235.765 597.288C-202.447 575.03 -210.532 603.602 -202.277 629.566C-193.156 658.345 -173.431 683.853 -150.549 703.11Z" fill="url(#paint3_linear_1367_575)"/>
<g opacity="0.54">
<path opacity="0.54" d="M-486.227 1160.78C-528.374 1136.02 -534.564 1073.5 -510.999 1030.7C-487.443 987.874 -442.968 961.142 -398.901 939.993C-354.843 918.823 -308.121 900.507 -272.387 867.18C-198.441 798.191 -190.523 685.423 -190.371 584.294C-190.22 483.164 -189.43 372.04 -123.562 295.28C-71.9102 235.107 8.68873 209.984 74.6599 165.985C189.827 89.1877 258.723 -52.1083 248.255 -190.155" stroke="url(#paint4_linear_1367_575)" stroke-width="0.8669" stroke-miterlimit="10"/>
<path opacity="0.54" d="M-476.657 1169.86C-518.779 1145.16 -525.293 1082.92 -502.232 1039.96C-500.181 1036.12 -497.928 1032.41 -495.561 1028.8C-471.285 992.169 -431.257 967.904 -391.476 948.251C-383.797 944.454 -376.032 940.744 -368.268 937.034C-331.806 919.627 -295.128 902.033 -265.859 874.443C-256.369 865.51 -247.966 855.83 -240.541 845.553C-190.406 776.248 -184.691 679.509 -185.239 591.545C-185.287 585.151 -185.323 578.727 -185.347 572.274C-185.696 476.74 -181.706 375.931 -123.511 302.747C-106.864 281.818 -87.307 264.105 -64.9188 248.885C-38.4965 230.905 -8.76942 216.686 20.2536 202.416C40.0676 192.67 59.646 182.826 78.2209 171.493C86.9528 166.165 95.459 160.467 103.71 154.386C156.259 115.695 198.034 61.5648 224.488 1.08671C251.004 -59.5386 262.455 -126.422 256.859 -192.357" stroke="url(#paint5_linear_1367_575)" stroke-width="0.8669" stroke-miterlimit="10"/>
<path opacity="0.54" d="M-467.088 1178.94C-509.213 1154.29 -516.042 1092.35 -493.485 1049.24C-491.464 1045.38 -489.27 1041.65 -486.932 1038.03C-463.089 1001.23 -423.488 976.581 -384.03 956.501C-376.405 952.629 -368.717 948.853 -361.008 945.068C-324.834 927.316 -288.377 909.423 -259.302 881.717C-249.879 872.739 -241.506 863.047 -234.119 852.736C-184.242 783.221 -178.83 686.632 -180.056 598.8C-180.146 592.423 -180.232 585.996 -180.318 579.568C-181.482 484.248 -178.141 384.585 -123.359 310.221C-107.361 288.486 -88.8201 269.314 -66.2148 253.199C-39.5019 234.149 -8.45128 219.946 21.6377 206.309C42.1681 197 62.4776 187.806 81.8119 177.014C90.9105 171.925 99.7626 166.475 108.396 160.553C163.347 122.897 207.212 67.1502 234.141 4.7451C261.14 -57.7864 271.795 -126.781 265.434 -194.572" stroke="url(#paint6_linear_1367_575)" stroke-width="0.8669" stroke-miterlimit="10"/>
<path opacity="0.54" d="M-457.539 1188.03C-499.638 1163.45 -506.812 1101.8 -484.73 1058.53C-482.759 1054.67 -480.624 1050.92 -478.316 1047.28C-454.893 1010.29 -415.74 985.267 -376.596 964.78C-369.047 960.842 -361.402 956.961 -353.769 953.11C-317.884 935.013 -281.668 916.83 -252.766 889C-243.402 879.997 -235.088 870.281 -227.73 859.958C-178.123 790.261 -172.995 693.813 -174.906 606.093C-175.046 599.712 -175.195 593.31 -175.323 586.9C-177.309 491.773 -174.624 393.184 -123.271 317.72C-107.909 295.15 -90.3873 274.568 -67.5442 257.551C-40.5492 237.409 -8.16645 223.242 22.9971 210.261C44.2647 201.38 65.2931 192.865 85.3781 182.593C94.8313 177.773 104.062 172.532 113.058 166.779C170.41 130.158 216.374 72.8149 243.778 8.48275C271.251 -55.9758 281.118 -127.06 274.014 -196.716" stroke="url(#paint7_linear_1367_575)" stroke-width="0.8669" stroke-miterlimit="10"/>
<path opacity="0.54" d="M-447.961 1197.14C-490.043 1172.59 -497.532 1111.24 -475.975 1067.83C-474.043 1063.94 -471.949 1060.2 -469.7 1056.54C-446.718 1019.37 -407.984 993.975 -369.154 973.08C-361.669 969.046 -354.091 965.12 -346.493 961.186C-310.895 942.744 -274.909 924.24 -246.172 896.308C-236.875 887.26 -228.59 877.531 -221.291 867.184C-171.933 797.297 -167.139 700.986 -169.685 613.381C-169.867 607.018 -170.066 600.612 -170.266 594.207C-173.066 499.293 -171.117 401.642 -123.111 325.215C-108.415 301.797 -91.8714 279.789 -68.8027 261.898C-41.5049 240.656 -7.81087 226.535 24.4187 214.187C46.4112 205.764 68.1622 197.878 89.0274 188.139C98.8265 183.566 108.437 178.535 117.823 172.962C177.586 137.397 225.632 78.4163 253.518 12.1779C281.475 -54.1868 290.546 -127.382 282.698 -198.902" stroke="url(#paint8_linear_1367_575)" stroke-width="0.8669" stroke-miterlimit="10"/>
<path opacity="0.54" d="M-438.391 1206.22C-480.468 1181.75 -488.29 1120.65 -467.228 1077.1C-465.346 1073.21 -463.29 1069.43 -461.07 1065.76C-438.531 1028.41 -400.215 1002.65 -361.707 981.329C-354.277 977.221 -346.755 973.22 -339.232 969.219C-303.923 950.433 -268.158 931.63 -239.615 903.582C-230.376 894.51 -222.15 884.756 -214.869 874.367C-165.768 804.269 -161.269 708.129 -164.501 620.636C-164.734 614.269 -164.987 607.91 -165.236 601.501C-168.852 506.8 -167.702 409.991 -122.988 332.676C-108.926 308.373 -93.4049 285.006 -70.1277 266.2C-42.5393 243.887 -7.52176 229.782 25.7946 218.06C48.5244 210.064 71.0065 202.829 92.6101 193.638C102.776 189.305 112.732 184.522 122.502 179.108C184.666 144.578 234.81 84.0015 263.171 15.836C291.581 -52.4471 299.886 -127.741 291.294 -201.125" stroke="url(#paint9_linear_1367_575)" stroke-width="0.8669" stroke-miterlimit="10"/>
<path opacity="0.54" d="M-428.821 1215.3C-470.882 1190.87 -479.039 1130.09 -458.461 1086.37C-456.629 1082.47 -454.611 1078.66 -452.442 1074.99C-430.314 1037.46 -392.454 1011.31 -354.273 989.609C-346.899 985.425 -339.461 981.338 -331.993 977.262C-296.964 958.152 -261.449 939.037 -233.078 910.866C-223.908 901.748 -215.72 891.961 -208.488 881.568C-159.637 811.28 -155.451 715.269 -159.36 627.909C-159.634 621.558 -159.937 615.196 -160.25 608.813C-164.679 514.326 -164.372 418.253 -122.899 340.176C-109.499 314.975 -94.9805 290.24 -71.4569 270.552C-43.5864 247.147 -7.23675 233.079 27.1542 222.012C50.6004 214.453 73.8135 207.868 96.1765 199.218C106.697 195.153 117.032 190.58 127.184 185.325C191.751 151.831 243.985 89.6372 272.829 19.5655C301.722 -50.6239 309.23 -128.029 299.895 -203.277" stroke="url(#paint10_linear_1367_575)" stroke-width="0.8669" stroke-miterlimit="10"/>
<path opacity="0.54" d="M-419.273 1224.39C-461.328 1200.03 -469.788 1139.52 -449.727 1095.67C-447.924 1091.76 -445.957 1087.95 -443.825 1084.24C-422.139 1046.53 -384.698 1020.02 -346.839 997.887C-339.541 993.638 -332.137 989.467 -324.746 985.325C-289.984 965.862 -254.719 946.436 -226.534 918.17C-217.422 909.027 -209.272 899.207 -202.099 888.79C-153.497 818.312 -149.615 722.45 -154.21 635.202C-154.555 628.856 -154.9 622.511 -155.254 616.145C-160.498 521.871 -161.139 426.458 -122.81 347.675C-110.09 321.535 -96.5476 295.495 -72.7947 274.883C-44.6422 250.387 -6.96045 236.355 28.4965 225.922C52.6799 218.791 76.6034 212.864 99.7465 204.747C110.634 200.922 121.315 196.596 131.85 191.501C198.826 159.062 253.15 95.2517 282.469 23.253C311.837 -48.8634 318.557 -128.359 308.458 -205.463" stroke="url(#paint11_linear_1367_575)" stroke-width="0.8669" stroke-miterlimit="10"/>
<path opacity="0.54" d="M-409.694 1233.49C-451.724 1209.2 -460.529 1148.97 -440.951 1104.96C-439.207 1101.02 -437.269 1097.2 -435.188 1093.49C-413.922 1055.59 -376.95 1028.7 -339.384 1006.16C-332.15 1001.81 -324.822 997.575 -317.486 993.359C-283.012 973.551 -247.968 953.825 -219.977 925.444C-210.903 916.268 -202.833 906.432 -195.669 895.995C-147.345 825.314 -143.746 729.594 -149.018 642.477C-149.405 636.149 -149.801 629.8 -150.226 623.439C-156.305 529.387 -157.92 434.57 -122.68 355.157C-110.647 328.057 -98.0609 300.703 -74.1032 279.227C-45.66 253.659 -6.65475 239.643 29.8682 229.845C54.768 223.15 79.4311 217.894 103.334 210.318C114.567 206.74 125.635 202.645 136.532 197.718C205.911 166.315 262.304 100.896 292.127 26.9823C321.978 -47.0403 327.893 -128.667 317.059 -207.615" stroke="url(#paint12_linear_1367_575)" stroke-width="0.8669" stroke-miterlimit="10"/>
<path opacity="0.54" d="M-400.125 1242.58C-442.158 1218.33 -451.257 1158.4 -432.204 1114.24C-430.489 1110.29 -428.61 1106.44 -426.579 1102.73C-405.747 1064.66 -369.201 1037.39 -331.95 1014.44C-324.771 1010.02 -317.498 1005.7 -310.217 1001.41C-276.032 981.261 -241.23 961.244 -213.411 932.739C-204.405 923.518 -196.364 913.67 -189.259 903.208C-141.184 832.337 -137.89 736.766 -143.826 649.753C-144.255 643.442 -144.722 637.098 -145.188 630.754C-152.082 536.916 -154.776 442.616 -122.54 362.66C-111.226 334.587 -99.5861 305.941 -75.3905 283.562C-46.6653 256.903 -6.33656 242.902 31.2818 233.75C56.9274 227.504 82.2922 222.887 106.975 215.843C118.562 212.533 130.01 208.648 141.29 203.88C213.079 173.533 271.562 106.497 301.859 30.6564C332.193 -45.2724 337.333 -129.019 325.735 -209.822" stroke="url(#paint13_linear_1367_575)" stroke-width="0.8669" stroke-miterlimit="10"/>
<path opacity="0.54" d="M-390.555 1251.66C-432.563 1227.48 -442.015 1167.81 -423.449 1123.53C-421.785 1119.58 -419.956 1115.73 -417.942 1111.97C-397.531 1073.71 -361.433 1046.07 -324.495 1022.71C-317.392 1018.22 -310.175 1013.83 -302.949 1009.47C-269.044 988.992 -234.479 968.635 -206.846 940.035C-197.899 930.789 -189.917 920.917 -182.85 910.421C-135.024 839.361 -132.034 743.939 -138.656 657.038C-139.135 650.723 -139.643 644.396 -140.172 638.078C-147.881 544.453 -151.73 450.605 -122.431 370.152C-111.842 341.085 -101.133 311.188 -76.6993 287.906C-47.6921 260.155 -6.03114 246.191 32.6618 237.694C59.0446 231.876 85.1197 227.917 110.562 221.414C122.516 218.344 134.31 214.706 145.972 210.098C220.163 180.785 280.736 112.133 311.508 34.3651C342.316 -43.4909 346.669 -129.327 334.327 -211.995" stroke="url(#paint14_linear_1367_575)" stroke-width="0.8669" stroke-miterlimit="10"/>
<path opacity="0.54" d="M-381.007 1260.75C-423.018 1236.62 -432.786 1177.25 -414.703 1132.81C-413.098 1128.83 -411.299 1124.97 -409.335 1121.21C-389.365 1082.76 -353.685 1054.75 -317.083 1031C-310.035 1026.43 -302.882 1021.95 -295.732 1017.52C-262.115 996.698 -227.771 976.042 -200.311 947.318C-191.431 938.027 -183.478 928.142 -176.449 917.613C-128.881 846.342 -126.216 751.079 -133.494 664.301C-134.015 658.004 -134.594 651.682 -135.174 645.36C-143.697 551.949 -148.782 458.536 -122.33 377.622C-112.498 347.549 -102.697 316.392 -78.0465 292.216C-48.7486 263.394 -5.76419 249.447 33.9947 241.583C61.0939 236.202 87.9001 232.893 114.101 226.931C126.41 224.129 138.583 220.701 150.628 216.253C227.22 187.975 289.884 117.706 321.139 38.032C352.43 -41.7301 355.987 -129.678 342.901 -214.21" stroke="url(#paint15_linear_1367_575)" stroke-width="0.8669" stroke-miterlimit="10"/>
<path opacity="0.54" d="M-371.429 1269.85C-413.414 1245.78 -423.506 1186.7 -405.948 1142.1C-404.372 1138.11 -402.632 1134.23 -400.706 1130.43C-381.178 1091.81 -345.925 1063.41 -309.636 1039.24C-302.652 1034.59 -295.566 1030.06 -288.472 1025.55C-255.143 1004.39 -221.041 983.44 -193.754 954.593C-184.933 945.277 -177.027 935.338 -170.048 924.806C-122.729 853.344 -120.368 758.231 -128.332 671.565C-128.903 665.264 -129.524 658.959 -130.166 652.663C-139.512 559.445 -145.92 466.431 -122.229 385.092C-113.16 353.993 -104.231 321.609 -79.3632 296.539C-49.7834 266.625 -5.46689 252.714 35.3789 245.476C63.2153 240.523 90.7612 237.885 117.713 232.443C130.389 229.881 142.928 226.692 155.335 222.411C234.338 195.189 299.091 123.303 330.821 41.7023C362.587 -39.9868 365.356 -130.024 351.506 -216.413" stroke="url(#paint16_linear_1367_575)" stroke-width="0.8669" stroke-miterlimit="10"/>
<path opacity="0.54" d="M-361.859 1278.94C-403.848 1254.91 -414.255 1196.13 -397.18 1151.37C-395.655 1147.38 -393.944 1143.48 -392.077 1139.66C-372.961 1100.86 -338.156 1072.09 -302.181 1047.52C-295.252 1042.78 -288.251 1038.17 -281.204 1033.61C-248.163 1012.1 -214.29 990.83 -187.188 961.888C-178.426 952.548 -170.579 942.584 -163.638 932.019C-116.589 860.376 -114.52 765.383 -123.161 678.849C-123.795 672.574 -124.466 666.266 -125.15 659.987C-135.31 566.982 -143.101 474.342 -122.089 392.595C-113.836 360.465 -105.756 326.847 -80.6507 300.874C-50.7889 269.868 -5.14023 255.994 36.7801 249.411C65.3415 244.916 93.6099 242.907 121.321 238.005C134.343 235.691 147.24 232.72 160.039 228.62C241.443 202.433 308.287 128.93 340.499 45.423C372.749 -38.1723 374.721 -130.321 360.128 -218.574" stroke="url(#paint17_linear_1367_575)" stroke-width="0.8669" stroke-miterlimit="10"/>
<path opacity="0.54" d="M-352.31 1288.03C-394.273 1264.07 -405.025 1205.57 -388.446 1160.67C-386.97 1156.68 -385.298 1152.74 -383.481 1148.92C-364.807 1109.94 -330.428 1080.78 -294.768 1055.8C-287.915 1051.01 -280.948 1046.31 -273.964 1041.65C-241.182 1019.81 -207.56 998.228 -180.652 969.171C-171.957 959.785 -164.139 949.81 -157.228 939.232C-110.428 867.399 -108.663 772.556 -117.969 686.125C-118.653 679.846 -119.366 673.555 -120.112 667.302C-131.087 574.51 -140.328 482.2 -121.959 400.077C-114.528 366.897 -107.282 332.085 -81.959 305.217C-51.8065 273.141 -4.85526 259.291 38.1519 253.334C67.4505 249.266 96.4293 247.916 124.921 243.547C138.297 241.501 151.573 238.74 164.754 234.799C248.561 209.648 317.503 134.549 350.19 49.1145C382.914 -36.4079 384.098 -130.647 368.762 -220.764" stroke="url(#paint18_linear_1367_575)" stroke-width="0.8669" stroke-miterlimit="10"/>
<path opacity="0.54" d="M-342.74 1297.11C-384.707 1273.2 -395.753 1215 -379.699 1169.95C-378.262 1165.92 -376.639 1161.98 -374.852 1158.15C-356.599 1118.97 -322.659 1089.46 -287.342 1064.06C-280.545 1059.19 -273.654 1054.42 -266.725 1049.69C-234.232 1027.5 -200.851 1005.64 -174.116 976.454C-165.48 967.044 -157.721 957.044 -150.848 946.433C-104.305 874.389 -102.845 779.695 -112.828 693.398C-113.553 687.136 -114.329 680.87 -115.134 674.592C-126.923 582.015 -137.714 490.025 -121.878 407.556C-115.312 373.342 -108.866 337.298 -83.3052 309.528C-52.8707 276.36 -4.58733 262.547 39.4858 257.223C69.5008 253.593 99.2106 252.892 128.461 249.064C142.204 247.257 155.827 244.744 169.391 240.962C255.607 216.867 326.631 140.13 359.801 52.7899C393.008 -34.6387 393.396 -130.988 377.316 -222.97" stroke="url(#paint19_linear_1367_575)" stroke-width="0.8669" stroke-miterlimit="10"/>
<path opacity="0.54" d="M-333.162 1306.21C-375.104 1282.37 -386.502 1224.43 -370.923 1179.24C-369.536 1175.2 -367.964 1171.26 -366.215 1167.4C-348.403 1128.04 -314.882 1098.16 -279.879 1072.35C-273.145 1067.38 -266.31 1062.54 -259.457 1057.75C-227.251 1035.21 -194.1 1013.02 -167.55 983.749C-158.982 974.294 -151.252 964.282 -144.438 953.646C-98.1444 881.412 -96.9881 786.868 -107.657 700.682C-108.433 694.416 -109.25 688.168 -110.118 681.916C-122.722 589.552 -135.084 497.892 -121.768 415.047C-116.097 379.786 -110.391 342.536 -84.6137 313.871C-53.8971 279.612 -4.28159 265.835 40.8784 261.137C71.6306 257.934 102.059 257.913 132.061 254.605C146.158 253.067 160.16 250.764 174.085 247.15C262.704 224.09 335.826 145.757 369.471 56.4895C403.153 -32.8662 402.753 -131.306 385.93 -225.152" stroke="url(#paint20_linear_1367_575)" stroke-width="0.8669" stroke-miterlimit="10"/>
<path opacity="0.54" d="M-323.593 1315.29C-365.517 1291.49 -377.252 1233.86 -362.168 1188.53C-360.81 1184.49 -359.297 1180.52 -357.578 1176.64C-340.199 1137.12 -307.113 1106.84 -272.424 1080.62C-265.746 1075.58 -258.986 1070.67 -252.189 1065.8C-220.271 1042.92 -187.341 1020.44 -160.985 991.045C-152.475 981.565 -144.784 971.519 -138.008 960.851C-91.9629 888.426 -91.1108 794.032 -102.465 707.958C-103.283 701.709 -104.171 695.466 -105.081 689.231C-118.499 597.08 -132.524 505.765 -121.629 422.55C-116.881 386.231 -111.917 347.773 -85.9136 318.236C-54.9064 282.905 -3.96739 269.145 42.2671 265.101C73.7358 262.335 104.896 262.964 135.677 260.189C150.141 258.89 164.51 256.825 178.818 253.371C269.847 231.367 345.051 151.396 379.179 60.2227C413.343 -31.0392 412.148 -131.59 394.56 -227.291" stroke="url(#paint21_linear_1367_575)" stroke-width="0.8669" stroke-miterlimit="10"/>
<path opacity="0.54" d="M-314.044 1324.39C-355.963 1300.65 -368.001 1243.3 -353.422 1197.81C-352.123 1193.74 -350.639 1189.76 -348.97 1185.88C-332.012 1146.16 -299.365 1115.52 -264.99 1088.9C-258.388 1083.79 -251.671 1078.78 -244.941 1073.86C-213.312 1050.64 -180.624 1027.86 -154.42 998.34C-145.969 988.835 -138.345 978.745 -131.598 968.064C-85.8319 895.437 -85.2631 801.184 -97.2948 715.242C-98.1625 708.99 -99.0928 702.764 -100.065 696.555C-114.297 604.617 -130.024 513.612 -121.519 430.041C-117.716 392.672 -113.463 353.02 -87.2308 322.558C-55.9416 286.136 -3.67907 272.391 43.63 269.003C75.8445 266.686 107.727 267.944 139.256 265.739C154.066 264.687 168.801 262.862 183.492 259.568C276.944 238.59 354.225 157.032 388.819 63.9102C423.467 -29.2579 421.475 -131.919 403.144 -229.485" stroke="url(#paint22_linear_1367_575)" stroke-width="0.8669" stroke-miterlimit="10"/>
<path opacity="0.54" d="M-304.475 1333.47C-346.377 1309.78 -358.751 1252.73 -344.675 1207.08C-343.427 1203.01 -341.973 1199.02 -340.362 1195.11C-323.846 1155.21 -291.626 1124.19 -257.565 1097.16C-251.018 1091.98 -244.378 1086.9 -237.69 1081.88C-206.341 1058.33 -173.891 1035.21 -147.88 1005.57C-139.497 996.023 -131.903 985.92 -125.206 975.236C-79.6887 902.419 -79.445 808.324 -92.1206 722.477C-93.0509 716.25 -94.0107 710.012 -95.0329 703.799C-110.08 612.075 -127.562 521.427 -121.385 437.473C-118.569 399.071 -114.994 358.187 -88.5151 326.843C-56.9438 289.329 -3.34917 275.621 45.0259 272.867C77.9776 270.978 110.57 272.895 142.858 271.23C158.044 270.439 173.137 268.832 188.211 265.697C284.064 245.754 363.435 162.579 398.513 67.5515C433.635 -27.5436 430.876 -132.304 411.781 -231.726" stroke="url(#paint23_linear_1367_575)" stroke-width="0.8669" stroke-miterlimit="10"/>
<path opacity="0.54" d="M-294.896 1342.57C-336.793 1318.95 -349.491 1262.18 -335.92 1216.38C-334.701 1212.29 -333.305 1208.28 -331.724 1204.36C-315.62 1164.29 -283.848 1132.89 -250.131 1105.44C-243.647 1100.16 -237.053 1095.03 -230.442 1089.94C-199.381 1066.05 -167.151 1042.63 -141.335 1012.88C-133.011 1003.3 -125.475 993.175 -118.817 982.457C-73.5483 909.45 -73.6173 815.484 -86.97 729.769C-87.9506 723.539 -88.9729 717.327 -90.0369 711.131C-105.919 619.629 -125.177 529.347 -121.287 444.993C-119.457 405.559 -116.531 363.454 -89.8645 331.204C-58.0026 292.619 -3.08449 278.927 46.386 276.819C80.0541 275.366 113.378 277.933 146.446 276.801C161.977 276.258 177.459 274.881 192.894 271.914C291.158 253.027 372.619 168.235 408.171 71.2806C443.776 -25.7207 440.213 -132.613 420.382 -233.878" stroke="url(#paint24_linear_1367_575)" stroke-width="0.8669" stroke-miterlimit="10"/>
<path opacity="0.54" d="M-285.327 1351.65C-327.207 1328.08 -340.228 1271.59 -327.144 1225.66C-325.975 1221.57 -324.618 1217.53 -323.087 1213.6C-307.424 1173.35 -276.079 1141.56 -242.667 1113.73C-236.239 1108.38 -229.73 1103.16 -223.174 1097.99C-192.381 1073.75 -160.413 1050.05 -134.77 1020.17C-126.513 1010.55 -119.007 1000.41 -112.386 989.662C-67.3757 916.444 -67.7403 822.648 -81.7786 737.045C-82.8009 730.832 -83.8735 724.616 -85 718.446C-101.705 627.137 -122.802 537.246 -121.157 452.476C-120.363 412.005 -118.065 368.671 -91.1524 335.539C-59.0085 295.862 -2.75818 282.207 47.7783 280.733C82.1836 279.709 116.226 282.955 150.045 282.343C165.922 282.047 181.77 280.91 197.588 278.102C298.254 260.25 381.785 173.85 417.84 74.9806C453.92 -23.9478 449.569 -132.93 428.995 -236.06" stroke="url(#paint25_linear_1367_575)" stroke-width="0.8669" stroke-miterlimit="10"/>
<path opacity="0.54" d="M-275.778 1360.74C-317.653 1337.24 -330.998 1281.03 -318.418 1234.95C-317.288 1230.82 -315.972 1226.79 -314.5 1222.85C-299.279 1182.41 -268.352 1150.26 -235.263 1122C-228.911 1116.58 -222.436 1111.28 -215.956 1106.05C-185.451 1081.46 -153.704 1057.46 -128.255 1027.46C-120.057 1017.82 -112.589 1007.65 -106.027 996.872C-61.2652 923.463 -61.9427 829.797 -76.6581 744.326C-77.7307 738.109 -78.8658 731.919 -80.034 725.766C-97.554 634.671 -120.552 545.197 -121.089 459.984C-121.344 418.506 -119.653 373.934 -92.511 339.879C-60.0642 299.102 -2.50272 285.492 49.0997 284.652C84.23 284.085 118.995 287.961 153.594 287.88C169.847 287.845 186.053 286.926 202.254 284.278C305.321 267.461 390.95 179.465 427.481 78.6682C464.044 -22.1664 458.896 -133.259 437.558 -238.245" stroke="url(#paint26_linear_1367_575)" stroke-width="0.8669" stroke-miterlimit="10"/>
<path opacity="0.54" d="M-266.209 1369.83C-308.066 1346.36 -321.748 1290.46 -309.651 1244.21C-308.571 1240.09 -307.314 1236.03 -305.851 1232.06C-291.05 1191.43 -260.571 1158.91 -227.787 1130.26C-221.49 1124.76 -215.1 1119.38 -208.667 1114.09C-178.442 1089.18 -146.933 1064.84 -121.668 1034.75C-113.538 1025.06 -106.12 1014.88 -99.5968 1004.08C-55.1049 930.487 -56.0657 836.961 -71.4667 751.602C-72.581 745.403 -73.7664 739.208 -75.0058 733.061C-93.3402 642.178 -118.231 553.143 -120.967 467.445C-122.321 424.957 -121.196 379.13 -93.8284 344.201C-61.091 302.354 -2.20596 288.759 50.4833 288.545C86.3508 288.406 121.826 292.94 157.185 293.401C173.783 293.613 190.347 292.913 206.94 290.445C312.418 274.684 400.128 185.05 437.141 82.3472C474.158 -20.4058 468.244 -133.597 446.162 -240.447" stroke="url(#paint27_linear_1367_575)" stroke-width="0.8669" stroke-miterlimit="10"/>
<path opacity="0.54" d="M-256.63 1378.93C-298.483 1355.54 -312.468 1299.91 -300.887 1253.53C-299.857 1249.4 -298.638 1245.31 -297.226 1241.34C-282.858 1200.55 -252.806 1167.63 -220.366 1138.57C-214.124 1133 -207.789 1127.53 -201.42 1122.16C-171.482 1096.9 -140.215 1072.27 -115.124 1042.05C-107.052 1032.34 -99.6726 1022.13 -93.1871 1011.29C-48.9528 937.489 -50.2092 844.134 -66.2959 758.886C-67.4605 752.683 -68.7085 746.515 -69.9896 740.384C-89.1384 649.716 -115.984 561.144 -120.828 474.949C-123.272 431.47 -122.701 384.359 -95.1159 348.536C-62.0965 305.597 -1.87935 292.039 51.8845 292.48C88.4684 292.778 124.675 297.962 160.793 298.964C177.767 299.436 194.689 298.953 211.664 296.645C319.544 281.919 409.353 190.689 446.841 86.0594C484.341 -18.5998 477.63 -133.902 454.805 -242.617" stroke="url(#paint28_linear_1367_575)" stroke-width="0.8669" stroke-miterlimit="10"/>
<path opacity="0.54" d="M-247.061 1388.01C-288.897 1364.66 -303.217 1309.34 -292.12 1262.8C-291.128 1258.63 -289.951 1254.56 -288.585 1250.54C-274.638 1209.55 -245.034 1176.26 -212.907 1146.79C-206.75 1141.13 -200.462 1135.61 -194.148 1130.16C-164.499 1104.56 -133.453 1079.63 -108.534 1049.29C-100.521 1039.55 -93.209 1029.3 -86.7444 1018.46C-42.7591 944.474 -44.3283 851.247 -61.0713 766.124C-62.2776 759.938 -63.5672 753.787 -64.9195 747.661C-84.8827 657.206 -113.696 569.128 -120.664 482.393C-124.249 437.921 -124.193 389.559 -96.3705 352.833C-63.0691 308.802 -1.51977 295.281 53.3101 296.356C90.6312 297.082 127.577 302.937 164.446 304.458C181.766 305.178 199.076 304.927 216.413 302.786C326.703 289.116 418.593 196.249 456.576 89.6833C494.56 -16.8822 487.053 -134.296 463.484 -244.875" stroke="url(#paint29_linear_1367_575)" stroke-width="0.8669" stroke-miterlimit="10"/>
<path opacity="0.54" d="M-237.512 1397.1C-279.343 1373.82 -293.975 1318.75 -283.394 1272.08C-282.453 1267.91 -281.314 1263.81 -279.998 1259.78C-266.492 1218.61 -237.307 1184.96 -205.494 1155.08C-199.392 1149.34 -193.168 1143.73 -186.921 1138.23C-157.56 1112.29 -126.744 1087.03 -102.01 1056.6C-94.0651 1046.82 -86.7823 1036.55 -80.3766 1025.7C-36.6403 951.514 -38.5136 858.438 -55.9423 773.426C-57.2197 767.245 -58.5511 761.111 -59.9536 754.982C-80.7313 664.74 -111.524 577.184 -120.596 489.901C-125.314 444.457 -125.79 394.802 -97.7502 357.182C-64.1581 312.08 -1.28534 298.575 54.6105 300.284C92.648 301.446 130.325 307.951 167.953 310.014C185.619 310.981 203.296 310.969 221.015 308.988C333.707 296.353 427.688 201.869 466.154 93.3969C504.612 -15.0956 496.317 -134.599 472.005 -247.042" stroke="url(#paint30_linear_1367_575)" stroke-width="0.8669" stroke-miterlimit="10"/>
<path opacity="0.54" d="M-227.942 1406.19C-269.756 1382.95 -284.724 1328.19 -274.648 1281.36C-273.735 1277.18 -272.655 1273.05 -271.389 1269.02C-258.296 1227.67 -229.558 1193.64 -198.069 1163.33C-192.022 1157.53 -185.873 1151.85 -179.69 1146.25C-150.618 1119.96 -120.043 1094.42 -95.4826 1063.87C-87.5963 1054.06 -80.3515 1043.76 -73.9838 1032.87C-30.4965 958.496 -32.7035 865.556 -50.7884 780.669C-52.1075 774.505 -53.4892 768.367 -54.9543 762.264C-76.5465 672.235 -109.352 585.24 -120.503 497.35C-126.395 450.95 -127.332 399.998 -99.0756 361.484C-65.2015 315.29 -1.00511 301.801 55.9947 304.177C94.778 305.788 133.157 312.931 171.565 315.526C189.606 316.753 207.641 316.959 225.743 315.137C340.837 303.538 436.916 207.457 475.857 97.0587C514.798 -13.34 505.707 -134.955 480.652 -249.262" stroke="url(#paint31_linear_1367_575)" stroke-width="0.8669" stroke-miterlimit="10"/>
<path opacity="0.54" d="M-218.364 1415.29C-260.173 1392.12 -275.465 1337.64 -265.863 1290.66C-265.001 1286.48 -263.95 1282.34 -262.722 1278.27C-250.071 1236.75 -221.76 1202.33 -190.576 1171.64C-184.584 1165.75 -178.499 1159.98 -172.384 1154.34C-143.57 1127.72 -113.246 1101.86 -88.8789 1071.19C-81.06 1061.34 -73.8656 1051.04 -67.5359 1040.11C-24.3271 965.539 -26.8088 872.762 -45.5794 787.986C-46.9488 781.819 -48.3929 775.707 -49.8997 769.62C-72.3064 679.806 -107.137 593.401 -120.347 504.895C-127.412 457.54 -128.84 405.277 -100.346 365.86C-66.1896 318.575 -0.661162 305.122 57.4047 308.132C96.9252 310.172 136.014 317.973 175.182 321.109C193.569 322.584 211.991 323.021 230.456 321.367C347.96 310.823 446.12 213.105 485.544 100.8C524.96 -11.5256 515.081 -135.23 489.261 -251.394" stroke="url(#paint32_linear_1367_575)" stroke-width="0.8669" stroke-miterlimit="10"/>
<path opacity="0.54" d="M-208.815 1424.38C-250.607 1401.25 -266.214 1347.07 -257.137 1299.95C-256.334 1295.74 -255.312 1291.59 -254.135 1287.52C-241.925 1245.81 -214.032 1211.03 -183.192 1179.91C-177.285 1173.94 -171.247 1168.12 -165.174 1162.37C-136.649 1135.4 -106.554 1109.23 -82.3721 1078.47C-74.6121 1068.59 -67.4557 1058.25 -61.1849 1047.3C-18.2251 972.538 -21.0197 879.89 -40.4673 795.246C-41.8784 789.096 -43.3729 782.98 -44.9422 776.919C-68.1633 687.318 -105.031 601.533 -120.295 512.362C-128.568 464.089 -130.446 410.499 -101.734 370.188C-67.287 321.832 -0.435021 308.395 58.6968 312.039C98.9337 314.515 138.754 322.967 178.689 326.664C197.443 328.378 216.212 329.063 235.059 327.568C354.964 318.06 455.224 218.746 495.122 104.514C535.021 -9.71837 524.346 -135.534 497.783 -253.562" stroke="url(#paint33_linear_1367_575)" stroke-width="0.8669" stroke-miterlimit="10"/>
<path opacity="0.54" d="M-199.246 1433.46C-241.012 1410.4 -256.964 1356.51 -248.37 1309.21C-247.597 1304.99 -246.655 1300.83 -245.486 1296.73C-233.697 1254.83 -206.252 1219.68 -175.717 1188.17C-169.865 1182.13 -163.882 1176.23 -157.886 1170.42C-129.649 1143.1 -99.7952 1116.64 -75.7867 1085.75C-68.0647 1075.84 -60.988 1065.49 -54.7258 1054.52C-12.0151 979.565 -15.1137 887.066 -35.2262 802.526C-36.6876 796.372 -38.2446 790.282 -39.8643 784.218C-63.9084 694.809 -102.797 609.685 -120.115 519.848C-129.595 470.658 -131.93 415.72 -102.98 374.506C-68.2517 325.058 -0.0676559 311.658 60.1301 315.936C101.104 318.84 141.644 327.971 182.35 332.18C201.459 334.163 220.606 335.057 239.836 333.722C362.144 325.248 464.493 224.317 504.875 108.179C545.248 -7.97974 533.806 -135.894 506.478 -255.778" stroke="url(#paint34_linear_1367_575)" stroke-width="0.8669" stroke-miterlimit="10"/>
<path opacity="0.54" d="M-189.676 1442.54C-235.169 1417.48 -250.413 1356.13 -236.878 1305.97C-223.334 1255.83 -187.575 1214.98 -150.646 1178.46C-113.717 1141.93 -73.8743 1106.91 -48.324 1061.71C-2.79368 981.109 -10.0059 880.695 -34.8768 791.529C-59.7354 702.334 -100.686 617.888 -120.026 527.347C-130.733 477.248 -133.476 420.966 -104.309 378.858C-69.2982 328.318 0.217977 314.955 61.5112 319.88C122.804 324.804 183.146 343.584 244.519 339.939C369.237 332.521 473.676 229.974 514.533 111.909C555.389 -6.15666 543.151 -136.182 515.08 -257.93" stroke="url(#paint35_linear_1367_575)" stroke-width="0.8669" stroke-miterlimit="10"/>
</g>
<defs>
<linearGradient id="paint0_linear_1367_575" x1="-340.295" y1="1049.71" x2="613.599" y2="656.84" gradientUnits="userSpaceOnUse">
<stop stop-color="#7ED4EF"/>
<stop offset="0.2294" stop-color="#66BFE6"/>
<stop offset="0.711" stop-color="#298BD0"/>
<stop offset="1" stop-color="#0169C2"/>
</linearGradient>
<linearGradient id="paint1_linear_1367_575" x1="-391.037" y1="734.948" x2="721.435" y2="276.764" gradientUnits="userSpaceOnUse">
<stop stop-color="#7ED4EF"/>
<stop offset="0.2294" stop-color="#66BFE6"/>
<stop offset="0.711" stop-color="#298BD0"/>
<stop offset="1" stop-color="#0169C2"/>
</linearGradient>
<linearGradient id="paint2_linear_1367_575" x1="-540.536" y1="678.498" x2="804.633" y2="124.475" gradientUnits="userSpaceOnUse">
<stop stop-color="#7ED4EF"/>
<stop offset="0.2294" stop-color="#66BFE6"/>
<stop offset="0.711" stop-color="#298BD0"/>
<stop offset="1" stop-color="#0169C2"/>
</linearGradient>
<linearGradient id="paint3_linear_1367_575" x1="-243.965" y1="1224.85" x2="439.999" y2="943.152" gradientUnits="userSpaceOnUse">
<stop stop-color="#7ED4EF"/>
<stop offset="0.2294" stop-color="#66BFE6"/>
<stop offset="0.711" stop-color="#298BD0"/>
<stop offset="1" stop-color="#0169C2"/>
</linearGradient>
<linearGradient id="paint4_linear_1367_575" x1="206.264" y1="-211.214" x2="-468.619" y2="1170.45" gradientUnits="userSpaceOnUse">
<stop stop-color="#7ED4EF"/>
<stop offset="0.2294" stop-color="#66BFE6"/>
<stop offset="0.711" stop-color="#298BD0"/>
<stop offset="1" stop-color="#0169C2"/>
</linearGradient>
<linearGradient id="paint5_linear_1367_575" x1="218.835" y1="-211.474" x2="-460.315" y2="1178.93" gradientUnits="userSpaceOnUse">
<stop stop-color="#7ED4EF"/>
<stop offset="0.2294" stop-color="#66BFE6"/>
<stop offset="0.711" stop-color="#298BD0"/>
<stop offset="1" stop-color="#0169C2"/>
</linearGradient>
<linearGradient id="paint6_linear_1367_575" x1="231.401" y1="-211.734" x2="-452.013" y2="1187.4" gradientUnits="userSpaceOnUse">
<stop stop-color="#7ED4EF"/>
<stop offset="0.2294" stop-color="#66BFE6"/>
<stop offset="0.711" stop-color="#298BD0"/>
<stop offset="1" stop-color="#0169C2"/>
</linearGradient>
<linearGradient id="paint7_linear_1367_575" x1="242.72" y1="-212.605" x2="-444.96" y2="1195.26" gradientUnits="userSpaceOnUse">
<stop stop-color="#7ED4EF"/>
<stop offset="0.2294" stop-color="#66BFE6"/>
<stop offset="0.711" stop-color="#298BD0"/>
<stop offset="1" stop-color="#0169C2"/>
</linearGradient>
<linearGradient id="paint8_linear_1367_575" x1="251.905" y1="-214.516" x2="-440.04" y2="1202.08" gradientUnits="userSpaceOnUse">
<stop stop-color="#7ED4EF"/>
<stop offset="0.2294" stop-color="#66BFE6"/>
<stop offset="0.711" stop-color="#298BD0"/>
<stop offset="1" stop-color="#0169C2"/>
</linearGradient>
<linearGradient id="paint9_linear_1367_575" x1="260.964" y1="-216.489" x2="-435.246" y2="1208.84" gradientUnits="userSpaceOnUse">
<stop stop-color="#7ED4EF"/>
<stop offset="0.2294" stop-color="#66BFE6"/>
<stop offset="0.711" stop-color="#298BD0"/>
<stop offset="1" stop-color="#0169C2"/>
</linearGradient>
<linearGradient id="paint10_linear_1367_575" x1="269.887" y1="-218.528" x2="-430.588" y2="1215.53" gradientUnits="userSpaceOnUse">
<stop stop-color="#7ED4EF"/>
<stop offset="0.2294" stop-color="#66BFE6"/>
<stop offset="0.711" stop-color="#298BD0"/>
<stop offset="1" stop-color="#0169C2"/>
</linearGradient>
<linearGradient id="paint11_linear_1367_575" x1="278.664" y1="-220.638" x2="-426.075" y2="1222.16" gradientUnits="userSpaceOnUse">
<stop stop-color="#7ED4EF"/>
<stop offset="0.2294" stop-color="#66BFE6"/>
<stop offset="0.711" stop-color="#298BD0"/>
<stop offset="1" stop-color="#0169C2"/>
</linearGradient>
<linearGradient id="paint12_linear_1367_575" x1="287.128" y1="-222.901" x2="-421.877" y2="1228.62" gradientUnits="userSpaceOnUse">
<stop stop-color="#7ED4EF"/>
<stop offset="0.2294" stop-color="#66BFE6"/>
<stop offset="0.711" stop-color="#298BD0"/>
<stop offset="1" stop-color="#0169C2"/>
</linearGradient>
<linearGradient id="paint13_linear_1367_575" x1="295.335" y1="-225.288" x2="-417.934" y2="1234.97" gradientUnits="userSpaceOnUse">
<stop stop-color="#7ED4EF"/>
<stop offset="0.2294" stop-color="#66BFE6"/>
<stop offset="0.711" stop-color="#298BD0"/>
<stop offset="1" stop-color="#0169C2"/>
</linearGradient>
<linearGradient id="paint14_linear_1367_575" x1="303.387" y1="-227.751" x2="-414.147" y2="1241.23" gradientUnits="userSpaceOnUse">
<stop stop-color="#7ED4EF"/>
<stop offset="0.2294" stop-color="#66BFE6"/>
<stop offset="0.711" stop-color="#298BD0"/>
<stop offset="1" stop-color="#0169C2"/>
</linearGradient>
<linearGradient id="paint15_linear_1367_575" x1="311.33" y1="-230.267" x2="-410.468" y2="1247.45" gradientUnits="userSpaceOnUse">
<stop stop-color="#7ED4EF"/>
<stop offset="0.2294" stop-color="#66BFE6"/>
<stop offset="0.711" stop-color="#298BD0"/>
<stop offset="1" stop-color="#0169C2"/>
</linearGradient>
<linearGradient id="paint16_linear_1367_575" x1="319.195" y1="-232.821" x2="-406.867" y2="1253.62" gradientUnits="userSpaceOnUse">
<stop stop-color="#7ED4EF"/>
<stop offset="0.2294" stop-color="#66BFE6"/>
<stop offset="0.711" stop-color="#298BD0"/>
<stop offset="1" stop-color="#0169C2"/>
</linearGradient>
<linearGradient id="paint17_linear_1367_575" x1="327.002" y1="-235.403" x2="-403.324" y2="1259.77" gradientUnits="userSpaceOnUse">
<stop stop-color="#7ED4EF"/>
<stop offset="0.2294" stop-color="#66BFE6"/>
<stop offset="0.711" stop-color="#298BD0"/>
<stop offset="1" stop-color="#0169C2"/>
</linearGradient>
<linearGradient id="paint18_linear_1367_575" x1="334.764" y1="-238.007" x2="-399.826" y2="1265.9" gradientUnits="userSpaceOnUse">
<stop stop-color="#7ED4EF"/>
<stop offset="0.2294" stop-color="#66BFE6"/>
<stop offset="0.711" stop-color="#298BD0"/>
<stop offset="1" stop-color="#0169C2"/>
</linearGradient>
<linearGradient id="paint19_linear_1367_575" x1="342.49" y1="-240.628" x2="-396.364" y2="1272.01" gradientUnits="userSpaceOnUse">
<stop stop-color="#7ED4EF"/>
<stop offset="0.2294" stop-color="#66BFE6"/>
<stop offset="0.711" stop-color="#298BD0"/>
<stop offset="1" stop-color="#0169C2"/>
</linearGradient>
<linearGradient id="paint20_linear_1367_575" x1="350.189" y1="-243.263" x2="-392.93" y2="1278.1" gradientUnits="userSpaceOnUse">
<stop stop-color="#7ED4EF"/>
<stop offset="0.2294" stop-color="#66BFE6"/>
<stop offset="0.711" stop-color="#298BD0"/>
<stop offset="1" stop-color="#0169C2"/>
</linearGradient>
<linearGradient id="paint21_linear_1367_575" x1="357.863" y1="-245.909" x2="-389.519" y2="1284.18" gradientUnits="userSpaceOnUse">
<stop stop-color="#7ED4EF"/>
<stop offset="0.2294" stop-color="#66BFE6"/>
<stop offset="0.711" stop-color="#298BD0"/>
<stop offset="1" stop-color="#0169C2"/>
</linearGradient>
<linearGradient id="paint22_linear_1367_575" x1="365.518" y1="-248.565" x2="-386.128" y2="1290.26" gradientUnits="userSpaceOnUse">
<stop stop-color="#7ED4EF"/>
<stop offset="0.2294" stop-color="#66BFE6"/>
<stop offset="0.711" stop-color="#298BD0"/>
<stop offset="1" stop-color="#0169C2"/>
</linearGradient>
<linearGradient id="paint23_linear_1367_575" x1="373.157" y1="-251.227" x2="-382.753" y2="1296.32" gradientUnits="userSpaceOnUse">
<stop stop-color="#7ED4EF"/>
<stop offset="0.2294" stop-color="#66BFE6"/>
<stop offset="0.711" stop-color="#298BD0"/>
<stop offset="1" stop-color="#0169C2"/>
</linearGradient>
<linearGradient id="paint24_linear_1367_575" x1="380.784" y1="-253.896" x2="-379.389" y2="1302.38" gradientUnits="userSpaceOnUse">
<stop stop-color="#7ED4EF"/>
<stop offset="0.2294" stop-color="#66BFE6"/>
<stop offset="0.711" stop-color="#298BD0"/>
<stop offset="1" stop-color="#0169C2"/>
</linearGradient>
<linearGradient id="paint25_linear_1367_575" x1="388.399" y1="-256.571" x2="-376.038" y2="1308.44" gradientUnits="userSpaceOnUse">
<stop stop-color="#7ED4EF"/>
<stop offset="0.2294" stop-color="#66BFE6"/>
<stop offset="0.711" stop-color="#298BD0"/>
<stop offset="1" stop-color="#0169C2"/>
</linearGradient>
<linearGradient id="paint26_linear_1367_575" x1="396.004" y1="-259.25" x2="-372.696" y2="1314.49" gradientUnits="userSpaceOnUse">
<stop stop-color="#7ED4EF"/>
<stop offset="0.2294" stop-color="#66BFE6"/>
<stop offset="0.711" stop-color="#298BD0"/>
<stop offset="1" stop-color="#0169C2"/>
</linearGradient>
<linearGradient id="paint27_linear_1367_575" x1="403.601" y1="-261.933" x2="-369.363" y2="1320.53" gradientUnits="userSpaceOnUse">
<stop stop-color="#7ED4EF"/>
<stop offset="0.2294" stop-color="#66BFE6"/>
<stop offset="0.711" stop-color="#298BD0"/>
<stop offset="1" stop-color="#0169C2"/>
</linearGradient>
<linearGradient id="paint28_linear_1367_575" x1="411.19" y1="-264.62" x2="-366.037" y2="1326.57" gradientUnits="userSpaceOnUse">
<stop stop-color="#7ED4EF"/>
<stop offset="0.2294" stop-color="#66BFE6"/>
<stop offset="0.711" stop-color="#298BD0"/>
<stop offset="1" stop-color="#0169C2"/>
</linearGradient>
<linearGradient id="paint29_linear_1367_575" x1="418.773" y1="-267.31" x2="-362.718" y2="1332.61" gradientUnits="userSpaceOnUse">
<stop stop-color="#7ED4EF"/>
<stop offset="0.2294" stop-color="#66BFE6"/>
<stop offset="0.711" stop-color="#298BD0"/>
<stop offset="1" stop-color="#0169C2"/>
</linearGradient>
<linearGradient id="paint30_linear_1367_575" x1="426.35" y1="-270.002" x2="-359.404" y2="1338.65" gradientUnits="userSpaceOnUse">
<stop stop-color="#7ED4EF"/>
<stop offset="0.2294" stop-color="#66BFE6"/>
<stop offset="0.711" stop-color="#298BD0"/>
<stop offset="1" stop-color="#0169C2"/>
</linearGradient>
<linearGradient id="paint31_linear_1367_575" x1="433.923" y1="-272.697" x2="-356.095" y2="1344.68" gradientUnits="userSpaceOnUse">
<stop stop-color="#7ED4EF"/>
<stop offset="0.2294" stop-color="#66BFE6"/>
<stop offset="0.711" stop-color="#298BD0"/>
<stop offset="1" stop-color="#0169C2"/>
</linearGradient>
<linearGradient id="paint32_linear_1367_575" x1="441.491" y1="-275.394" x2="-352.79" y2="1350.71" gradientUnits="userSpaceOnUse">
<stop stop-color="#7ED4EF"/>
<stop offset="0.2294" stop-color="#66BFE6"/>
<stop offset="0.711" stop-color="#298BD0"/>
<stop offset="1" stop-color="#0169C2"/>
</linearGradient>
<linearGradient id="paint33_linear_1367_575" x1="449.055" y1="-278.092" x2="-349.489" y2="1356.74" gradientUnits="userSpaceOnUse">
<stop stop-color="#7ED4EF"/>
<stop offset="0.2294" stop-color="#66BFE6"/>
<stop offset="0.711" stop-color="#298BD0"/>
<stop offset="1" stop-color="#0169C2"/>
</linearGradient>
<linearGradient id="paint34_linear_1367_575" x1="456.615" y1="-280.793" x2="-346.193" y2="1362.77" gradientUnits="userSpaceOnUse">
<stop stop-color="#7ED4EF"/>
<stop offset="0.2294" stop-color="#66BFE6"/>
<stop offset="0.711" stop-color="#298BD0"/>
<stop offset="1" stop-color="#0169C2"/>
</linearGradient>
<linearGradient id="paint35_linear_1367_575" x1="464.172" y1="-283.495" x2="-342.898" y2="1368.8" gradientUnits="userSpaceOnUse">
<stop stop-color="#7ED4EF"/>
<stop offset="0.2294" stop-color="#66BFE6"/>
<stop offset="0.711" stop-color="#298BD0"/>
<stop offset="1" stop-color="#0169C2"/>
</linearGradient>
</defs>
</svg>
