<?xml version="1.0" encoding="utf-8"?>
<!-- Generator: Adobe Illustrator 26.1.0, SVG Export Plug-In . SVG Version: 6.00 Build 0)  -->
<svg version="1.1" id="Layer_1" xmlns="http://www.w3.org/2000/svg" xmlns:xlink="http://www.w3.org/1999/xlink" x="0px" y="0px"
	 viewBox="0 0 407.44 137.95" style="enable-background:new 0 0 407.44 137.95;" xml:space="preserve">
<style type="text/css">
	.st0{fill:#1B1B1D;}
	.st1{fill:url(#SVGID_1_);}
	.st2{fill:url(#SVGID_00000045617609472002927150000000774656855011779480_);}
</style>
<g>
	<g>
		<path class="st0" d="M51.99,44.05c-0.51-0.13-1-0.26-1.48-0.38c-13.77-3.6-17.24-5.52-17.24-11.03c0-4.46,3.84-7.81,11.16-7.81
			c6.12,0,12.41,2.25,18.81,6.11l12.7-12.7c-8.63-6.6-19.08-10.27-31.26-10.27c-17.73,0-30.38,10.41-30.38,26.16
			c0,14.77,8.06,20.52,21.12,24.63c2.39,0.76,4.94,1.46,7.65,2.15c14.5,3.72,17.48,6.2,17.48,11.04c0,5.33-4.71,8.43-12.52,8.43
			c-9.4,0-17.24-3.67-24.68-9.55L10.83,83.35c10.41,9.3,23.68,13.89,36.82,13.89c18.73,0,31.87-9.67,31.87-26.91
			C79.52,54.96,69.6,48.63,51.99,44.05z"/>
		<path class="st0" d="M152.59,62.89c0-19.1,15.38-34.59,36.08-34.59c20.58,0,35.83,15.25,35.83,34.59
			c0,19.09-15.38,34.59-36.08,34.59C167.84,97.48,152.59,82.23,152.59,62.89z M205.91,62.89c0-9.8-7.07-18.35-17.48-18.35
			c-10.79,0-17.23,8.31-17.23,18.35c0,9.8,7.07,18.35,17.48,18.35C199.46,81.24,205.91,72.93,205.91,62.89z"/>
		<path class="st0" d="M231.32,29.54h18.85v13.39c3.84-9.18,10.04-13.89,21.2-13.39v16.12h-0.99c-12.52,0-20.21,9.92-20.21,25.79V96
			h-18.85V29.54z"/>
		<path class="st0" d="M286.13,77.15v-31.5h-7.94V29.54h7.94V12.55h18.85v16.99h15.62v16.12h-15.62v28.39
			c0,4.34,1.86,6.45,6.08,6.45c3.47,0,6.57-0.87,9.3-2.36v15.13c-3.97,2.36-8.56,3.84-14.88,3.84
			C293.94,97.11,286.13,92.53,286.13,77.15z"/>
		<path class="st0" d="M332.5,111.62l6.32-13.64c2.48,1.49,5.58,2.6,8.06,2.6c3.22,0,4.96-0.99,6.57-4.34l-26.04-66.71h19.96
			l15.13,45.26l14.51-45.26h19.59l-25.54,68.07c-5.08,13.52-10.54,18.6-21.82,18.6C342.42,116.21,337.34,114.47,332.5,111.62z"/>
	</g>
	<g>
		<linearGradient id="SVGID_1_" gradientUnits="userSpaceOnUse" x1="96.8848" y1="5.5342" x2="120.0613" y2="136.9941">
			<stop  offset="0" style="stop-color:#00CCFF"/>
			<stop  offset="1" style="stop-color:#003CBF"/>
		</linearGradient>
		<polygon class="st1" points="77.69,129.98 98.38,39.59 86.23,7.97 145.77,49.48 		"/>
		
			<linearGradient id="SVGID_00000062150452577288706710000002582525169877805988_" gradientUnits="userSpaceOnUse" x1="74.774" y1="6.146" x2="102.7143" y2="111.8661">
			<stop  offset="0" style="stop-color:#00CCFF"/>
			<stop  offset="1" style="stop-color:#003CBF"/>
		</linearGradient>
		<polygon style="fill:url(#SVGID_00000062150452577288706710000002582525169877805988_);" points="86.23,7.97 115.48,47.34 
			77.69,129.98 98.38,39.59 		"/>
	</g>
</g>
</svg>
