<svg width="36" height="36" viewBox="0 0 36 36" fill="none" xmlns="http://www.w3.org/2000/svg">
<path d="M18.4659 26.8704C18.1744 26.7168 17.826 26.7166 17.5344 26.8699L10.5358 30.5495C9.80217 30.9352 8.9447 30.3122 9.08484 29.4953L10.4218 21.7016C10.4775 21.377 10.3697 21.0457 10.1337 20.816L4.46464 15.2977C3.87036 14.7193 4.19797 13.7104 5.01872 13.5915L12.8402 12.4579C13.1661 12.4107 13.4478 12.2061 13.5935 11.9108L17.093 4.82001C17.4598 4.07676 18.5197 4.07676 18.8865 4.82001L22.386 11.9108C22.5317 12.2061 22.8134 12.4107 23.1393 12.4579L30.9608 13.5915C31.7815 13.7104 32.1091 14.7193 31.5148 15.2977L25.8458 20.816C25.6098 21.0457 25.502 21.377 25.5577 21.7016L26.8942 29.493C27.0345 30.3103 26.1761 30.9333 25.4424 30.5467L18.4659 26.8704Z" stroke="#016BD4" stroke-width="2" stroke-linecap="round" stroke-linejoin="round"/>
</svg>
