<svg width="30" height="30" viewBox="0 0 30 30" fill="none" xmlns="http://www.w3.org/2000/svg">
<path d="M11.25 13.75C14.0114 13.75 16.25 11.5114 16.25 8.75C16.25 5.98858 14.0114 3.75 11.25 3.75C8.48858 3.75 6.25 5.98858 6.25 8.75C6.25 11.5114 8.48858 13.75 11.25 13.75Z" stroke="#fff" stroke-width="2" stroke-linecap="round" stroke-linejoin="round"/>
<path d="M3.75 26.25V23.75C3.75 22.4239 4.27678 21.1521 5.21447 20.2145C6.15215 19.2768 7.42392 18.75 8.75 18.75H13.75C15.0761 18.75 16.3479 19.2768 17.2855 20.2145C18.2232 21.1521 18.75 22.4239 18.75 23.75V26.25" stroke="#fff" stroke-width="2" stroke-linecap="round" stroke-linejoin="round"/>
<path d="M20 3.91251C21.0755 4.18788 22.0288 4.81338 22.7095 5.69039C23.3903 6.56741 23.7598 7.64604 23.7598 8.75626C23.7598 9.86647 23.3903 10.9451 22.7095 11.8221C22.0288 12.6991 21.0755 13.3246 20 13.6" stroke="#fff" stroke-width="2" stroke-linecap="round" stroke-linejoin="round"/>
<path d="M26.25 26.25V23.75C26.2437 22.6464 25.8724 21.576 25.1941 20.7055C24.5158 19.835 23.5685 19.2134 22.5 18.9375" stroke="#fff" stroke-width="2" stroke-linecap="round" stroke-linejoin="round"/>
</svg>
