<svg width="32" height="13" fill="none" xmlns="http://www.w3.org/2000/svg"><path d="M7.5.4h2V8a4 4 0 0 1-2.2 3.7c-.7.3-1.5.5-2.4.5-1 0-1.8-.2-2.5-.6a4 4 0 0 1-1.7-1.4C.3 9.5.1 8.8.1 8V.4h2.2v7.4c0 .5 0 1 .3 1.3.2.4.5.7.9.9.4.2.8.3 1.4.3.5 0 1-.1 1.4-.3.3-.2.7-.5.9-1 .2-.3.3-.7.3-1.2V.4ZM11.8 12v-1.3l6-8.6h-6V.4h8.6v1.3l-6 8.5h6V12h-8.6ZM29 3.6c0-.5-.3-1-.7-1.2-.4-.3-.9-.4-1.5-.4-.5 0-.8 0-1.2.2l-.7.5a1.3 1.3 0 0 0 0 1.4c0 .2.2.4.4.5l.6.3.7.2 1.1.3c.5 0 .9.2 1.3.4s.8.4 1 .7c.4.2.7.5.9 1 .2.3.3.7.3 1.2a3.2 3.2 0 0 1-2 3c-.7.3-1.5.5-2.5.5a6 6 0 0 1-2.3-.4c-.7-.3-1.2-.7-1.6-1.3-.3-.5-.6-1.2-.6-2h2c.1.5.2.8.5 1l.8.7 1.2.2c.5 0 .9 0 1.2-.2l.8-.6.3-.9c0-.3 0-.5-.2-.7a2 2 0 0 0-.8-.5 7 7 0 0 0-1-.4l-1.4-.3c-1-.3-1.7-.7-2.2-1.2-.6-.5-.9-1.1-.9-2 0-.6.2-1.2.6-1.8.4-.5.9-.9 1.5-1.2.7-.3 1.4-.4 2.2-.4.8 0 1.5.1 2.2.4.6.3 1 .7 1.4 1.2.4.5.6 1.1.6 1.8h-2Z" fill="#B6BCCB"/></svg>