<?xml version="1.0" encoding="utf-8"?>
<!-- Generator: Adobe Illustrator 26.1.0, SVG Export Plug-In . SVG Version: 6.00 Build 0)  -->
<svg version="1.1" id="Layer_1" xmlns="http://www.w3.org/2000/svg" xmlns:xlink="http://www.w3.org/1999/xlink" x="0px" y="0px"
	 viewBox="0 0 1080 312.3" style="enable-background:new 0 0 1080 312.3;" xml:space="preserve">
<style type="text/css">
	.st0{fill:#0071BC;}
	.st1{fill:#1B1B1D;}
</style>
<g>
	<g>
		<g>
			<g>
				<path class="st0" d="M272.9,294.6H166.6c-83.9,0-152.2-68.3-152.2-152.2l64.9,32.4c12.8,35.1,48.5,70.9,116.2,70.9h77.4V294.6z"
					/>
			</g>
		</g>
		<g>
			<path class="st0" d="M143.6,14.7C72.2,14.7,14.4,72.6,14.4,144s57.9,50.1,129.3,50.1s129.3,21.3,129.3-50.1S215,14.7,143.6,14.7z
				 M143.6,144c-43.7,0-79.1,43.7-79.1,0c0-43.7,35.4-79.1,79.1-79.1c43.7,0,79.1,35.4,79.1,79.1C222.8,187.8,187.3,144,143.6,144z"
				/>
		</g>
	</g>
	<g>
		<path class="st1" d="M513.4,112.7c15.3,15,23,37.2,23,66.6v115.3H478V188.3c0-16-3.5-27.9-10.5-35.7c-7-7.9-17.1-11.8-30.3-11.8
			c-14.7,0-26.4,4.6-35.2,13.7c-8.7,9.1-13.1,22.6-13.1,40.6v99.6h-58.4V16.9H389v97.3c7.7-7.7,17.1-13.7,28.1-17.8
			c11-4.1,23-6.2,35.9-6.2C477.9,90.2,498.1,97.7,513.4,112.7z"/>
		<path class="st1" d="M792.1,93.2v201.4h-55.4v-24c-7.7,8.7-17,15.4-27.7,20c-10.7,4.6-22.3,6.9-34.8,6.9
			c-26.5,0-47.4-7.6-62.9-22.8c-15.5-15.2-23.2-37.8-23.2-67.7V93.2h58.4v105.2c0,32.4,13.6,48.7,40.8,48.7c14,0,25.2-4.5,33.7-13.7
			c8.5-9.1,12.7-22.6,12.7-40.6V93.2H792.1z"/>
		<path class="st1" d="M1016.4,103.1c15.3,8.6,27.4,20.7,36.1,36.3c8.7,15.6,13.1,33.7,13.1,54.5c0,20.7-4.4,38.9-13.1,54.5
			c-8.7,15.6-20.8,27.7-36.1,36.3c-15.3,8.6-32.4,12.9-51.1,12.9c-27.7,0-48.8-8.7-63.3-26.2v23.2h-55.8V16.9h58.4v97.7
			c14.7-16.2,34.9-24.3,60.6-24.3C984,90.2,1001.1,94.5,1016.4,103.1z M992.1,234.5c9.6-10.1,14.4-23.6,14.4-40.6
			c0-17-4.8-30.5-14.4-40.6c-9.6-10.1-21.9-15.2-36.9-15.2c-15,0-27.3,5.1-36.9,15.2c-9.6,10.1-14.4,23.6-14.4,40.6
			c0,17,4.8,30.5,14.4,40.6c9.6,10.1,21.9,15.2,36.9,15.2C970.2,249.7,982.5,244.6,992.1,234.5z"/>
	</g>
</g>
</svg>
