<svg width="34" height="34" viewBox="0 0 34 34" fill="none" xmlns="http://www.w3.org/2000/svg">
<path d="M2.8335 12.75C2.8335 16.5072 4.32605 20.1106 6.98282 22.7673C9.63958 25.4241 13.2429 26.9167 17.0002 26.9167C20.7574 26.9167 24.3607 25.4241 27.0175 22.7673C29.6743 20.1106 31.1668 16.5072 31.1668 12.75" stroke="#1B1B1D" stroke-width="2" stroke-linecap="round" stroke-linejoin="round"/>
<path d="M17 26.9167C17 23.1594 18.4926 19.5561 21.1493 16.8993C23.8061 14.2426 27.4094 12.75 31.1667 12.75" stroke="#1B1B1D" stroke-width="2" stroke-linecap="round" stroke-linejoin="round"/>
<path d="M2.8335 12.75C4.69389 12.75 6.53607 13.1164 8.25484 13.8284C9.97362 14.5403 11.5353 15.5838 12.8508 16.8993C14.1663 18.2148 15.2098 19.7765 15.9218 21.4953C16.6337 23.2141 17.0002 25.0563 17.0002 26.9167" stroke="#1B1B1D" stroke-width="2" stroke-linecap="round" stroke-linejoin="round"/>
<path d="M17 5.6665C18.4277 7.02941 19.545 8.68389 20.2759 10.5173C21.0069 12.3508 21.3343 14.3202 21.2358 16.2915" stroke="#1B1B1D" stroke-width="2" stroke-linecap="round" stroke-linejoin="round"/>
<path d="M12.7642 16.2915C12.6657 14.3202 12.9931 12.3508 13.7241 10.5173C14.455 8.68389 15.5723 7.02941 17 5.6665" stroke="#1B1B1D" stroke-width="2" stroke-linecap="round" stroke-linejoin="round"/>
</svg>
